<?xml version="1.0" encoding="UTF-8" standalone="no"?>
<!DOCTYPE svg PUBLIC "-//W3C//DTD SVG 1.1//EN" "http://www.w3.org/Graphics/SVG/1.1/DTD/svg11.dtd">
<!-- 由 Microsoft Visio, SVG Export 生成 华师 字标 黑白.svg svg2 -->
<svg xmlns="http://www.w3.org/2000/svg" xmlns:xlink="http://www.w3.org/1999/xlink" xmlns:ev="http://www.w3.org/2001/xml-events"
		xmlns:v="http://schemas.microsoft.com/visio/2003/SVGExtensions/" width="3.62263in" height="1.39114in"
		viewBox="0 0 260.829 100.162" xml:space="preserve" color-interpolation-filters="sRGB" class="st4">
	<v:documentProperties v:langID="2052" v:viewMarkup="false"/>

	<style type="text/css">
	<![CDATA[
		.st1 {fill:#231f20;stroke:none;stroke-linecap:butt;stroke-width:0.1}
		.st2 {fill:#231f20}
		.st3 {stroke:none;stroke-linecap:butt;stroke-width:0.1}
		.st4 {fill:none;fill-rule:evenodd;font-size:12px;overflow:visible;stroke-linecap:square;stroke-miterlimit:3}
	]]>
	</style>

	<g v:mID="0" v:index="1" v:groupContext="foregroundPage">
		<title>svg2</title>
		<v:pageProperties v:drawingScale="1" v:pageScale="1" v:drawingUnits="19" v:shadowOffsetX="9" v:shadowOffsetY="-9"/>
		<g id="shape192-1" v:mID="192" v:groupContext="shape" transform="translate(18.0398,118.185) scale(1,-1)">
			<title>path556</title>
			<path d="M15.7 97.22 C15.25 97.32 15.02 97.36 14.88 97.46 C14.75 97.57 14.58 97.6 14.23 97.36 C13.88 97.12 13.54 97.08
						 13.44 96.92 C13.35 96.76 13.22 96.71 12.97 96.56 C12.73 96.42 11.33 95.17 11.11 94.57 C10.88 93.97 10.84
						 93.51 10.88 93.1 C10.92 92.71 11.35 92.01 11.56 91.93 C11.75 91.86 11.85 91.88 12.13 91.59 C12.41 91.3 12.75
						 91.17 12.51 90.85 C12.27 90.52 12.28 90.45 11.9 90.45 C11.54 90.45 10.82 90.47 10.6 90.49 C10.37 90.5 9.98
						 90.23 9.96 90.02 C9.95 89.8 10.18 89.43 10.22 89.19 C10.26 88.93 10.5 88.84 10.73 88.55 C10.96 88.26 11.01
						 87.95 11.35 87.75 C11.68 87.55 11.79 87.54 12 87.52 C12.21 87.5 12.43 87.61 12.62 87.32 C12.8 87.04 12.84
						 86.96 12.79 86.67 C12.73 86.39 12.97 86.31 12.99 85.75 C13.01 85.19 13.01 84.09 13.01 83.69 C13.01 83.29
						 13.09 83.04 12.62 82.82 C12.15 82.61 11.04 82.09 10.58 81.95 C10.11 81.81 8.8 81.18 8.5 80.73 C8.2 80.27
						 8.24 79.96 8.05 79.8 C7.86 79.64 7.51 79.26 7.94 78.75 C8.37 78.25 8.52 78.21 8.69 77.9 C8.86 77.6 9.53
						 77.58 9.88 77.63 C10.24 77.69 10.79 77.83 11.06 78.14 C11.35 78.45 11.68 78.68 11.87 78.81 C12.06 78.93
						 12.54 78.95 13.14 78.92 C13.74 78.88 14.28 78.83 14.52 79.17 C14.77 79.51 15.04 79.93 15.16 80.29 C15.29
						 80.65 15.72 81.28 15.99 81.44 C16.25 81.61 16.72 81.76 16.7 81.23 C16.68 80.71 16.67 80.05 16.65 79.68 C16.63
						 79.29 16.25 79.1 16.29 78.5 C16.33 77.9 16.46 77.45 16.4 77.09 C16.34 76.73 16.31 76.45 16.46 76.35 C16.6
						 76.24 16.58 76.07 16.5 75.88 C16.4 75.68 16.4 75.39 16.17 75.1 C15.95 74.81 15.69 74.43 15.31 74.27 C14.94
						 74.11 14.54 74.06 13.91 73.71 C13.28 73.37 13.24 73.46 12.86 73.24 C12.49 73.02 12.34 72.86 12.09 72.82
						 C11.85 72.79 11.59 72.81 11.33 72.59 C11.06 72.37 10.82 72.23 10.58 72.15 C10.33 72.08 10.22 72.1 9.95 71.9
						 C9.66 71.7 9.33 71.52 9.11 71.48 C8.91 71.45 8.64 71.36 8.41 71.18 C8.18 71 7.88 70.98 7.64 70.76 C7.4 70.55
						 7.19 70.45 7.06 70.42 C6.93 70.38 6.66 70.2 6.48 70.04 C6.3 69.88 5.5 69.5 5.25 69.3 C4.98 69.1 4.84 69.1
						 4.66 69.05 C4.49 68.99 4.36 68.86 4.08 68.68 C3.81 68.5 3.51 68.32 3.23 68.23 C2.95 68.14 2.68 68.14 2.53
						 68.03 C2.38 67.92 2.07 67.89 1.67 67.89 C1.27 67.89 1.05 67.74 0.91 67.58 C0.76 67.42 0.36 67.22 0.38 66.91
						 C0.4 66.6 0.3 66.59 0.17 66.42 C0.04 66.26 0 65.86 0.19 65.74 C0.38 65.61 0.3 65.48 0.4 65.18 C0.49 64.87
						 0.55 64.61 0.74 64.38 C0.93 64.14 0.94 64.02 1.09 63.8 C1.24 63.58 1.43 63.51 1.61 63.44 C1.8 63.37 2.01
						 63.21 2.17 63.23 C2.34 63.24 2.51 62.86 2.79 62.9 C3.08 62.93 3.3 63.01 3.49 63.13 C3.68 63.26 3.84 63.24
						 4.02 63.23 C4.22 63.21 4.38 63.23 4.57 63.51 C4.76 63.8 5.33 64.2 5.72 64.63 C6.09 65.07 6.7 65.66 7.04
						 65.95 C7.38 66.24 7.72 66.44 8.07 66.79 C8.43 67.13 8.72 67.24 8.93 67.47 C9.13 67.71 9.29 67.74 9.41 67.81
						 C9.55 67.89 9.74 68.07 9.88 68.22 C10.03 68.36 10.2 68.32 10.37 68.48 C10.54 68.65 11.2 69.21 11.27 69.28
						 C11.35 69.35 11.56 69.4 11.72 69.51 C11.88 69.62 12.15 69.88 12.39 70.08 C12.64 70.28 13.22 70.67 13.8 71.05
						 C14.38 71.43 15.09 71.83 15.35 71.99 C15.61 72.15 16.08 72.19 16.1 71.83 C16.12 71.47 16.15 70.51 16.21
						 70.11 C16.27 69.72 16.4 69.33 16.31 69.08 C16.21 68.83 16.23 68.68 16.25 68.25 C16.27 67.81 16.33 67.34
						 16.01 67 C15.69 66.66 15.12 66.28 14.67 66.09 C14.23 65.92 14.19 65.84 13.83 65.59 C13.48 65.34 13.38 65.3
						 13.19 65.27 C13.01 65.23 12.84 65.19 12.7 64.99 C12.54 64.79 12.36 64.76 12.11 64.74 C11.87 64.73 11.83
						 64.69 11.54 64.45 C11.24 64.22 10.47 63.49 10.22 63.24 C9.98 62.99 9.87 62.82 9.88 62.39 C9.9 61.96 9.88
						 61.6 10.13 61.31 C10.37 61.02 10.65 60.65 10.94 60.45 C11.14 60.31 11.35 60.19 11.52 60.1 C11.68 60 11.96
						 59.88 12.19 59.72 C12.41 59.55 12.7 59.21 12.97 59.21 C13.26 59.21 13.61 59.27 13.8 59.23 C13.99 59.19 14.12
						 59.35 14.27 59.52 C14.42 59.68 14.6 59.62 14.77 59.84 C14.94 60.06 15.16 60.3 15.28 60.51 C15.39 60.73 15.65
						 61.22 15.86 61.42 C16.06 61.61 16.38 61.67 16.4 61.22 C16.42 60.77 16.36 60.53 16.34 60.33 C16.33 60.13
						 16.55 59.9 16.63 59.77 C16.7 59.64 16.68 59.37 16.67 59.03 C16.65 58.69 16.63 57.64 16.63 57.39 C16.63 57.13
						 16.67 56.91 16.51 56.74 C16.36 56.55 16.36 56.46 16.34 56.23 C16.33 55.99 16.34 55.58 16.2 55.39 C16.05
						 55.21 16.12 54.98 15.95 54.83 C15.78 54.69 15.69 54.47 15.49 54.28 C15.28 54.08 15.28 53.9 15.29 53.62 C15.31
						 53.35 15.35 53.15 15.45 53.05 C15.53 52.93 15.63 52.72 15.63 52.52 C15.63 52.32 15.76 52.07 15.86 51.98
						 C15.95 51.89 16.01 51.69 16.01 51.53 C16.01 51.36 16.1 51.24 16.21 51.1 C16.33 50.95 16.65 50.62 16.74 50.35
						 C16.83 50.08 16.96 49.82 17.12 49.75 C17.29 49.68 17.5 49.56 17.69 49.32 C17.88 49.09 18.08 48.87 18.21
						 48.87 C18.35 48.87 18.67 48.74 18.82 48.54 C18.97 48.34 19.23 48.44 19.46 48.42 C19.71 48.4 19.99 48.57
						 20.16 48.76 C20.33 48.94 20.83 49.43 20.83 49.75 C20.83 50.08 21.15 51.02 21.32 51.27 C21.49 51.53 21.55
						 52.05 21.55 52.52 C21.55 52.99 21.49 53.48 21.44 53.88 C21.38 54.28 21.45 55.2 21.45 55.5 C21.45 55.99 21.12
						 56.33 21.12 56.88 C21.12 57.2 21.19 58.12 21.14 58.42 C21.08 58.7 21.14 59.19 21.1 59.35 C21.06 59.52 20.93
						 59.93 20.83 60.19 C20.74 60.43 20.76 60.96 20.74 61.14 C20.72 61.32 20.61 61.6 20.63 61.94 C20.65 62.28
						 20.68 62.82 20.53 63.08 C20.38 63.33 20.39 63.74 20.42 64.04 C20.44 64.2 20.5 64.26 20.87 64.41 C21.24 64.58
						 21.64 64.73 21.9 64.85 C22.16 64.97 22.57 65.21 22.82 65.25 C23.06 65.29 23.81 65.79 24.15 66.13 C24.49
						 66.47 24.79 66.53 24.76 67.13 C24.74 67.73 24.43 68.23 24.09 68.5 C23.76 68.77 23.12 69.13 22.91 69.33 C22.71
						 69.53 22.52 69.53 22.09 69.55 C21.66 69.57 21.14 69.57 20.97 69.51 C20.8 69.46 20.68 69.26 20.52 69.22 C20.35
						 69.19 19.9 69.01 19.78 69.3 C19.67 69.59 19.44 70.35 19.4 71.03 C19.36 71.72 19.42 72.59 19.51 72.97 C19.6
						 73.35 19.78 73.65 19.78 73.65 C19.84 74.02 19.88 74.16 20.08 74.36 C20.29 74.56 20.68 74.89 20.99 75.03
						 C21.29 75.17 21.94 75.24 22.14 75.37 C22.35 75.5 22.83 75.57 23.08 75.7 C23.33 75.82 23.55 75.95 24.03 76.09
						 C24.53 76.24 24.95 76.51 25.25 76.53 C25.55 76.55 26.15 76.82 26.35 76.92 C26.56 77.04 26.94 76.95 27.2
						 77 C27.46 77.06 28.06 77.32 28.19 77.4 C28.32 77.47 28.7 77.39 28.84 77.49 C29.2 77.74 29.55 77.58 29.86
						 77.65 C30.15 77.72 30.62 77.94 30.85 78.1 C31.07 78.27 31.5 78.36 31.69 78.34 C31.87 78.32 32.48 78.84 32.67
						 79.17 C32.85 79.49 33.18 79.98 33.11 80.59 C33.03 81.21 32.69 81.3 32.35 81.5 C32.01 81.7 31.56 82.03 31.41
						 82.11 C31.26 82.21 31.11 82.41 30.76 82.17 C30.39 81.93 29.91 81.86 29.52 81.7 C29.12 81.54 28.81 81.91
						 28.38 81.5 C27.94 81.08 27.39 80.87 27.07 80.79 C26.75 80.73 26.58 80.53 26.16 80.36 C25.75 80.2 25.85 80.31
						 25.42 80.11 C24.99 79.91 24.81 79.82 24.49 79.66 C24.17 79.49 23.47 78.99 22.97 78.88 C22.47 78.77 21.4
						 78.1 21.08 77.94 C20.76 77.78 20.16 77.8 20.23 78.28 C20.31 78.77 20.27 79.26 20.4 79.39 C20.53 79.51 20.61
						 79.78 20.63 80.18 C20.65 80.58 20.87 80.93 21.12 81.38 C21.36 81.83 21.59 82.51 21.88 82.91 C22.18 83.31
						 22.11 83.54 22.35 83.89 C22.59 84.23 22.59 84.34 23.12 84.52 C23.64 84.7 24.93 85.48 25.36 85.74 C25.79
						 85.98 26.58 86.4 26.94 86.63 C27.3 86.87 28.53 87.55 28.75 87.81 C28.98 88.07 29.41 88.3 29.37 88.86 C29.33
						 89.42 29.17 89.64 28.69 89.8 C28.23 89.96 28.38 90.03 27.87 90.03 C27.37 90.03 27.01 89.98 26.64 89.57 C26.26
						 89.15 26.07 88.68 25.77 88.5 C25.48 88.32 25.14 88.17 25.05 88.37 C24.95 88.57 25.01 88.68 25.22 89.06 C25.42
						 89.43 25.65 89.76 25.57 90.16 C25.49 90.56 25.53 91.05 25.22 91.19 C24.89 91.34 24.79 91.59 24.38 91.32
						 C23.96 91.05 23.68 90.74 23.49 90.34 C23.31 89.94 23.06 89.2 23.14 88.68 C23.21 88.15 23.21 87.9 22.91 87.67
						 C22.61 87.43 22.63 87.02 22.23 87.07 C21.85 87.12 21.53 87.52 21.15 87.81 C20.78 88.1 19.95 88.44 19.84
						 88.64 C19.73 88.84 19.44 88.82 19.15 88.5 C18.87 88.17 18.35 87.67 18.21 87.27 C18.08 86.87 17.97 86.62
						 17.76 86.35 C17.56 86.07 17.22 85.3 16.99 85.1 C16.77 84.9 16.55 84.68 16.31 84.75 C16.06 84.83 16.25 84.89
						 15.97 85.22 C15.69 85.57 15.69 85.6 15.67 85.86 C15.65 86.11 15.93 86.29 15.78 86.44 C15.63 86.58 15.76
						 86.98 15.9 87.23 C16.03 87.48 16.15 87.9 16.23 88.46 C16.29 88.86 16.29 89.4 16.77 89.67 C17.26 89.94 20.06
						 91.43 20.4 91.66 C20.74 91.9 21.06 91.77 21.32 91.99 C21.59 92.21 21.88 92.62 22.28 92.78 C22.67 92.94 23.27
						 93.38 23.57 93.56 C23.87 93.74 24.22 94.14 24.79 94.52 C25.34 94.9 26.43 95.48 26.86 95.89 C27.3 96.31 29
						 97.48 29.2 97.93 C29.41 98.38 29.6 98.68 29.26 99.13 C28.92 99.58 28.94 99.71 28.47 99.69 C28.01 99.67 28.04
						 99.8 27.83 99.94 C27.62 100.08 27.5 100.16 27.28 99.98 C27.05 99.8 26.86 99.65 26.58 99.71 C26.3 99.76 26.09
						 99.6 25.85 99.4 C25.61 99.2 25.19 99.13 24.69 98.57 C24.19 98.01 22.85 96.58 22.5 96.07 C21.88 95.19 21.2
						 95.03 20.85 94.62 C20.2 93.87 19.29 93.71 18.83 93.27 C18.29 92.74 18.03 92.86 17.65 92.56 C17.28 92.27
						 16.9 92.13 16.68 92.46 C16.46 92.78 16.63 93.18 16.81 93.42 C16.99 93.65 16.95 94.16 16.92 94.75 C16.9 95.35
						 16.98 95.84 16.67 96.16 C16.34 96.49 16.36 97.07 15.7 97.22 Z" class="st1"/>
		</g>
		<g id="shape193-3" v:mID="193" v:groupContext="shape" transform="translate(57.2108,124.661) scale(1,-1)">
			<title>path558</title>
			<path d="M14.28 99.3 C14.09 97.79 14.51 97.76 14.51 97 C14.51 96.22 14.61 94.11 14.58 93.63 C14.55 93.15 14.25 93.03
						 14.31 92.42 C14.38 91.81 14.22 89.82 14.15 89.34 C14.09 88.86 14.02 88.6 13.95 88.29 C13.89 87.96 13.98
						 87.9 13.42 87.49 C12.86 87.07 11.27 86.24 10.6 85.95 C9.94 85.66 8.22 85.02 7.75 84.99 C7.29 84.96 7.02
						 85.12 6.27 85.31 C5.5 85.51 5.01 85.57 4.27 85.21 C3.55 84.86 3.38 84.7 3.58 83.77 C3.78 82.85 4.67 82.36
						 5.17 82.05 C5.66 81.72 7.85 80.7 9.07 80.7 C10.31 80.7 11.43 80.86 11.3 80.44 C11.17 80.03 11.04 79.96 10.97
						 79.52 C10.9 79.07 10.64 78.63 10.37 78.24 C10.11 77.85 10.44 77.63 9.54 77.06 C8.65 76.48 7.69 76.19 7.36
						 75.94 C7.02 75.68 6.17 75.58 5.57 75.39 C4.97 75.2 4.58 75.04 4.21 74.78 C3.84 74.52 3.29 74.2 2.55 74.17
						 C1.82 74.14 1.42 74.24 1.22 73.28 C1.03 72.32 1 71.2 0.76 70.14 C0.53 69.09 0.1 67.68 0.13 66.52 C0.16 65.37
						 0 63.84 0.97 62.3 C1.92 60.77 2.52 60.61 3.11 60.7 C3.71 60.8 4.78 61.34 4.94 62.11 C5.1 62.88 5.07 63.84
						 5.04 65.21 C5.01 66.59 4.9 66.75 4.87 67.17 C4.84 67.59 4.87 67.87 4.41 68.16 C3.95 68.45 3.81 68.54 3.71
						 69.02 C3.62 69.5 3.38 69.44 3.45 70.37 C3.52 71.29 3.48 71.78 4.44 72.38 C5.4 72.99 7.62 74.14 8.19 74.4
						 C8.75 74.65 9.07 74.78 9.27 74.2 C9.47 73.63 9.45 73.31 9.61 72.89 C9.77 72.48 10.04 72.13 10.28 71.9 C10.5
						 71.68 10.57 71.65 11.14 71.68 C11.69 71.71 12.29 71.74 12.69 72 C13.09 72.25 13.12 72.06 13.59 72.57 C14.05
						 73.09 14.35 73.37 14.75 73.66 C15.14 73.95 15.51 74.05 15.47 73.53 C15.44 73.02 15.64 72.73 15.18 72.41
						 C14.71 72.09 14.12 71.9 13.52 71.58 C12.92 71.26 12.89 71.33 12.56 71.2 C12.23 71.07 12.26 70.98 12.16 70.78
						 C12.06 70.59 11.72 70.72 11.72 70.27 C11.72 69.82 11.47 69.15 12 68.96 C12.52 68.76 13.09 68.54 12.63 68.16
						 C12.16 67.77 11.17 66.75 10.87 66.33 C10.57 65.92 10.44 65.85 10.44 65.09 C10.44 64.32 10.64 63.68 11.1
						 63.62 C11.57 63.55 12.26 63.52 12.69 63.48 C13.12 63.46 13.45 63.46 13.39 63.04 C13.32 62.62 13.36 61.98
						 13.65 61.56 C13.95 61.15 13.55 60.83 14.51 60.83 C15.47 60.83 16.34 61.28 16.87 62.27 C17.39 63.26 17.89
						 64.19 18.02 64.79 C18.16 65.41 18.16 65.6 18.76 65.63 C19.35 65.66 19.72 65.96 20.28 65.37 C21.57 64.03
						 22.96 63.23 23.36 62.68 C23.75 62.14 24.58 61.24 25.11 60.93 C25.64 60.61 26.3 60.25 26.81 60.99 C27.3 61.72
						 27.5 61.82 27.63 62.84 C27.76 63.87 27.46 65.47 27.7 67.2 C27.93 68.92 28.46 73.12 28.89 75.68 C29.32 78.24
						 29.92 82.33 30.44 83.17 C30.98 84 31.12 84.77 31.04 85.34 C30.98 85.92 30.25 86.65 29.62 87.01 C28.99 87.36
						 28.53 87.46 27.46 86.91 C26.41 86.37 25.64 86.24 24.58 84.9 C23.93 84.06 22.93 84 21.94 83.39 C20.94 82.78
						 16.67 80.6 15.94 80.25 C15.21 79.91 14.75 80.16 15.14 80.93 C15.54 81.69 16.4 82.94 16.73 83.42 C17.06 83.9
						 17.19 83.88 18.19 84.38 C20.01 85.31 21.54 86.79 22.13 87.39 C22.73 88 23.99 89.15 24.32 89.76 C24.65 90.37
						 24.81 90.95 24.52 91.33 C24.22 91.71 23.56 91.97 23.19 92.16 C22.83 92.35 22.73 92.35 22.16 92 C21.6 91.65
						 20.91 91.2 20.41 90.95 C19.91 90.69 19.52 90.97 19.71 91.59 C19.91 92.19 20.18 92.9 20.37 93.51 C20.57 94.11
						 20.54 94.43 20.01 95.17 C19.48 95.9 16.37 98.81 15.87 99.49 C15.38 100.16 14.39 100.15 14.28 99.3 ZM12.99
						 76.83 C13.69 77.25 14.28 77.28 14.81 77.6 C15.34 77.92 16.27 78.37 16.76 78.63 C17.26 78.88 17.96 78.78
						 17.36 78.24 C16.76 77.69 15.67 76.99 15.04 76.64 C14.41 76.28 14.09 76.13 13.69 76.09 C13.29 76.06 13.32
						 75.74 12.82 75.87 C12.32 76 12.29 76.42 12.99 76.83 ZM21.44 80.93 C22.39 81.42 24.85 82.66 25.84 83.04 C26.84
						 83.42 26.77 83.55 26.77 82.53 C26.77 81.5 26.84 79.81 26.61 78.78 C26.37 77.76 26.5 76.45 25.91 74.81 C25.5
						 73.69 25.62 72.54 25.58 72.25 C25.54 71.97 25.34 71.65 25.24 70.78 C25.14 69.92 24.85 69.21 24.75 68.09
						 C24.65 66.97 24.46 66.75 24.38 66.14 C24.32 65.53 24.38 65.15 23.75 65.31 C23.12 65.47 20.97 66.37 20.57
						 66.69 C20.18 67.01 20.08 67.13 20.31 67.52 C20.54 67.9 20.41 68.25 20.44 68.64 C20.48 69.02 20.67 68.96
						 20.14 69.34 C19.61 69.73 19.35 70.14 19.25 70.34 C19.15 70.53 19.22 70.56 19.48 70.98 C19.74 71.39 19.74
						 71.71 19.74 72.15 C19.74 72.61 19.48 73.05 19.05 73.05 C18.62 73.05 18.39 73.28 18.76 73.95 C19.12 74.62
						 21.63 76.96 22.26 77.6 C22.89 78.24 23.52 79.07 22.86 79.45 C22.2 79.84 21.8 80.22 21.47 80.38 C21.14 80.55
						 20.94 80.67 21.44 80.93 Z" class="st1"/>
		</g>
		<g id="shape194-5" v:mID="194" v:groupContext="shape" transform="translate(135.472,125.995) scale(1,-1)">
			<title>path560</title>
			<path d="M4.93 94.82 C4.24 94.21 3.86 93.77 3.37 93.27 C2.9 92.77 2.09 91.68 2.02 91.12 C1.95 90.55 1.9 90.3 1.73 90.02
						 C1.54 89.73 1.65 89.56 1.65 89.14 C1.65 88.72 1.73 88.58 1.83 88.4 C1.95 88.22 1.93 88.17 1.93 87.92 C1.93
						 87.66 2.16 87.51 2.38 87.29 C2.61 87.07 2.9 86.58 3.32 86.58 C3.73 86.58 4.13 86.64 4.38 86.62 C4.62 86.6
						 4.78 86.83 5.01 87.01 C5.24 87.2 5.67 87.52 5.83 87.81 C6.25 88.54 6.18 89.17 6.29 89.45 C6.4 89.74 6.71
						 90.16 6.96 90.47 C7.2 90.77 7.33 91.4 6.97 91.46 C6.62 91.52 6.2 91.39 6.21 91.95 C6.23 92.51 6.25 93.09
						 6.38 93.36 C6.52 93.63 6.79 94.01 6.68 94.28 C6.57 94.56 6.49 95.01 6.08 95.06 C5.67 95.11 5.39 95.22 4.93
						 94.82 ZM9.6 93.58 C9.87 93.94 9.91 94.05 10.37 94.39 C10.82 94.73 11.66 95.11 12.19 95.08 C12.74 95.04 12.72
						 95.03 13.08 94.83 C13.44 94.63 13.79 94.46 14.06 94.63 C14.32 94.79 14.64 94.85 14.91 94.75 C15.19 94.66
						 15.32 94.71 15.55 94.85 C15.77 94.97 15.89 94.97 16.21 94.68 C16.53 94.39 16.71 94.2 16.39 93.87 C16.08
						 93.55 15.89 93.5 15.96 93.02 C16.03 92.53 16.14 92.13 15.83 91.81 C15.6 91.57 15.55 91.16 15.15 90.77 C14.76
						 90.4 14.65 90.37 14.19 90.36 C13.71 90.34 13.14 90.36 12.61 90.63 C12.08 90.9 10.72 92.1 10.37 92.17 C10.01
						 92.24 9.41 92.47 9.31 92.9 C9.22 93.31 9.31 93.22 9.6 93.58 ZM21.74 98.95 C22.26 99.31 23.1 99.61 23.84
						 99.8 C24.58 99.99 25.03 100.16 25.57 99.93 C26.11 99.7 27.04 99.31 27.07 98.54 C27.12 97.77 27.14 97.48
						 26.74 96.82 C26.33 96.17 25.81 95.65 25.17 95.4 C24.53 95.14 24.16 95.23 23.8 95.13 C23.44 95.03 23.2 95.09
						 22.75 94.8 C22.32 94.51 21.06 94.55 20.68 94.49 C20.29 94.43 19.98 94.82 20.32 95.13 C20.66 95.44 21.26
						 95.5 21.66 96.2 C21.85 96.55 22.4 96.75 21.88 97.02 C21.6 97.17 21.46 97.33 21.4 97.62 C21.34 97.91 20.98
						 98.08 21.08 98.31 C21.18 98.54 21.22 98.58 21.74 98.95 ZM9.83 87.28 C9.83 87.6 10.06 88.11 10.33 87.97 C10.59
						 87.83 11.03 87.6 11.45 87.39 C11.87 87.18 12.02 87.02 12.28 86.96 C12.55 86.9 12.81 86.79 12.79 86.35 C12.77
						 85.9 12.81 85.59 12.6 85.52 C12.4 85.44 12.47 85.29 12.53 85.09 C12.59 84.89 12.69 84.7 13.06 84.77 C13.45
						 84.82 13.55 84.98 13.92 84.98 C14.31 84.98 14.43 85.01 14.66 84.77 C14.9 84.51 15.28 84.36 15.24 84.01 C15.2
						 83.66 15.1 83.47 14.76 82.98 C14.43 82.51 14.15 81.96 13.88 81.58 C13.63 81.19 13.59 81.22 13.39 80.86 C13.19
						 80.52 13.17 80.56 13.19 80.17 C13.21 79.78 13.11 79.38 13.68 79.1 C14.27 78.84 14.43 78.85 14.39 78.22 C14.35
						 77.58 14.37 77.21 14.39 76.77 C14.41 76.33 14.31 76.03 14.05 75.73 C13.61 75.25 12.1 74.03 11.67 73.53 C11.23
						 73.03 11.05 73.01 11.05 72.62 C11.05 72.23 11.03 71.93 10.91 71.83 C10.79 71.73 10.77 71.68 10.79 71.22
						 C10.81 70.75 10.85 68.72 10.83 67.97 C10.81 67.22 10.67 67 10.55 66.91 C10.43 66.81 10.43 66.66 10.47 66.43
						 C10.5 66.2 10.45 65.9 10.35 65.71 C10.25 65.52 10.25 65.13 10.28 64.65 C10.33 64.17 10.25 63.57 10.23 63.22
						 C10.21 62.88 9.86 62.2 9.61 61.99 C9.36 61.77 9.06 61.75 8.69 61.75 C8.33 61.75 8.03 62 7.75 62.26 C7.47
						 62.51 7.43 62.83 7.43 63.15 C7.43 63.46 7.41 63.88 7.25 64.07 C7.09 64.27 7.1 64.57 7.09 64.75 C7.07 64.92
						 7.05 65.11 6.85 65.33 C6.66 65.54 6.63 65.67 6.6 66.1 C6.56 66.52 6.9 67.22 7.21 67.49 C7.51 67.76 7.53
						 67.97 7.53 68.19 C7.53 68.55 7.87 68.51 7.85 68.89 C7.83 69.28 8.01 69.57 8.05 69.96 C8.09 70.34 8.13 70.63
						 8.09 70.85 C8.05 71.06 7.95 71.22 7.73 71.1 C7.51 70.98 7.43 70.61 7.15 70.56 C6.86 70.5 6.45 70.42 6.2
						 70.18 C5.94 69.92 4.83 69.3 4.4 68.98 C3.97 68.65 2.76 67.99 2.42 67.76 C2.08 67.53 1.74 67.32 1.29 67.62
						 C0.83 67.93 0.5 67.92 0.37 68.51 C0.25 69 0 69.03 0.25 69.46 C0.37 69.67 0.45 69.67 0.45 70.02 C0.45 70.36
						 0.32 70.69 0.63 70.94 C0.92 71.19 2.5 72.53 2.84 72.9 C3.18 73.26 3.5 73.38 3.69 73.57 C3.87 73.76 4.04
						 73.87 4.3 73.82 C4.55 73.76 4.79 73.61 4.57 73.32 C4.36 73.03 4.4 72.64 4.71 72.6 C5.03 72.57 5.54 72.58
						 5.96 72.7 C6.38 72.81 7.65 73.17 8.19 73.87 C8.45 74.22 8.27 74.59 7.91 74.44 C7.55 74.28 6.86 74.19 6.54
						 74.26 C6.2 74.34 5.81 74.79 6.16 75.09 C6.49 75.4 8.21 76.35 8.55 76.56 C8.9 76.77 9.03 77.1 8.75 77.32
						 C8.47 77.53 7.93 77.95 7.73 78.32 C7.53 78.68 7.49 78.76 7.77 78.99 C8.05 79.23 8.9 79.69 9.14 79.88 C9.38
						 80.07 9.41 80.29 9.57 80.5 C9.86 80.9 9.71 81.25 9.38 81.12 C9.03 80.98 8.77 80.77 8.41 80.5 C8.05 80.23
						 7.03 79.36 6.69 79.01 C6.36 78.66 5.36 77.7 4.77 77.41 C4.2 77.12 3.87 77 3.56 76.79 C3.26 76.58 3.1 76.67
						 2.72 76.92 C2.34 77.18 2.15 77.45 1.97 77.66 C1.78 77.87 1.9 78.04 1.9 78.32 C1.9 78.59 2.15 78.72 2.16
						 79.03 C2.19 79.34 2.06 79.65 2.39 79.88 C2.7 80.11 3.1 80.48 3.36 80.63 C3.62 80.78 3.89 80.85 4.18 80.75
						 C4.47 80.65 4.97 80.54 5.23 80.65 C5.5 80.77 5.63 80.85 6.05 80.86 C6.3 80.88 6.4 80.98 6.77 81.22 C7.15
						 81.44 7.81 81.89 8.19 82.18 C8.57 82.47 8.92 82.51 9.1 82.52 C9.28 82.54 9.51 82.74 9.66 82.89 C9.83 83.04
						 10.17 83.27 9.99 83.57 C9.81 83.85 9.64 83.85 9.31 83.85 C8.98 83.85 8.47 84.05 8.25 84.21 C8.03 84.36 7.87
						 84.74 8.13 84.95 C8.39 85.16 9.16 85.63 9.44 85.84 C9.75 86.06 9.99 86.35 9.99 86.58 C9.99 86.81 9.83 86.94
						 9.83 87.28 ZM12.5 82.37 C12.59 82.6 13.13 82.56 13.01 82.18 C12.89 81.79 12.78 81.77 12.64 81.54 C12.42
						 81.17 12.22 81.29 12.18 81.58 C12.15 81.8 12.27 81.89 12.38 82.03 C12.47 82.15 9.17 83.12 9.22 83.26 L12.5
						 82.37 ZM11.51 76.71 C11.73 76.96 11.96 76.91 12.04 76.77 C12.18 76.55 12.16 76.43 11.97 76.27 C11.77 76.09
						 11.52 75.93 11.36 76.11 C11.21 76.3 11.2 76.38 11.51 76.71 ZM22.13 88.95 C22.67 89.32 24.23 90.12 24.69
						 90.31 C25.13 90.52 25.42 90.44 25.88 90.31 C26.55 90.11 27.16 89.35 27.46 89.02 C27.73 88.7 27.8 87.95 27.68
						 87.49 C27.56 87.04 27.08 86.34 26.73 85.84 C26.14 84.98 25.18 84.43 24.88 83.95 C24.56 83.47 24.19 82.86
						 23.96 82.57 C23.74 82.29 23.78 82.23 23.77 81.82 C23.75 81.42 23.72 80.93 23.81 80.65 C23.9 80.38 24.19
						 80.11 24.12 79.69 C24.07 79.27 23.67 78.47 23.14 78.36 C22.59 78.24 22.04 78.4 21.71 78.66 C21.38 78.92
						 20.92 79.4 20.91 80.18 C20.89 80.96 20.99 81.88 21.02 82.31 C21.05 82.75 21.08 82.99 21.36 83.4 C21.65 83.8
						 23 85.26 23.3 86.1 C23.44 86.49 23.56 86.94 23.12 87.18 C22.69 87.43 22.48 87.72 21.97 87.8 C21.47 87.89
						 21.2 88.32 22.13 88.95 ZM17.88 81.38 C17.86 80.64 17.48 80.45 17.51 80.07 C17.53 79.73 17.63 79.3 17.48
						 79.16 C17.34 79.02 17.31 78.94 17.28 78.65 C17.26 78.37 17.16 78.27 17.12 77.96 C17.07 77.65 17.05 76.36
						 17.02 75.62 C17 74.87 16.62 74.1 16.47 73.22 C16.33 72.39 16.38 71.81 16.33 70.66 C16.28 69.63 16.6 69.51
						 17.15 68.91 C17.68 68.31 18.48 67.67 18.83 67.55 C19.18 67.42 19.55 67.4 19.82 67.42 C20.08 67.45 20.11
						 67.18 20.86 67.21 C21.6 67.23 27.74 67.31 28.84 67.28 C29.93 67.26 30.99 67.38 31.54 67.79 C32.09 68.19
						 32.71 68.74 32.86 69.22 C33 69.7 33.15 70.25 32.93 70.71 C32.57 71.45 32.36 71.95 32.04 72.43 C31.72 72.91
						 31.62 73.17 31.59 73.56 C31.56 73.94 31.39 74.42 31.11 74.78 C30.84 75.14 30.84 75.57 30.84 75.85 C30.84
						 76.14 30.47 77.08 30.18 77.29 C29.88 77.51 29.34 77.77 29.34 77 C29.34 76.24 29.43 75.64 29.41 75.28 C29.39
						 74.92 29.46 74.78 29.56 74.63 C29.66 74.49 29.71 74.3 29.71 73.96 C29.71 73.63 29.71 72.17 29.76 71.69 C29.81
						 71.21 29.71 70.82 29.18 70.68 C28.67 70.54 28.44 70.47 28.27 70.35 C28.09 70.23 27.77 70.3 27.58 70.3 C27.38
						 70.3 27.3 70.08 27.16 70.04 C27.01 69.99 26.01 70.06 25.76 70.06 C25.29 70.06 25.47 69.82 25.08 69.82 C24.75
						 69.82 22.76 69.87 22.42 69.82 C22.08 69.77 21.83 70.08 21.46 70.08 C21.08 70.08 20.76 69.99 20.46 70.23
						 C20.16 70.47 19.74 70.44 19.74 71.05 C19.74 71.64 19.76 73.03 19.82 73.51 C19.86 73.99 19.96 74.37 20.16
						 74.61 C20.36 74.85 20.36 75.09 20.34 75.3 C20.31 75.52 20.54 75.42 20.54 75.78 C20.54 76.14 20.58 76.59
						 20.58 77 C20.58 77.41 20.31 77.96 20.28 78.18 C20.26 78.39 20.08 78.61 19.94 78.83 C19.8 79.04 19.76 79.28
						 19.8 79.54 C19.82 79.81 19.58 80.38 19.35 80.74 C19.13 81.1 19.33 81.15 19 81.41 C18.68 81.67 17.91 82.26
						 17.88 81.38 Z" class="st2"/>
			<path d="M4.93 94.82 C4.24 94.21 3.86 93.77 3.37 93.27 C2.9 92.77 2.09 91.68 2.02 91.12 C1.95 90.55 1.9 90.3 1.73 90.02
						 C1.54 89.73 1.65 89.56 1.65 89.14 C1.65 88.72 1.73 88.58 1.83 88.4 C1.95 88.22 1.93 88.17 1.93 87.92 C1.93
						 87.66 2.16 87.51 2.38 87.29 C2.61 87.07 2.9 86.58 3.32 86.58 C3.73 86.58 4.13 86.64 4.38 86.62 C4.62 86.6
						 4.78 86.83 5.01 87.01 C5.24 87.2 5.67 87.52 5.83 87.81 C6.25 88.54 6.18 89.17 6.29 89.45 C6.4 89.74 6.71
						 90.16 6.96 90.47 C7.2 90.77 7.33 91.4 6.97 91.46 C6.62 91.52 6.2 91.39 6.21 91.95 C6.23 92.51 6.25 93.09
						 6.38 93.36 C6.52 93.63 6.79 94.01 6.68 94.28 C6.57 94.56 6.49 95.01 6.08 95.06 C5.67 95.11 5.39 95.22 4.93
						 94.82M9.6 93.58 C9.87 93.94 9.91 94.05 10.37 94.39 C10.82 94.73 11.66 95.11 12.19 95.08 C12.74 95.04 12.72
						 95.03 13.08 94.83 C13.44 94.63 13.79 94.46 14.06 94.63 C14.32 94.79 14.64 94.85 14.91 94.75 C15.19 94.66
						 15.32 94.71 15.55 94.85 C15.77 94.97 15.89 94.97 16.21 94.68 C16.53 94.39 16.71 94.2 16.39 93.87 C16.08
						 93.55 15.89 93.5 15.96 93.02 C16.03 92.53 16.14 92.13 15.83 91.81 C15.6 91.57 15.55 91.16 15.15 90.77 C14.76
						 90.4 14.65 90.37 14.19 90.36 C13.71 90.34 13.14 90.36 12.61 90.63 C12.08 90.9 10.72 92.1 10.37 92.17 C10.01
						 92.24 9.41 92.47 9.31 92.9 C9.22 93.31 9.31 93.22 9.6 93.58M21.74 98.95 C22.26 99.31 23.1 99.61 23.84 99.8
						 C24.58 99.99 25.03 100.16 25.57 99.93 C26.11 99.7 27.04 99.31 27.07 98.54 C27.12 97.77 27.14 97.48 26.74
						 96.82 C26.33 96.17 25.81 95.65 25.17 95.4 C24.53 95.14 24.16 95.23 23.8 95.13 C23.44 95.03 23.2 95.09 22.75
						 94.8 C22.32 94.51 21.06 94.55 20.68 94.49 C20.29 94.43 19.98 94.82 20.32 95.13 C20.66 95.44 21.26 95.5 21.66
						 96.2 C21.85 96.55 22.4 96.75 21.88 97.02 C21.6 97.17 21.46 97.33 21.4 97.62 C21.34 97.91 20.98 98.08 21.08
						 98.31 C21.18 98.54 21.22 98.58 21.74 98.95M9.83 87.28 C9.83 87.6 10.06 88.11 10.33 87.97 C10.59 87.83 11.03
						 87.6 11.45 87.39 C11.87 87.18 12.02 87.02 12.28 86.96 C12.55 86.9 12.81 86.79 12.79 86.35 C12.77 85.9 12.81
						 85.59 12.6 85.52 C12.4 85.44 12.47 85.29 12.53 85.09 C12.59 84.89 12.69 84.7 13.06 84.77 C13.45 84.82 13.55
						 84.98 13.92 84.98 C14.31 84.98 14.43 85.01 14.66 84.77 C14.9 84.51 15.28 84.36 15.24 84.01 C15.2 83.66 15.1
						 83.47 14.76 82.98 C14.43 82.51 14.15 81.96 13.88 81.58 C13.63 81.19 13.59 81.22 13.39 80.86 C13.19 80.52
						 13.17 80.56 13.19 80.17 C13.21 79.78 13.11 79.38 13.68 79.1 C14.27 78.84 14.43 78.85 14.39 78.22 C14.35
						 77.58 14.37 77.21 14.39 76.77 C14.41 76.33 14.31 76.03 14.05 75.73 C13.61 75.25 12.1 74.03 11.67 73.53 C11.23
						 73.03 11.05 73.01 11.05 72.62 C11.05 72.23 11.03 71.93 10.91 71.83 C10.79 71.73 10.77 71.68 10.79 71.22
						 C10.81 70.75 10.85 68.72 10.83 67.97 C10.81 67.22 10.67 67 10.55 66.91 C10.43 66.81 10.43 66.66 10.47 66.43
						 C10.5 66.2 10.45 65.9 10.35 65.71 C10.25 65.52 10.25 65.13 10.28 64.65 C10.33 64.17 10.25 63.57 10.23 63.22
						 C10.21 62.88 9.86 62.2 9.61 61.99 C9.36 61.77 9.06 61.75 8.69 61.75 C8.33 61.75 8.03 62 7.75 62.26 C7.47
						 62.51 7.43 62.83 7.43 63.15 C7.43 63.46 7.41 63.88 7.25 64.07 C7.09 64.27 7.1 64.57 7.09 64.75 C7.07 64.92
						 7.05 65.11 6.85 65.33 C6.66 65.54 6.63 65.67 6.6 66.1 C6.56 66.52 6.9 67.22 7.21 67.49 C7.51 67.76 7.53
						 67.97 7.53 68.19 C7.53 68.55 7.87 68.51 7.85 68.89 C7.83 69.28 8.01 69.57 8.05 69.96 C8.09 70.34 8.13 70.63
						 8.09 70.85 C8.05 71.06 7.95 71.22 7.73 71.1 C7.51 70.98 7.43 70.61 7.15 70.56 C6.86 70.5 6.45 70.42 6.2
						 70.18 C5.94 69.92 4.83 69.3 4.4 68.98 C3.97 68.65 2.76 67.99 2.42 67.76 C2.08 67.53 1.74 67.32 1.29 67.62
						 C0.83 67.93 0.5 67.92 0.37 68.51 C0.25 69 0 69.03 0.25 69.46 C0.37 69.67 0.45 69.67 0.45 70.02 C0.45 70.36
						 0.32 70.69 0.63 70.94 C0.92 71.19 2.5 72.53 2.84 72.9 C3.18 73.26 3.5 73.38 3.69 73.57 C3.87 73.76 4.04
						 73.87 4.3 73.82 C4.55 73.76 4.79 73.61 4.57 73.32 C4.36 73.03 4.4 72.64 4.71 72.6 C5.03 72.57 5.54 72.58
						 5.96 72.7 C6.38 72.81 7.65 73.17 8.19 73.87 C8.45 74.22 8.27 74.59 7.91 74.44 C7.55 74.28 6.86 74.19 6.54
						 74.26 C6.2 74.34 5.81 74.79 6.16 75.09 C6.49 75.4 8.21 76.35 8.55 76.56 C8.9 76.77 9.03 77.1 8.75 77.32
						 C8.47 77.53 7.93 77.95 7.73 78.32 C7.53 78.68 7.49 78.76 7.77 78.99 C8.05 79.23 8.9 79.69 9.14 79.88 C9.38
						 80.07 9.41 80.29 9.57 80.5 C9.86 80.9 9.71 81.25 9.38 81.12 C9.03 80.98 8.77 80.77 8.41 80.5 C8.05 80.23
						 7.03 79.36 6.69 79.01 C6.36 78.66 5.36 77.7 4.77 77.41 C4.2 77.12 3.87 77 3.56 76.79 C3.26 76.58 3.1 76.67
						 2.72 76.92 C2.34 77.18 2.15 77.45 1.97 77.66 C1.78 77.87 1.9 78.04 1.9 78.32 C1.9 78.59 2.15 78.72 2.16
						 79.03 C2.19 79.34 2.06 79.65 2.39 79.88 C2.7 80.11 3.1 80.48 3.36 80.63 C3.62 80.78 3.89 80.85 4.18 80.75
						 C4.47 80.65 4.97 80.54 5.23 80.65 C5.5 80.77 5.63 80.85 6.05 80.86 C6.3 80.88 6.4 80.98 6.77 81.22 C7.15
						 81.44 7.81 81.89 8.19 82.18 C8.57 82.47 8.92 82.51 9.1 82.52 C9.28 82.54 9.51 82.74 9.66 82.89 C9.83 83.04
						 10.17 83.27 9.99 83.57 C9.81 83.85 9.64 83.85 9.31 83.85 C8.98 83.85 8.47 84.05 8.25 84.21 C8.03 84.36 7.87
						 84.74 8.13 84.95 C8.39 85.16 9.16 85.63 9.44 85.84 C9.75 86.06 9.99 86.35 9.99 86.58 C9.99 86.81 9.83 86.94
						 9.83 87.28M12.5 82.37 C12.59 82.6 13.13 82.56 13.01 82.18 C12.89 81.79 12.78 81.77 12.64 81.54 C12.42 81.17
						 12.22 81.29 12.18 81.58 C12.15 81.8 12.27 81.89 12.38 82.03 C12.47 82.15 9.17 83.12 9.22 83.26M11.51 76.71
						 C11.73 76.96 11.96 76.91 12.04 76.77 C12.18 76.55 12.16 76.43 11.97 76.27 C11.77 76.09 11.52 75.93 11.36
						 76.11 C11.21 76.3 11.2 76.38 11.51 76.71M22.13 88.95 C22.67 89.32 24.23 90.12 24.69 90.31 C25.13 90.52 25.42
						 90.44 25.88 90.31 C26.55 90.11 27.16 89.35 27.46 89.02 C27.73 88.7 27.8 87.95 27.68 87.49 C27.56 87.04 27.08
						 86.34 26.73 85.84 C26.14 84.98 25.18 84.43 24.88 83.95 C24.56 83.47 24.19 82.86 23.96 82.57 C23.74 82.29
						 23.78 82.23 23.77 81.82 C23.75 81.42 23.72 80.93 23.81 80.65 C23.9 80.38 24.19 80.11 24.12 79.69 C24.07
						 79.27 23.67 78.47 23.14 78.36 C22.59 78.24 22.04 78.4 21.71 78.66 C21.38 78.92 20.92 79.4 20.91 80.18 C20.89
						 80.96 20.99 81.88 21.02 82.31 C21.05 82.75 21.08 82.99 21.36 83.4 C21.65 83.8 23 85.26 23.3 86.1 C23.44
						 86.49 23.56 86.94 23.12 87.18 C22.69 87.43 22.48 87.72 21.97 87.8 C21.47 87.89 21.2 88.32 22.13 88.95M17.88
						 81.38 C17.86 80.64 17.48 80.45 17.51 80.07 C17.53 79.73 17.63 79.3 17.48 79.16 C17.34 79.02 17.31 78.94
						 17.28 78.65 C17.26 78.37 17.16 78.27 17.12 77.96 C17.07 77.65 17.05 76.36 17.02 75.62 C17 74.87 16.62 74.1
						 16.47 73.22 C16.33 72.39 16.38 71.81 16.33 70.66 C16.28 69.63 16.6 69.51 17.15 68.91 C17.68 68.31 18.48
						 67.67 18.83 67.55 C19.18 67.42 19.55 67.4 19.82 67.42 C20.08 67.45 20.11 67.18 20.86 67.21 C21.6 67.23 27.74
						 67.31 28.84 67.28 C29.93 67.26 30.99 67.38 31.54 67.79 C32.09 68.19 32.71 68.74 32.86 69.22 C33 69.7 33.15
						 70.25 32.93 70.71 C32.57 71.45 32.36 71.95 32.04 72.43 C31.72 72.91 31.62 73.17 31.59 73.56 C31.56 73.94
						 31.39 74.42 31.11 74.78 C30.84 75.14 30.84 75.57 30.84 75.85 C30.84 76.14 30.47 77.08 30.18 77.29 C29.88
						 77.51 29.34 77.77 29.34 77 C29.34 76.24 29.43 75.64 29.41 75.28 C29.39 74.92 29.46 74.78 29.56 74.63 C29.66
						 74.49 29.71 74.3 29.71 73.96 C29.71 73.63 29.71 72.17 29.76 71.69 C29.81 71.21 29.71 70.82 29.18 70.68 C28.67
						 70.54 28.44 70.47 28.27 70.35 C28.09 70.23 27.77 70.3 27.58 70.3 C27.38 70.3 27.3 70.08 27.16 70.04 C27.01
						 69.99 26.01 70.06 25.76 70.06 C25.29 70.06 25.47 69.82 25.08 69.82 C24.75 69.82 22.76 69.87 22.42 69.82
						 C22.08 69.77 21.83 70.08 21.46 70.08 C21.08 70.08 20.76 69.99 20.46 70.23 C20.16 70.47 19.74 70.44 19.74
						 71.05 C19.74 71.64 19.76 73.03 19.82 73.51 C19.86 73.99 19.96 74.37 20.16 74.61 C20.36 74.85 20.36 75.09
						 20.34 75.3 C20.31 75.52 20.54 75.42 20.54 75.78 C20.54 76.14 20.58 76.59 20.58 77 C20.58 77.41 20.31 77.96
						 20.28 78.18 C20.26 78.39 20.08 78.61 19.94 78.83 C19.8 79.04 19.76 79.28 19.8 79.54 C19.82 79.81 19.58 80.38
						 19.35 80.74 C19.13 81.1 19.33 81.15 19 81.41 C18.68 81.67 17.91 82.26 17.88 81.38" class="st3"/>
		</g>
		<g id="shape195-8" v:mID="195" v:groupContext="shape" transform="translate(176.437,127.769) scale(1,-1)">
			<title>path562</title>
			<path d="M11.8 99.38 C11.83 98.45 11.73 98.42 11.86 98.13 C11.98 97.86 12.12 97.55 12.05 96.23 C12.01 95.3 12.05 95.34
						 12.14 95.14 C12.23 94.93 12.38 94.89 12.36 94.39 C12.34 93.66 12.31 87.96 12.27 87.47 C12.23 86.99 12.05
						 86.71 12.06 86.42 C12.11 85.36 11.82 85.53 11.82 85.12 C11.82 84.73 11.86 84.06 11.84 83.83 C11.82 83.59
						 11.57 83.52 11.59 83.07 C11.61 82.62 11.71 82.14 11.62 81.82 C11.53 81.49 11.35 81.44 11.33 81.08 C11.31
						 80.72 11.17 79.66 10.3 79.11 C9.86 78.84 8.65 78.63 8.13 78.55 C7.6 78.48 6.7 78.12 6.25 78.12 C5.78 78.12
						 5.43 78.1 5.02 77.9 C4.61 77.71 4.05 77.38 3.59 77.42 C3.12 77.45 2.22 77.42 1.81 77.67 C1.39 77.92 1.09
						 78.01 0.88 77.87 C0.46 77.57 0 77.33 0.25 76.64 C0.49 75.96 0.86 75.81 0.88 75.43 C0.9 75.05 1.05 74.73
						 1.32 74.37 C1.6 74 1.25 73.77 1.6 73.55 C2.17 73.22 2.09 72.54 3.01 72.69 C3.92 72.83 4.18 73.18 4.88 73.43
						 C5.57 73.68 9.38 75.52 9.73 75.58 C10.09 75.63 10.39 75.72 10.37 75.19 C10.35 74.68 10.45 74.54 10.41 74.3
						 C10.37 74.05 10.28 73.93 10.1 73.72 C9.93 73.5 10.03 73.4 9.93 72.94 C9.85 72.49 9.17 70.63 7.72 69.2 C6.27
						 67.78 4.67 67.11 4.32 66.98 C3.95 66.86 2.84 66.86 2.56 66.91 C2.28 66.97 2.03 67.35 1.59 67.22 C1.14 67.09
						 0.8 66.66 1.31 66.21 C1.81 65.76 3.12 65.07 3.83 65.05 C4.54 65.03 5.2 64.73 5.59 64.87 C5.98 65.01 6.42
						 65 7.08 65.38 C7.74 65.76 10.12 67.87 11.12 70.16 C12.11 72.45 12.42 73.54 12.56 73.83 C12.68 74.11 12.66
						 74.6 12.68 75.13 C12.7 75.65 12.84 75.86 13.03 76.1 C13.21 76.34 13.06 76.51 13.14 76.81 C13.21 77.09 13.42
						 77.36 13.79 77.63 C14.16 77.9 14.48 77.85 15.13 78.21 C15.79 78.57 20.22 80.59 21.47 81.06 C22.72 81.54
						 23.49 81.78 23.98 82.38 C24.24 82.71 24.48 83.39 23.98 83.83 C23.47 84.26 23.43 84.31 23.11 84.31 C22.8
						 84.31 22.8 84.68 22.42 84.62 C22.05 84.56 21.92 84.51 21.58 84.82 C21.25 85.12 20.69 85.27 20.37 84.85 C20.05
						 84.44 19.86 84.02 19.4 83.59 C18.93 83.16 17.97 82.71 17.37 82.47 C16.79 82.24 15.83 81.89 15.22 81.64 C14.63
						 81.39 14.32 81.32 14.29 81.86 C14.27 82.4 14.34 82.74 14.48 83.12 C14.63 83.5 14.72 84.26 14.85 84.71 C14.98
						 85.16 15.38 85.47 15.36 86.01 C15.34 86.55 15.43 86.93 15.58 87.42 C15.81 88.14 16.05 88.52 16.07 88.9 C16.09
						 89.28 16.1 89.76 16.22 90.02 C16.34 90.27 16.5 90.4 16.6 91.06 C16.69 91.73 16.82 92.49 16.82 93.32 C16.82
						 94.15 16.74 94.6 16.47 94.98 C16.19 95.36 16.17 95.94 15.86 96.24 C15.57 96.55 15.43 96.79 15.38 97.09 C15.32
						 97.4 14.95 97.67 14.48 98.19 C14.02 98.72 13.25 99.48 12.84 99.82 C12.42 100.16 11.79 99.91 11.8 99.38 Z"
					class="st1"/>
		</g>
		<g id="shape196-10" v:mID="196" v:groupContext="shape" transform="translate(192.516,154.169) scale(1,-1)">
			<title>path564</title>
			<path d="M0.95 99.59 C1.62 99 2.93 98.11 3.99 97.4 C5.05 96.69 6.71 95.83 7.38 95.83 C8.05 95.83 8.55 95.83 9.04 95.63
						 C9.54 95.42 10.1 95.25 10.63 95.25 C11.17 95.25 12.08 95.18 12.75 95.25 C13.43 95.31 13.93 95.22 13.17 94.4
						 C12.44 93.58 11.94 93.4 11.42 92.93 C10.88 92.45 10.78 92.55 10.49 92.42 C10.2 92.27 10.1 92.21 9.78 91.73
						 C9.46 91.26 8.8 90.53 7.91 90.44 C7.02 90.33 6.14 90.53 5.58 91.01 C5.01 91.49 4.84 91.22 4.34 92.04 C3.84
						 92.86 3.64 93.51 3.32 94.19 C3 94.87 2.72 95.38 2.22 96 C1.72 96.61 1.24 97.32 0.95 97.74 C0.77 98.01 0.59
						 98 0.42 98.3 C0.26 98.59 0.36 98.76 0.34 98.94 C0.32 99.13 0 99.28 0.11 99.55 C0.21 99.81 0.28 100.16 0.95
						 99.59 Z" class="st1"/>
		</g>
		<g id="shape197-12" v:mID="197" v:groupContext="shape" transform="translate(96.3518,125.614) scale(1,-1)">
			<title>path566</title>
			<path d="M29.94 82.68 C30.03 83.28 30.01 84.03 29.73 84.33 C29.44 84.63 28.85 84.81 28.49 85.08 C28.14 85.35 27.59 85.19
						 27.12 84.92 C26.65 84.65 25.16 83.6 24.64 83.17 C24.12 82.73 24.19 83 23.9 83.14 C23.62 83.28 22.86 83.69
						 22.09 83.76 C21.31 83.83 21.12 82.94 20.81 82.48 C20.5 82.02 20.62 81.29 20.62 80.92 C20.62 80.56 20.33
						 79.96 19.84 79.46 C19.34 78.96 18.82 79.05 18.35 78.66 C17.87 78.27 16.82 77.77 16.22 77.82 C15.62 77.86
						 15.39 77.9 14.77 77.5 C14.4 77.24 14.54 77.17 14.71 76.77 C14.92 76.25 15.51 75.42 16.13 75.24 C16.74 75.05
						 17.66 75.15 18.06 75.39 C18.47 75.65 19.42 76.79 19.82 77.02 C20.21 77.24 20.29 76.77 20.36 76.29 C20.43
						 75.81 20.36 74.98 20.24 73.98 C20.12 72.98 20.17 71.65 20.27 71.04 C20.36 70.41 20.36 68.75 20.31 68 C20.27
						 67.24 20.52 66.67 20.57 66.3 C20.62 65.94 20.52 64.25 20.55 63.15 C20.57 62.05 21.71 61.49 22.18 61.46 C22.65
						 61.44 22.89 61.9 23.25 62.23 C23.6 62.58 23.5 62.81 23.86 63.38 C24.22 63.95 24.22 65.16 24.24 65.91 C24.26
						 66.67 24.5 66.64 24.45 68.34 C24.42 69.48 24.45 74.96 24.45 75.56 C24.45 76.15 24.64 76.1 24.95 76.15 C25.25
						 76.2 25.65 76.31 26.13 76.61 C26.6 76.91 27.24 77.94 27.73 78.71 C28.23 79.49 28.75 80.33 29.25 81.06 C29.75
						 81.79 29.84 82.09 29.94 82.68 ZM27.01 82.24 C26.77 81.85 25.76 80.69 25.42 80.32 C25.08 79.94 24.75 79.82
						 24.64 80.37 C24.53 80.91 24.62 80.95 24.8 81.26 C24.97 81.57 25.45 82.16 25.86 82.49 C26.25 82.81 26.37
						 82.89 26.58 82.97 C26.79 83.04 27.26 82.63 27.01 82.24 ZM29.13 89.77 C30.02 90.6 29.77 91.26 29.28 91.98
						 C28.79 92.7 27.59 92.81 26.78 92.27 C25.95 91.73 22.59 89.45 21.62 88.77 C20.64 88.08 19.38 87.86 18.89
						 87.72 C18.4 87.57 17.98 87.4 17.51 87.03 C16.75 86.45 18.1 85.15 19.08 84.72 C20.05 84.29 20.57 84.26 21.8
						 84.54 C23.04 84.83 25.13 86.53 25.88 87.28 C26.63 88.04 28.23 88.94 29.13 89.77 ZM15.45 95.44 C16.03 96.36
						 15.81 96.76 15.4 97.46 C14.99 98.16 14.35 98.29 13.59 98.69 C12.82 99.08 12.45 99.08 12.18 99.34 C11.9 99.61
						 11.56 99.83 10.65 100.04 C10.06 100.16 9.78 100.02 9.5 99.78 C8.89 99.27 9.59 98.38 10.14 97.55 C10.68 96.71
						 10.28 96.58 9.82 95.57 C9.36 94.56 7.64 91.18 6.14 88.6 C4.64 86.01 1.41 83.25 0.65 82.33 C0 81.56 0.65
						 81.28 1.37 80.97 C2.1 80.66 2.55 81.15 3.24 81.85 C3.91 82.55 6.5 85.57 7.55 86.72 C8.59 87.85 12.04 91.5
						 13.13 92.59 C14.23 93.69 14.85 94.52 15.45 95.44 ZM3.9 72.59 C3.9 71.76 3.87 71.15 3.68 70.17 C3.49 69.2
						 3.68 67.99 5.17 67.39 C6.19 66.99 8.01 68.08 8.38 69.67 C8.76 71.26 8.58 72.19 8.01 73.24 C7.45 74.29 6.8
						 75.65 6.15 76.46 C5.43 77.32 5.1 77.56 4.65 77.43 C4.38 77.36 4.01 77.07 4.01 76.35 C4.01 75.37 3.9 73.42
						 3.9 72.59 ZM8.09 80.97 C8.42 80.93 8.83 81.18 8.99 80.86 C9.13 80.53 9.24 79.49 10.03 79.45 C10.82 79.42
						 11.34 79.45 11.56 79.73 C11.78 80.03 12.39 80.53 12.68 80.79 C12.98 81.04 13.02 81.51 12.8 81.8 C12.57 82.09
						 12.64 82.45 12.91 82.88 C13.17 83.31 13.43 83.79 13.66 84.22 C13.88 84.65 14.17 85.23 14.14 86.02 C14.11
						 86.72 13.92 86.71 13.58 87.1 C13.25 87.51 12.61 87.9 12.12 87.64 C11.64 87.39 11.08 86.89 10.71 86.17 C10.32
						 85.45 9.92 84.72 9.43 84.11 C8.95 83.49 8.54 83.02 7.94 82.63 C7.34 82.23 7.23 82.31 6.78 82.05 C6.33 81.8
						 6.26 81.11 6.7 81 C7.15 80.89 7.75 81 8.09 80.97 ZM9.47 74.75 C9.17 74.47 9.06 74.29 9.21 73.78 C9.35 73.27
						 9.58 73.02 10.03 72.45 C10.48 71.87 10.67 72.01 11.08 71.8 C11.48 71.58 11.67 71.62 11.82 72.01 C11.98 72.41
						 12.27 72.92 12.68 73.39 C13.09 73.86 13.13 74.07 13.13 74.47 C13.13 74.87 13.02 75.7 13.05 76.35 C13.09
						 76.99 12.98 76.74 13.28 76.99 C13.58 77.25 13.55 77.57 13.58 78.19 C13.62 78.8 13.28 78.87 12.95 78.98 C12.61
						 79.09 12.42 79.09 12.16 79.24 C11.9 79.38 11.82 79.16 11.6 79.09 C11.38 79.02 11.04 79.2 10.93 78.84 C10.82
						 78.47 10.63 78.19 10.29 77.94 C9.95 77.68 9.72 77.58 9.32 77.18 C9.01 76.87 9.4 76.5 9.71 76.24 C10.01 75.99
						 10.07 75.8 9.92 75.48 C9.77 75.16 9.77 75.05 9.47 74.75 Z" class="st1"/>
		</g>
		<g id="shape198-14" v:mID="198" v:groupContext="shape" transform="translate(212.509,123.64) scale(1,-1)">
			<title>path568</title>
			<path d="M30.21 96.04 C30.21 96.48 29.95 97.16 29.31 97.5 C28.68 97.84 28.6 98.13 27.94 97.9 C27.29 97.67 26.12 97.04
						 25.42 96.57 C24.73 96.1 21.33 94.31 20.1 93.44 C18.88 92.57 17.07 91.66 16.65 91.43 C16.24 91.2 15.75 91.35
						 16.04 91.87 C16.32 92.4 16.52 92.78 17.16 93.16 C17.79 93.55 18.53 94.12 19.06 94.43 C19.59 94.75 20.74
						 95.57 20.96 96.08 C21.18 96.59 21.42 97.21 21.04 97.52 C20.67 97.84 19.91 98.47 19.45 98.85 C18.99 99.23
						 18.64 99.51 18.4 99.55 C18.16 99.59 17.96 99.82 17.65 99.99 C17.35 100.16 17.17 100.11 16.87 99.69 C16.56
						 99.27 16.61 98.98 16.78 98.68 C16.96 98.38 16.83 97.98 16.98 97.69 C17.14 97.39 17.1 97.15 17.3 97.05 C17.39
						 97.02 17.3 96.8 17.16 96.52 C17 96.25 17.1 95.91 16.83 95.53 C16.54 95.15 16.06 94.43 15.7 94.08 C15.36
						 93.72 15.25 93.48 14.74 93.78 C14.24 94.08 13.52 94.71 12.62 95.13 C11.73 95.55 10.52 95.91 10.06 96.38
						 C9.6 96.84 9.06 97.29 8.29 97.52 C7.53 97.75 6.48 97.9 6.02 97.88 C5.56 97.86 5.06 97.54 5.66 96.93 C6.24
						 96.33 6.58 96.14 7.34 95.88 C8.03 95.63 9.54 93.55 9.79 92.59 C10.11 91.35 9.84 89.8 9.88 88.67 C9.93 87.54
						 10.11 86.93 9.52 86.45 C8.94 85.98 8.94 85.37 8.54 86.32 C8.13 87.28 8.18 88.46 7.27 88.94 C6.37 89.41 5.92
						 89.98 4.98 89.8 C4.02 89.63 3.72 89.54 4.12 88.67 C4.53 87.8 4.8 87.11 4.71 84.98 C4.64 83.59 4.93 82.67
						 5.47 82.24 C6.02 81.8 6.82 81.2 7.4 81.2 C8 81.2 8.13 80.89 7.72 80.5 C7.32 80.11 2.59 75.84 0.89 73.11
						 C0 71.71 0.07 71.59 0.57 71.06 C1.06 70.54 1.24 70.11 2.54 70.15 C3.86 70.2 4.88 70.37 5.47 70.98 C6.06
						 71.59 8.58 73.32 9.52 74.19 C10.47 75.06 13.54 77.54 15.65 79.37 C17.36 80.85 19.76 81.55 20.46 82.02 C21.5
						 82.72 21.82 82.46 22.23 82.72 C22.62 82.98 23.21 83.89 23.62 84.15 C24.02 84.41 25.27 84.54 25.87 84.63
						 C26.46 84.72 27.4 84.67 26.64 83.67 C25.87 82.67 24.93 81.8 24.3 81.37 C23.66 80.93 20.42 79.11 20.01 78.85
						 C19.62 78.59 19.25 78.41 18.44 78.45 C17.62 78.5 17.36 78.28 16.55 77.89 C15.73 77.5 15.51 77.89 14.79 77.2
						 C14.08 76.5 13.76 76.28 13.31 75.67 C12.86 75.06 12.9 74.63 13.35 74.28 C13.8 73.93 13.9 73.76 14.48 74.02
						 C15.06 74.28 15.51 74.24 15.87 74.41 C16.24 74.58 16.87 74.5 16.73 74.07 C16.6 73.63 16.37 73.32 16.46 72.76
						 C16.55 72.19 16.91 71.63 15.73 71.19 C14.56 70.76 13.17 70.45 12.36 70.2 C11.56 69.93 9.34 69.15 8.49 68.71
						 C7.63 68.28 5.61 67.45 4.88 66.93 C4.17 66.41 3.5 66.15 2.95 65.67 C2.41 65.2 2.09 64.72 2.23 63.97 C2.37
						 63.24 2.91 62.76 3.63 62.71 C4.35 62.67 4.71 62.15 5.2 61.93 C5.7 61.71 6.11 61.63 6.64 61.37 C7.18 61.11
						 7.72 60.8 8.81 59.93 C9.88 59.06 12.63 56.98 13.76 56.23 C14.88 55.5 15.65 54.97 16.33 55.02 C17 55.06 17.27
						 55.02 17.94 55.63 C18.62 56.23 18.94 56.23 18.85 57.36 C18.76 58.5 18.4 61.15 18.4 62.85 C18.4 64.54 18.71
						 64.37 18.62 65.33 C18.53 66.28 18.4 66.8 18.53 67.28 C18.66 67.76 18.89 68.06 19.52 68.1 C20.15 68.15 22.94
						 68.32 23.75 68.24 C24.57 68.15 24.83 67.98 25.55 68.5 C26.27 69.02 26.27 69.11 26.36 69.72 C26.46 70.33
						 26.91 70.23 26.31 71.06 C25.73 71.89 24.96 72.19 24.57 72.67 C24.16 73.15 23.98 73.37 23.16 72.89 C22.35
						 72.41 22.05 72.15 21.23 72.11 C20.42 72.06 20.28 72.02 19.92 72.06 C19.57 72.11 19.25 72.11 19.52 72.8 C19.79
						 73.5 20.15 74.24 20.92 74.89 C21.68 75.54 22 75.84 22.09 76.32 C22.18 76.8 22.09 77.15 22.09 77.72 C22.09
						 78.28 22.05 78.37 22.8 78.8 C23.57 79.24 26.13 81.06 26.99 81.8 C27.84 82.54 29.55 83.93 29.11 85.5 C28.84
						 86.45 28.21 86.81 27.31 86.89 C26.41 86.98 25.5 86.93 25.05 86.93 C24.43 86.93 24.44 87.16 24.79 87.63 C25.13
						 88.1 25.35 88.22 25.53 88.52 C25.7 88.81 26.12 89.68 26.61 90.25 C27.09 90.82 28.02 92.3 28.53 92.76 C29.03
						 93.23 29.53 94.01 29.91 94.5 C30.29 94.98 30.21 95.6 30.21 96.04 ZM15 65.59 C14.99 64.81 15.03 64.19 15.03
						 63.95 C15.02 63.72 15.24 63.46 15.23 63.03 C15.22 62.6 15.24 61.42 15.2 61 C15.17 60.58 15.22 60.38 15.09
						 60.17 C14.97 59.97 14.99 59.86 14.99 59.61 C14.99 59.36 15.04 59.1 14.7 58.98 C14.38 58.86 14.51 58.76 13.86
						 59.07 C13.21 59.37 11.32 60.19 10.74 60.55 C10.16 60.91 9.45 61.43 8.72 61.79 C7.99 62.15 7.09 62.73 6.64
						 62.91 C6.2 63.09 6.02 63.46 6.8 63.97 C7.6 64.48 8.44 64.91 9.14 65.21 C9.84 65.5 12.62 66.31 13.33 66.48
						 C14.03 66.65 14.91 66.77 15.09 66.48 C15.38 66.03 15 66.1 15 65.59 ZM13.94 90.4 C14.34 90.25 14.12 89.68
						 13.83 89.38 C13.55 89.09 12.25 88.26 11.89 88.03 C11.56 87.79 11.38 88.16 11.32 88.54 C11.24 88.92 11.27
						 89.19 11.38 89.45 C11.49 89.7 11.43 89.91 11.71 90.16 C11.99 90.42 11.89 90.97 11.96 91.45 C12.03 91.94
						 12.91 91.73 12.8 91.09 C12.73 90.74 12.84 90.65 13.11 90.57 C13.36 90.48 13.55 90.55 13.94 90.4 ZM16.08
						 84.48 C15.82 84.31 15.58 84.18 15.01 84.06 C14.44 83.93 14.39 84.04 13.78 83.83 C13.17 83.61 12.84 83.42
						 12.4 83.32 C11.96 83.21 11.32 83.07 10.9 82.71 C10.48 82.34 9.95 82.05 9.69 82.01 C9.43 81.96 9.55 81.86
						 9.1 81.61 C8.47 81.26 8.16 81.63 8.93 82.73 C9.4 83.41 10.22 84.71 10.72 85.24 C11.23 85.77 12.95 87.04
						 13.41 87.35 C13.87 87.67 13.92 87.04 13.65 86.68 C13.39 86.32 13.33 85.89 13.19 85.43 C13.06 84.97 13.85
						 85.12 14.14 85.37 C14.42 85.62 14.81 85.56 15.4 85.56 C15.75 85.56 15.75 85.39 16.06 85.05 C16.36 84.71
						 16.34 84.65 16.08 84.48 ZM16.97 82.8 C17.39 82.83 17.9 82.68 17.36 82.3 C16.84 81.91 13.75 79.72 12.98 79.26
						 C12.21 78.8 8.6 76.32 7.77 75.81 C6.95 75.3 6.51 75.14 6.11 74.89 C5.48 74.51 5.18 74.79 5.64 75.4 C6.09
						 76.02 8.06 78.62 9.33 79.59 C10.6 80.56 11.95 81.2 12.71 81.58 C13.49 81.96 14.56 82.19 14.83 82.37 C15.09
						 82.55 15.6 82.47 15.91 82.53 C16.23 82.57 16.55 82.78 16.97 82.8 ZM18.51 87.77 C18.51 87 18.48 86.6 18.18
						 86.32 C17.87 86.04 17.79 86.06 17.68 85.75 C17.57 85.43 17.24 85.37 17.07 85.68 C16.9 86 17.07 86.44 16.94
						 86.76 C16.8 87.08 17.14 87.54 17.41 87.96 C17.7 88.39 18.51 88.56 18.51 87.77 ZM27.13 94.98 C27.07 94.47
						 26.85 94.03 26.8 93.76 C26.76 93.48 25.99 92.13 25.42 91.26 C24.85 90.4 23.83 88.6 23.54 87.82 C23.26 87.04
						 22.9 86.68 22.82 86.25 C22.72 85.83 22.64 85.85 22.34 85.56 C22.04 85.26 21.85 85.01 21.31 84.99 C20.76
						 84.97 20.82 84.94 20.56 84.97 C20.3 84.99 20.28 85.18 20.58 85.51 C20.89 85.85 21.09 86.17 21.09 86.43 C21.09
						 86.68 21.33 86.89 21.53 87.12 C21.73 87.35 21.75 87.52 21.77 87.72 C21.79 87.91 22.01 88.01 22.17 88.24
						 C22.32 88.48 22.32 88.62 22.36 88.96 C22.41 89.3 22.64 89.21 22.6 89.72 C22.55 90.23 22.72 90.71 22.43 91.07
						 C22.12 91.43 22.12 91.75 21.82 91.98 C21.51 92.22 21.66 92.49 21.85 92.68 C22.31 93.12 22.53 93.34 23.34
						 93.87 C24.16 94.39 25.06 94.89 25.5 95.09 C25.95 95.28 26.23 95.32 26.41 95.43 C26.58 95.53 27.19 95.49
						 27.13 94.98 Z" class="st1"/>
		</g>
		<g id="shape199-16" v:mID="199" v:groupContext="shape" transform="translate(18.7398,173.448) scale(1,-1)">
			<title>path570</title>
			<path d="M4.8 100.16 C4.76 99.97 4.7 99.84 4.63 99.78 C4.56 99.71 4.48 99.68 4.37 99.68 C4.27 99.68 4.11 99.73 3.88 99.83
						 C3.38 100.05 2.91 100.16 2.46 100.16 C1.75 100.16 1.16 99.94 0.69 99.51 C0.23 99.07 0 98.55 0 97.95 C0 97.61
						 0.08 97.29 0.24 97 C0.39 96.71 0.63 96.45 0.93 96.21 C1.23 95.97 1.75 95.65 2.47 95.25 C3.19 94.85 3.63
						 94.59 3.79 94.46 C4.03 94.28 4.2 94.08 4.32 93.87 C4.43 93.66 4.49 93.45 4.49 93.25 C4.49 92.87 4.34 92.55
						 4.04 92.28 C3.74 92.01 3.33 91.87 2.82 91.87 C2.37 91.87 1.96 91.97 1.59 92.17 C1.21 92.37 0.94 92.62 0.76
						 92.92 C0.57 93.22 0.43 93.67 0.32 94.27 L0.09 94.27 L0.09 91.39 L0.32 91.39 C0.35 91.58 0.4 91.71 0.46 91.78
						 C0.52 91.84 0.6 91.87 0.7 91.87 C0.81 91.87 1.06 91.8 1.46 91.67 C1.87 91.54 2.13 91.46 2.26 91.44 C2.47
						 91.41 2.7 91.39 2.95 91.39 C3.72 91.39 4.36 91.62 4.85 92.08 C5.34 92.54 5.59 93.08 5.59 93.72 C5.59 94.05
						 5.51 94.37 5.36 94.68 C5.2 94.98 4.98 95.25 4.69 95.47 C4.41 95.7 3.87 96.02 3.09 96.44 C2.12 96.96 1.51
						 97.37 1.26 97.68 C1.08 97.89 0.99 98.12 0.99 98.38 C0.99 98.71 1.13 99.01 1.41 99.27 C1.69 99.54 2.05 99.67
						 2.48 99.67 C2.86 99.67 3.22 99.57 3.58 99.37 C3.93 99.18 4.21 98.92 4.4 98.59 C4.59 98.25 4.72 97.81 4.8
						 97.25 L5.03 97.25 L5.03 100.16 L4.8 100.16 ZM8.09 99.07 C7.18 98.23 6.72 97.14 6.72 95.81 C6.72 94.5 7.12
						 93.44 7.9 92.62 C8.69 91.8 9.66 91.39 10.82 91.39 C11.97 91.39 12.94 91.81 13.75 92.65 C14.55 93.49 14.95
						 94.55 14.95 95.82 C14.95 97.06 14.56 98.09 13.76 98.92 C12.96 99.75 12.01 100.16 10.92 100.16 C9.82 100.16
						 8.88 99.8 8.09 99.07 ZM12.68 98.87 C13.25 98.17 13.53 97.1 13.53 95.66 C13.53 94.34 13.27 93.37 12.76 92.75
						 C12.25 92.14 11.6 91.83 10.81 91.83 C10.07 91.83 9.48 92.11 9.03 92.67 C8.44 93.41 8.15 94.47 8.15 95.84
						 C8.15 97.17 8.43 98.19 9 98.88 C9.45 99.44 10.05 99.72 10.8 99.72 C11.6 99.72 12.23 99.44 12.68 98.87 ZM21.83
						 99.74 C22.15 99.74 22.39 99.65 22.55 99.47 C22.66 99.34 22.72 99.01 22.72 98.49 L22.72 95.09 C22.72 94.2
						 22.64 93.57 22.48 93.2 C22.32 92.82 22.02 92.52 21.59 92.28 C21.15 92.04 20.66 91.92 20.11 91.92 C19.68
						 91.92 19.32 92 19.02 92.15 C18.72 92.3 18.5 92.49 18.34 92.73 C18.18 92.97 18.07 93.29 18.01 93.71 C17.95
						 94.13 17.92 94.51 17.92 94.83 L17.92 98.49 C17.92 98.96 17.98 99.27 18.08 99.41 C18.23 99.63 18.48 99.74
						 18.83 99.74 L19.15 99.74 L19.15 99.98 L15.51 99.98 L15.51 99.74 L15.82 99.74 C16.14 99.74 16.38 99.66 16.52
						 99.5 C16.66 99.34 16.73 99 16.73 98.49 L16.73 95.21 C16.73 94.2 16.8 93.51 16.93 93.14 C17.13 92.61 17.47
						 92.18 17.94 91.86 C18.42 91.55 19.11 91.39 20.03 91.39 C20.87 91.39 21.54 91.55 22.03 91.88 C22.52 92.22
						 22.85 92.61 23.01 93.08 C23.18 93.54 23.27 94.2 23.27 95.04 L23.27 98.44 C23.27 98.9 23.31 99.2 23.4 99.33
						 C23.57 99.6 23.82 99.74 24.15 99.74 L24.47 99.74 L24.47 99.98 L21.52 99.98 L21.52 99.74 L21.83 99.74 ZM25.08
						 99.98 L24.99 98 L25.23 98 C25.26 98.38 25.35 98.68 25.5 98.9 C25.66 99.13 25.84 99.28 26.06 99.36 C26.22
						 99.41 26.5 99.44 26.9 99.44 L27.91 99.44 L27.91 93.04 C27.91 92.56 27.86 92.26 27.77 92.13 C27.62 91.92
						 27.37 91.81 27.01 91.81 L26.71 91.81 L26.71 91.57 L30.29 91.57 L30.29 91.81 L29.99 91.81 C29.67 91.81 29.42
						 91.89 29.27 92.07 C29.15 92.2 29.1 92.52 29.1 93.04 L29.1 99.44 L30.28 99.44 C30.63 99.44 30.9 99.39 31.12
						 99.27 C31.33 99.16 31.5 98.98 31.63 98.74 C31.71 98.59 31.77 98.35 31.81 98 L32.05 98 L31.96 99.98 L25.08
						 99.98 ZM34.98 98.49 C34.98 98.9 35 99.17 35.05 99.3 C35.1 99.44 35.19 99.53 35.32 99.6 C35.5 99.69 35.68
						 99.74 35.88 99.74 L36.18 99.74 L36.18 99.98 L32.59 99.98 L32.59 99.74 L32.88 99.74 C33.08 99.74 33.27 99.69
						 33.45 99.59 C33.58 99.52 33.67 99.43 33.71 99.33 C33.76 99.19 33.79 98.91 33.79 98.49 L33.79 93.06 C33.79
						 92.56 33.74 92.24 33.64 92.11 C33.48 91.91 33.23 91.81 32.88 91.81 L32.59 91.81 L32.59 91.57 L36.18 91.57
						 L36.18 91.81 L35.88 91.81 C35.68 91.81 35.5 91.86 35.32 91.96 C35.19 92.03 35.1 92.12 35.06 92.22 C35.01
						 92.36 34.98 92.64 34.98 93.06 L34.98 95.63 L38.88 95.63 L38.88 93.06 C38.88 92.56 38.83 92.24 38.73 92.11
						 C38.57 91.91 38.32 91.81 37.98 91.81 L37.68 91.81 L37.68 91.57 L41.28 91.57 L41.28 91.81 L40.98 91.81 C40.78
						 91.81 40.59 91.86 40.41 91.96 C40.28 92.03 40.2 92.12 40.15 92.22 C40.1 92.36 40.07 92.64 40.07 93.06 L40.07
						 98.49 C40.07 98.9 40.1 99.17 40.15 99.3 C40.19 99.44 40.28 99.53 40.41 99.6 C40.59 99.69 40.78 99.74 40.98
						 99.74 L41.28 99.74 L41.28 99.98 L37.68 99.98 L37.68 99.74 L37.98 99.74 C38.18 99.74 38.37 99.69 38.54 99.59
						 C38.68 99.52 38.76 99.43 38.8 99.33 C38.86 99.19 38.88 98.91 38.88 98.49 L38.88 96.08 L34.98 96.08 L34.98
						 98.49 ZM52.09 100.16 C52.05 99.96 51.97 99.81 51.86 99.7 C51.78 99.62 51.68 99.58 51.57 99.58 C51.5 99.58
						 51.38 99.63 51.21 99.72 C50.62 100.01 50.02 100.16 49.42 100.16 C48.65 100.16 47.93 99.97 47.28 99.58 C46.62
						 99.2 46.11 98.65 45.73 97.95 C45.36 97.25 45.17 96.48 45.17 95.64 C45.17 94.6 45.46 93.7 46.03 92.93 C46.79
						 91.9 47.87 91.39 49.25 91.39 C50.03 91.39 50.69 91.56 51.25 91.91 C51.81 92.26 52.3 92.81 52.72 93.56 L52.53
						 93.68 C52.03 92.98 51.58 92.52 51.16 92.28 C50.75 92.05 50.27 91.93 49.73 91.93 C49.1 91.93 48.55 92.08
						 48.06 92.38 C47.57 92.67 47.21 93.1 46.96 93.66 C46.72 94.22 46.6 94.87 46.6 95.63 C46.6 96.55 46.73 97.32
						 46.98 97.94 C47.24 98.56 47.59 99.01 48.04 99.29 C48.49 99.57 48.99 99.72 49.54 99.72 C50.2 99.72 50.77
						 99.53 51.24 99.15 C51.71 98.77 52.07 98.16 52.33 97.3 L52.52 97.3 L52.33 100.16 L52.09 100.16 ZM55.78 98.49
						 C55.78 98.9 55.81 99.17 55.86 99.3 C55.91 99.44 56 99.53 56.12 99.6 C56.3 99.69 56.49 99.74 56.69 99.74
						 L56.99 99.74 L56.99 99.98 L53.39 99.98 L53.39 99.74 L53.69 99.74 C53.89 99.74 54.08 99.69 54.26 99.59 C54.39
						 99.52 54.47 99.43 54.51 99.33 C54.57 99.19 54.59 98.91 54.59 98.49 L54.59 93.06 C54.59 92.56 54.55 92.24
						 54.45 92.11 C54.29 91.91 54.04 91.81 53.69 91.81 L53.39 91.81 L53.39 91.57 L56.99 91.57 L56.99 91.81 L56.69
						 91.81 C56.49 91.81 56.3 91.86 56.12 91.96 C55.99 92.03 55.91 92.12 55.87 92.22 C55.81 92.36 55.78 92.64
						 55.78 93.06 L55.78 95.63 L59.69 95.63 L59.69 93.06 C59.69 92.56 59.64 92.24 59.53 92.11 C59.38 91.91 59.13
						 91.81 58.78 91.81 L58.49 91.81 L58.49 91.57 L62.08 91.57 L62.08 91.81 L61.78 91.81 C61.59 91.81 61.4 91.86
						 61.21 91.96 C61.09 92.03 61 92.12 60.96 92.22 C60.91 92.36 60.88 92.64 60.88 93.06 L60.88 98.49 C60.88 98.9
						 60.9 99.17 60.95 99.3 C61 99.44 61.09 99.53 61.22 99.6 C61.4 99.69 61.59 99.74 61.78 99.74 L62.08 99.74
						 L62.08 99.98 L58.49 99.98 L58.49 99.74 L58.78 99.74 C58.98 99.74 59.17 99.69 59.35 99.59 C59.48 99.52 59.57
						 99.43 59.61 99.33 C59.66 99.19 59.69 98.91 59.69 98.49 L59.69 96.08 L55.78 96.08 L55.78 98.49 ZM65.95 91.81
						 C65.75 91.81 65.57 91.86 65.39 91.96 C65.26 92.03 65.17 92.12 65.13 92.22 C65.08 92.36 65.05 92.64 65.05
						 93.06 L65.05 98.49 C65.05 98.99 65.1 99.31 65.2 99.44 C65.36 99.64 65.61 99.74 65.95 99.74 L66.25 99.74
						 L66.25 99.98 L62.66 99.98 L62.66 99.74 L62.96 99.74 C63.15 99.74 63.34 99.69 63.53 99.59 C63.65 99.52 63.74
						 99.43 63.78 99.33 C63.83 99.19 63.86 98.91 63.86 98.49 L63.86 93.06 C63.86 92.56 63.81 92.24 63.71 92.11
						 C63.55 91.91 63.3 91.81 62.96 91.81 L62.66 91.81 L62.66 91.57 L66.25 91.57 L66.25 91.81 L65.95 91.81 ZM66.4
						 99.74 C66.64 99.74 66.82 99.72 66.94 99.69 C67.18 99.61 67.37 99.52 67.5 99.43 C67.62 99.34 67.81 99.16
						 68.05 98.87 L68.05 93.04 C68.05 92.56 68 92.26 67.91 92.13 C67.76 91.92 67.51 91.81 67.14 91.81 L66.85 91.81
						 L66.85 91.57 L69.8 91.57 L69.8 91.81 L69.5 91.81 C69.17 91.81 68.92 91.89 68.76 92.07 C68.65 92.2 68.6 92.52
						 68.6 93.04 L68.6 98.21 L74.14 91.44 L74.36 91.44 L74.36 98.51 C74.36 98.98 74.41 99.29 74.5 99.42 C74.65
						 99.63 74.9 99.74 75.26 99.74 L75.56 99.74 L75.56 99.98 L72.61 99.98 L72.61 99.74 L72.91 99.74 C73.24 99.74
						 73.48 99.65 73.64 99.48 C73.76 99.35 73.81 99.03 73.81 98.51 L73.81 93.67 L68.67 99.98 L66.4 99.98 L66.4
						 99.74 ZM82.06 93.18 C82.23 92.79 82.31 92.5 82.31 92.32 C82.31 92.18 82.25 92.07 82.13 91.97 C82.02 91.88
						 81.79 91.82 81.45 91.81 L81.45 91.57 L84.77 91.57 L84.77 91.81 C84.43 91.83 84.16 91.92 83.97 92.09 C83.78
						 92.26 83.56 92.62 83.33 93.18 L80.4 100.16 L80.17 100.16 L77.22 93.25 C76.96 92.65 76.73 92.25 76.51 92.05
						 C76.41 91.95 76.18 91.87 75.83 91.81 L75.83 91.57 L78.49 91.57 L78.49 91.81 C78.08 91.84 77.82 91.9 77.7
						 92 C77.57 92.09 77.51 92.2 77.51 92.33 C77.51 92.49 77.58 92.73 77.72 93.06 L78.29 94.39 L81.56 94.39 L82.06
						 93.18 ZM78.49 94.84 L79.95 98.24 L81.37 94.84 L78.49 94.84 ZM87.2 99.74 C87.44 99.74 87.63 99.72 87.75 99.69
						 C87.99 99.61 88.17 99.52 88.3 99.43 C88.43 99.34 88.61 99.16 88.86 98.87 L88.86 93.04 C88.86 92.56 88.81
						 92.26 88.72 92.13 C88.57 91.92 88.31 91.81 87.95 91.81 L87.65 91.81 L87.65 91.57 L90.6 91.57 L90.6 91.81
						 L90.3 91.81 C89.97 91.81 89.73 91.89 89.57 92.07 C89.46 92.2 89.4 92.52 89.4 93.04 L89.4 98.21 L94.94 91.44
						 L95.16 91.44 L95.16 98.51 C95.16 98.98 95.21 99.29 95.3 99.42 C95.45 99.63 95.71 99.74 96.07 99.74 L96.37
						 99.74 L96.37 99.98 L93.42 99.98 L93.42 99.74 L93.71 99.74 C94.05 99.74 94.29 99.65 94.44 99.48 C94.56 99.35
						 94.62 99.03 94.62 98.51 L94.62 93.67 L89.48 99.98 L87.2 99.98 L87.2 99.74 ZM98.34 99.07 C97.44 98.23 96.98
						 97.14 96.98 95.81 C96.98 94.5 97.37 93.44 98.16 92.62 C98.95 91.8 99.92 91.39 101.08 91.39 C102.22 91.39
						 103.2 91.81 104 92.65 C104.81 93.49 105.21 94.55 105.21 95.82 C105.21 97.06 104.81 98.09 104.01 98.92 C103.21
						 99.75 102.27 100.16 101.18 100.16 C100.08 100.16 99.13 99.8 98.34 99.07 ZM102.94 98.87 C103.5 98.17 103.79
						 97.1 103.79 95.66 C103.79 94.34 103.53 93.37 103.02 92.75 C102.5 92.14 101.85 91.83 101.06 91.83 C100.33
						 91.83 99.73 92.11 99.28 92.67 C98.7 93.41 98.41 94.47 98.41 95.84 C98.41 97.17 98.69 98.19 99.25 98.88 C99.71
						 99.44 100.31 99.72 101.06 99.72 C101.86 99.72 102.49 99.44 102.94 98.87 ZM114.28 91.81 C113.83 91.86 113.45
						 91.97 113.17 92.15 C112.88 92.34 112.54 92.7 112.15 93.26 L110.4 95.67 C111.11 95.82 111.63 96.09 111.96
						 96.47 C112.3 96.85 112.47 97.3 112.47 97.82 C112.47 98.3 112.32 98.71 112.03 99.06 C111.73 99.41 111.37
						 99.65 110.95 99.78 C110.53 99.91 109.87 99.98 108.98 99.98 L105.92 99.98 L105.92 99.74 L106.24 99.74 C106.55
						 99.74 106.79 99.65 106.95 99.47 C107.07 99.34 107.13 99.02 107.13 98.49 L107.13 93.06 C107.13 92.58 107.08
						 92.28 107 92.15 C106.84 91.92 106.59 91.81 106.24 91.81 L105.92 91.81 L105.92 91.57 L109.52 91.57 L109.52
						 91.81 L109.19 91.81 C108.88 91.81 108.64 91.9 108.49 92.08 C108.37 92.21 108.32 92.53 108.32 93.06 L108.32
						 95.5 C108.38 95.5 108.45 95.49 108.51 95.49 C108.57 95.49 108.63 95.49 108.68 95.49 C108.81 95.49 108.98
						 95.49 109.19 95.5 L112.04 91.57 L114.28 91.57 L114.28 91.81 ZM108.32 99.38 C108.72 99.46 109.04 99.51 109.27
						 99.51 C109.81 99.51 110.23 99.34 110.56 99.01 C110.88 98.69 111.04 98.26 111.04 97.74 C111.04 97.2 110.84
						 96.76 110.44 96.41 C110.04 96.07 109.45 95.89 108.66 95.89 C108.62 95.89 108.57 95.89 108.52 95.9 C108.46
						 95.9 108.39 95.9 108.32 95.9 L108.32 99.38 ZM119.57 91.57 L122.81 98.64 L122.81 93.04 C122.81 92.56 122.76
						 92.26 122.67 92.13 C122.52 91.92 122.27 91.81 121.9 91.81 L121.6 91.81 L121.6 91.57 L125.2 91.57 L125.2
						 91.81 L124.9 91.81 C124.57 91.81 124.33 91.89 124.17 92.07 C124.05 92.2 124 92.52 124 93.04 L124 98.51 C124
						 98.98 124.04 99.29 124.13 99.42 C124.28 99.63 124.54 99.74 124.9 99.74 L125.2 99.74 L125.2 99.98 L122.8
						 99.98 L119.81 93.4 L116.76 99.98 L114.37 99.98 L114.37 99.74 C114.71 99.74 114.96 99.7 115.12 99.62 C115.28
						 99.54 115.38 99.44 115.44 99.32 C115.53 99.15 115.57 98.89 115.57 98.51 L115.57 93.04 C115.57 92.56 115.52
						 92.26 115.43 92.13 C115.28 91.92 115.02 91.81 114.67 91.81 L114.37 91.81 L114.37 91.57 L117.32 91.57 L117.32
						 91.81 L117.01 91.81 C116.68 91.81 116.44 91.89 116.28 92.07 C116.17 92.2 116.11 92.52 116.11 93.04 L116.11
						 98.64 L119.36 91.57 L119.57 91.57 ZM131.79 93.18 C131.95 92.79 132.03 92.5 132.03 92.32 C132.03 92.18 131.97
						 92.07 131.86 91.97 C131.74 91.88 131.51 91.82 131.18 91.81 L131.18 91.57 L134.5 91.57 L134.5 91.81 C134.15
						 91.83 133.88 91.92 133.69 92.09 C133.5 92.26 133.29 92.62 133.05 93.18 L130.12 100.16 L129.89 100.16 L126.94
						 93.25 C126.68 92.65 126.45 92.25 126.24 92.05 C126.14 91.95 125.91 91.87 125.56 91.81 L125.56 91.57 L128.21
						 91.57 L128.21 91.81 C127.81 91.84 127.54 91.9 127.42 92 C127.3 92.09 127.24 92.2 127.24 92.33 C127.24 92.49
						 127.31 92.73 127.45 93.06 L128.02 94.39 L131.28 94.39 L131.79 93.18 ZM128.21 94.84 L129.67 98.24 L131.09
						 94.84 L128.21 94.84 ZM141.25 92.76 C141.04 92.51 140.8 92.34 140.54 92.25 C140.28 92.15 139.83 92.11 139.18
						 92.11 L138.57 92.11 C138.03 92.11 137.7 92.13 137.6 92.17 C137.5 92.21 137.42 92.27 137.37 92.36 C137.3
						 92.49 137.27 92.72 137.27 93.07 L137.27 98.35 C137.27 98.85 137.3 99.16 137.37 99.29 C137.44 99.42 137.56
						 99.53 137.74 99.62 C137.92 99.7 138.24 99.75 138.68 99.74 L138.68 99.98 L134.88 99.98 L134.88 99.74 L135.19
						 99.74 C135.51 99.74 135.75 99.65 135.91 99.47 C136.02 99.34 136.08 99.01 136.08 98.49 L136.08 93.06 C136.08
						 92.59 136.04 92.28 135.95 92.15 C135.8 91.92 135.55 91.81 135.19 91.81 L134.88 91.81 L134.88 91.57 L141.39
						 91.57 L142.11 93.86 L141.9 93.9 C141.68 93.38 141.47 93 141.25 92.76 ZM151.46 99.74 C151.78 99.74 152.02
						 99.65 152.18 99.47 C152.29 99.34 152.35 99.01 152.35 98.49 L152.35 95.09 C152.35 94.2 152.27 93.57 152.11
						 93.2 C151.95 92.82 151.65 92.52 151.22 92.28 C150.78 92.04 150.29 91.92 149.74 91.92 C149.31 91.92 148.95
						 92 148.65 92.15 C148.35 92.3 148.13 92.49 147.97 92.73 C147.81 92.97 147.7 93.29 147.64 93.71 C147.58 94.13
						 147.55 94.51 147.55 94.83 L147.55 98.49 C147.55 98.96 147.61 99.27 147.71 99.41 C147.86 99.63 148.11 99.74
						 148.46 99.74 L148.78 99.74 L148.78 99.98 L145.14 99.98 L145.14 99.74 L145.45 99.74 C145.77 99.74 146.01
						 99.66 146.15 99.5 C146.29 99.34 146.36 99 146.36 98.49 L146.36 95.21 C146.36 94.2 146.43 93.51 146.56 93.14
						 C146.76 92.61 147.1 92.18 147.57 91.86 C148.05 91.55 148.74 91.39 149.66 91.39 C150.5 91.39 151.17 91.55
						 151.66 91.88 C152.15 92.22 152.48 92.61 152.64 93.08 C152.81 93.54 152.9 94.2 152.9 95.04 L152.9 98.44 C152.9
						 98.9 152.94 99.2 153.03 99.33 C153.2 99.6 153.45 99.74 153.78 99.74 L154.1 99.74 L154.1 99.98 L151.15 99.98
						 L151.15 99.74 L151.46 99.74 ZM154.07 99.74 C154.32 99.74 154.5 99.72 154.62 99.69 C154.86 99.61 155.05 99.52
						 155.17 99.43 C155.3 99.34 155.48 99.16 155.73 98.87 L155.73 93.04 C155.73 92.56 155.68 92.26 155.59 92.13
						 C155.44 91.92 155.18 91.81 154.82 91.81 L154.53 91.81 L154.53 91.57 L157.48 91.57 L157.48 91.81 L157.18
						 91.81 C156.85 91.81 156.6 91.89 156.44 92.07 C156.33 92.2 156.27 92.52 156.27 93.04 L156.27 98.21 L161.81
						 91.44 L162.04 91.44 L162.04 98.51 C162.04 98.98 162.08 99.29 162.18 99.42 C162.33 99.63 162.58 99.74 162.94
						 99.74 L163.24 99.74 L163.24 99.98 L160.29 99.98 L160.29 99.74 L160.58 99.74 C160.92 99.74 161.16 99.65 161.32
						 99.48 C161.43 99.35 161.49 99.03 161.49 98.51 L161.49 93.67 L156.35 99.98 L154.07 99.98 L154.07 99.74 ZM167.02
						 91.81 C166.82 91.81 166.64 91.86 166.46 91.96 C166.33 92.03 166.24 92.12 166.2 92.22 C166.15 92.36 166.12
						 92.64 166.12 93.06 L166.12 98.49 C166.12 98.99 166.17 99.31 166.28 99.44 C166.43 99.64 166.68 99.74 167.02
						 99.74 L167.32 99.74 L167.32 99.98 L163.73 99.98 L163.73 99.74 L164.03 99.74 C164.23 99.74 164.42 99.69 164.6
						 99.59 C164.73 99.52 164.81 99.43 164.85 99.33 C164.9 99.19 164.93 98.91 164.93 98.49 L164.93 93.06 C164.93
						 92.56 164.88 92.24 164.78 92.11 C164.63 91.91 164.37 91.81 164.03 91.81 L163.73 91.81 L163.73 91.57 L167.32
						 91.57 L167.32 91.81 L167.02 91.81 ZM174.06 99.98 L174.06 99.74 C174.11 99.73 174.15 99.73 174.17 99.72 C174.45
						 99.68 174.65 99.6 174.77 99.49 C174.89 99.38 174.95 99.27 174.95 99.15 C174.95 98.96 174.86 98.63 174.66
						 98.15 L172.67 93.28 L170.53 98.21 C170.34 98.65 170.25 98.97 170.25 99.18 C170.25 99.33 170.31 99.45 170.42
						 99.54 C170.54 99.64 170.79 99.7 171.18 99.74 L171.18 99.98 L167.75 99.98 L167.75 99.74 C168.01 99.72 168.21
						 99.67 168.36 99.6 C168.51 99.53 168.64 99.43 168.74 99.3 C168.81 99.22 168.92 99 169.08 98.63 L172.22 91.39
						 L172.46 91.39 L175.39 98.53 C175.56 98.95 175.75 99.26 175.97 99.46 C176.13 99.59 176.35 99.69 176.65 99.74
						 L176.65 99.98 L174.06 99.98 ZM181.75 99.52 C182.17 99.52 182.46 99.49 182.63 99.42 C182.83 99.34 182.99
						 99.21 183.09 99.04 C183.2 98.88 183.3 98.57 183.38 98.13 L183.63 98.13 L183.54 99.98 L177.06 99.98 L177.06
						 99.74 L177.36 99.74 C177.71 99.74 177.95 99.66 178.1 99.49 C178.21 99.37 178.26 99.04 178.26 98.51 L178.26
						 93.06 C178.26 92.65 178.24 92.38 178.19 92.25 C178.14 92.12 178.05 92.02 177.92 91.95 C177.74 91.86 177.56
						 91.81 177.36 91.81 L177.06 91.81 L177.06 91.57 L183.54 91.57 L184.26 93.68 L184.01 93.68 C183.75 93.16 183.48
						 92.78 183.23 92.52 C183.03 92.33 182.82 92.2 182.61 92.13 C182.39 92.06 182.05 92.03 181.57 92.03 L180.15
						 92.03 C179.92 92.03 179.76 92.05 179.68 92.1 C179.59 92.15 179.54 92.21 179.5 92.29 C179.47 92.38 179.45
						 92.6 179.45 92.97 L179.45 95.75 L181.29 95.75 C181.64 95.75 181.9 95.71 182.06 95.63 C182.23 95.54 182.35
						 95.43 182.43 95.28 C182.49 95.17 182.54 94.91 182.6 94.5 L182.84 94.5 L182.84 97.44 L182.6 97.44 C182.58
						 96.95 182.46 96.62 182.24 96.43 C182.08 96.28 181.76 96.21 181.29 96.21 L179.45 96.21 L179.45 99.52 L181.75
						 99.52 ZM193.14 91.81 C192.68 91.86 192.31 91.97 192.02 92.15 C191.74 92.34 191.4 92.7 191 93.26 L189.25
						 95.67 C189.96 95.82 190.48 96.09 190.82 96.47 C191.15 96.85 191.32 97.3 191.32 97.82 C191.32 98.3 191.17
						 98.71 190.88 99.06 C190.58 99.41 190.23 99.65 189.8 99.78 C189.38 99.91 188.72 99.98 187.83 99.98 L184.78
						 99.98 L184.78 99.74 L185.09 99.74 C185.41 99.74 185.65 99.65 185.81 99.47 C185.92 99.34 185.98 99.02 185.98
						 98.49 L185.98 93.06 C185.98 92.58 185.94 92.28 185.85 92.15 C185.7 91.92 185.44 91.81 185.09 91.81 L184.78
						 91.81 L184.78 91.57 L188.37 91.57 L188.37 91.81 L188.04 91.81 C187.73 91.81 187.5 91.9 187.34 92.08 C187.23
						 92.21 187.17 92.53 187.17 93.06 L187.17 95.5 C187.23 95.5 187.3 95.49 187.36 95.49 C187.42 95.49 187.48
						 95.49 187.53 95.49 C187.66 95.49 187.84 95.49 188.05 95.5 L190.89 91.57 L193.14 91.57 L193.14 91.81 ZM187.17
						 99.38 C187.57 99.46 187.89 99.51 188.13 99.51 C188.66 99.51 189.09 99.34 189.41 99.01 C189.73 98.69 189.9
						 98.26 189.9 97.74 C189.9 97.2 189.7 96.76 189.29 96.41 C188.89 96.07 188.3 95.89 187.51 95.89 C187.47 95.89
						 187.43 95.89 187.37 95.9 C187.31 95.9 187.25 95.9 187.17 95.9 L187.17 99.38 ZM198.6 100.16 C198.56 99.97
						 198.5 99.84 198.43 99.78 C198.37 99.71 198.28 99.68 198.17 99.68 C198.07 99.68 197.91 99.73 197.68 99.83
						 C197.18 100.05 196.71 100.16 196.26 100.16 C195.55 100.16 194.96 99.94 194.49 99.51 C194.03 99.07 193.8
						 98.55 193.8 97.95 C193.8 97.61 193.88 97.29 194.04 97 C194.19 96.71 194.43 96.45 194.73 96.21 C195.04 95.97
						 195.55 95.65 196.27 95.25 C196.99 94.85 197.43 94.59 197.59 94.46 C197.83 94.28 198 94.08 198.12 93.87 C198.23
						 93.66 198.29 93.45 198.29 93.25 C198.29 92.87 198.14 92.55 197.84 92.28 C197.54 92.01 197.13 91.87 196.62
						 91.87 C196.17 91.87 195.76 91.97 195.39 92.17 C195.01 92.37 194.74 92.62 194.56 92.92 C194.37 93.22 194.23
						 93.67 194.12 94.27 L193.89 94.27 L193.89 91.39 L194.12 91.39 C194.15 91.58 194.2 91.71 194.26 91.78 C194.32
						 91.84 194.4 91.87 194.5 91.87 C194.61 91.87 194.86 91.8 195.26 91.67 C195.67 91.54 195.93 91.46 196.06 91.44
						 C196.27 91.41 196.5 91.39 196.75 91.39 C197.52 91.39 198.16 91.62 198.65 92.08 C199.14 92.54 199.39 93.08
						 199.39 93.72 C199.39 94.05 199.31 94.37 199.16 94.68 C199 94.98 198.78 95.25 198.5 95.47 C198.21 95.7 197.67
						 96.02 196.89 96.44 C195.92 96.96 195.31 97.37 195.06 97.68 C194.88 97.89 194.79 98.12 194.79 98.38 C194.79
						 98.71 194.93 99.01 195.21 99.27 C195.49 99.54 195.85 99.67 196.28 99.67 C196.66 99.67 197.02 99.57 197.38
						 99.37 C197.73 99.18 198.01 98.92 198.2 98.59 C198.39 98.25 198.52 97.81 198.6 97.25 L198.83 97.25 L198.83
						 100.16 L198.6 100.16 ZM203.69 91.81 C203.5 91.81 203.31 91.86 203.13 91.96 C203 92.03 202.91 92.12 202.87
						 92.22 C202.82 92.36 202.79 92.64 202.79 93.06 L202.79 98.49 C202.79 98.99 202.84 99.31 202.95 99.44 C203.1
						 99.64 203.35 99.74 203.69 99.74 L204 99.74 L204 99.98 L200.4 99.98 L200.4 99.74 L200.7 99.74 C200.9 99.74
						 201.09 99.69 201.27 99.59 C201.4 99.52 201.48 99.43 201.52 99.33 C201.58 99.19 201.6 98.91 201.6 98.49 L201.6
						 93.06 C201.6 92.56 201.55 92.24 201.45 92.11 C201.3 91.91 201.05 91.81 200.7 91.81 L200.4 91.81 L200.4 91.57
						 L204 91.57 L204 91.81 L203.69 91.81 ZM204.78 99.98 L204.69 98 L204.93 98 C204.95 98.38 205.05 98.68 205.2
						 98.9 C205.35 99.13 205.54 99.28 205.75 99.36 C205.92 99.41 206.2 99.44 206.59 99.44 L207.6 99.44 L207.6
						 93.04 C207.6 92.56 207.56 92.26 207.46 92.13 C207.31 91.92 207.06 91.81 206.7 91.81 L206.4 91.81 L206.4
						 91.57 L209.98 91.57 L209.98 91.81 L209.69 91.81 C209.36 91.81 209.12 91.89 208.96 92.07 C208.85 92.2 208.79
						 92.52 208.79 93.04 L208.79 99.44 L209.97 99.44 C210.32 99.44 210.6 99.39 210.81 99.27 C211.02 99.16 211.19
						 98.98 211.32 98.74 C211.4 98.59 211.46 98.35 211.51 98 L211.74 98 L211.66 99.98 L204.78 99.98 ZM218.12 99.74
						 C218.34 99.74 218.51 99.72 218.62 99.66 C218.73 99.61 218.82 99.54 218.88 99.45 C218.94 99.36 218.97 99.26
						 218.97 99.14 C218.97 98.95 218.84 98.66 218.6 98.28 L216.94 95.69 L215.19 98.4 C214.94 98.78 214.81 99.05
						 214.81 99.2 C214.81 99.38 214.89 99.51 215.06 99.61 C215.22 99.7 215.4 99.74 215.59 99.74 L215.78 99.74
						 L215.78 99.98 L212.19 99.98 L212.19 99.74 C212.35 99.74 212.47 99.72 212.55 99.68 C212.86 99.54 213.06 99.41
						 213.16 99.31 C213.26 99.21 213.44 98.96 213.71 98.55 L216.01 95 L216.01 93.04 C216.01 92.56 215.97 92.26
						 215.88 92.13 C215.72 91.92 215.47 91.81 215.11 91.81 L214.81 91.81 L214.81 91.57 L218.41 91.57 L218.41 91.81
						 L218.13 91.81 C217.79 91.81 217.54 91.89 217.38 92.07 C217.26 92.2 217.2 92.52 217.2 93.04 L217.2 95.16
						 L219.23 98.32 C219.48 98.72 219.69 99.01 219.86 99.19 C220.03 99.37 220.21 99.5 220.42 99.6 C220.63 99.69
						 220.78 99.74 220.89 99.74 L221.05 99.74 L221.05 99.98 L218.12 99.98 L218.12 99.74 Z" class="st1"/>
		</g>
	</g>
</svg>
