<?xml version="1.0" encoding="UTF-8" standalone="no"?>
<!DOCTYPE svg PUBLIC "-//W3C//DTD SVG 1.1//EN" "http://www.w3.org/Graphics/SVG/1.1/DTD/svg11.dtd">
<!-- 由 Microsoft Visio, SVG Export 生成 华师 字标 蓝色.svg Page-1 -->
<svg xmlns="http://www.w3.org/2000/svg" xmlns:xlink="http://www.w3.org/1999/xlink" xmlns:ev="http://www.w3.org/2001/xml-events"
		xmlns:v="http://schemas.microsoft.com/visio/2003/SVGExtensions/" width="3.53912in" height="1.36737in"
		viewBox="0 0 254.817 98.4505" xml:space="preserve" color-interpolation-filters="sRGB" class="st4">
	<v:documentProperties v:langID="2052" v:metric="true" v:viewMarkup="false">
		<v:userDefs>
			<v:ud v:nameU="msvNoAutoConnect" v:val="VT0(1):26"/>
		</v:userDefs>
	</v:documentProperties>

	<style type="text/css">
	<![CDATA[
		.st1 {fill:#0c3b66;stroke:none;stroke-linecap:butt;stroke-width:0.1}
		.st2 {fill:#0c3b66}
		.st3 {stroke:none;stroke-linecap:butt;stroke-width:0.1}
		.st4 {fill:none;fill-rule:evenodd;font-size:12px;overflow:visible;stroke-linecap:square;stroke-miterlimit:3}
	]]>
	</style>

	<g v:mID="0" v:index="1" v:groupContext="foregroundPage">
		<title>页-1</title>
		<v:pageProperties v:drawingScale="0.0393701" v:pageScale="0.0393701" v:drawingUnits="24" v:shadowOffsetX="9"
				v:shadowOffsetY="-9"/>
		<g id="shape1-1" v:mID="1" v:groupContext="shape" transform="translate(187.848,151.497) scale(1,-1)">
			<title>path154</title>
			<path d="M0.92 97.89 C1.58 97.32 2.85 96.46 3.89 95.76 C4.91 95.07 6.53 94.24 7.18 94.24 C7.83 94.24 8.32 94.24 8.8 94.04
						 C9.29 93.84 9.83 93.67 10.34 93.67 C10.87 93.67 11.76 93.6 12.41 93.67 C13.07 93.73 13.55 93.64 12.82 92.84
						 C12.11 92.04 11.62 91.87 11.11 91.41 C10.59 90.94 10.49 91.05 10.21 90.91 C9.93 90.77 9.83 90.71 9.52 90.25
						 C9.21 89.78 8.56 89.08 7.7 88.99 C6.83 88.88 5.97 89.08 5.43 89.55 C4.88 90.01 4.71 89.75 4.23 90.55 C3.74
						 91.34 3.54 91.97 3.23 92.64 C2.92 93.3 2.65 93.8 2.16 94.4 C1.68 95 1.21 95.68 0.92 96.1 C0.75 96.35 0.57
						 96.35 0.41 96.64 C0.25 96.92 0.35 97.09 0.33 97.26 C0.31 97.44 0 97.59 0.1 97.85 C0.2 98.11 0.27 98.45 0.92
						 97.89 Z" class="st1"/>
		</g>
		<g id="shape2-3" v:mID="2" v:groupContext="shape" transform="translate(18.0419,116.476) scale(1,-1)">
			<title>path156</title>
			<path d="M15.28 95.59 C14.84 95.69 14.61 95.72 14.48 95.82 C14.36 95.93 14.19 95.95 13.84 95.72 C13.5 95.49 13.17 95.45
						 13.08 95.3 C12.99 95.14 12.86 95.09 12.62 94.95 C12.39 94.81 11.02 93.59 10.81 93.01 C10.59 92.43 10.55
						 91.97 10.59 91.58 C10.62 91.2 11.04 90.51 11.25 90.44 C11.44 90.37 11.54 90.39 11.8 90.11 C12.08 89.82 12.4
						 89.7 12.17 89.38 C11.94 89.07 11.95 89 11.58 89 C11.23 89 10.53 89.01 10.31 89.03 C10.1 89.05 9.71 88.79
						 9.69 88.58 C9.68 88.36 9.91 88.01 9.95 87.77 C9.98 87.52 10.22 87.43 10.44 87.15 C10.66 86.87 10.72 86.57
						 11.04 86.37 C11.37 86.18 11.48 86.17 11.68 86.15 C11.89 86.13 12.1 86.24 12.28 85.95 C12.46 85.67 12.5 85.6
						 12.45 85.32 C12.39 85.04 12.62 84.97 12.64 84.42 C12.66 83.88 12.66 82.81 12.66 82.42 C12.66 82.03 12.74
						 81.78 12.28 81.57 C11.83 81.37 10.75 80.87 10.3 80.73 C9.84 80.59 8.56 79.97 8.27 79.53 C7.98 79.09 8.02
						 78.79 7.84 78.64 C7.65 78.47 7.31 78.11 7.73 77.61 C8.14 77.12 8.29 77.09 8.46 76.79 C8.62 76.49 9.28 76.47
						 9.62 76.52 C9.97 76.58 10.5 76.72 10.77 77.01 C11.04 77.32 11.37 77.55 11.56 77.67 C11.74 77.79 12.21 77.81
						 12.79 77.77 C13.37 77.74 13.9 77.69 14.13 78.02 C14.38 78.36 14.63 78.76 14.75 79.11 C14.88 79.46 15.3 80.08
						 15.56 80.23 C15.81 80.4 16.27 80.54 16.25 80.02 C16.23 79.52 16.22 78.88 16.2 78.51 C16.18 78.14 15.81 77.95
						 15.85 77.37 C15.89 76.79 16.02 76.35 15.96 76 C15.9 75.64 15.87 75.38 16.02 75.27 C16.16 75.17 16.14 75.01
						 16.05 74.82 C15.96 74.62 15.96 74.34 15.74 74.06 C15.52 73.77 15.27 73.41 14.9 73.25 C14.54 73.09 14.15
						 73.04 13.53 72.7 C12.92 72.37 12.88 72.46 12.52 72.25 C12.16 72.04 12.01 71.88 11.77 71.84 C11.54 71.81
						 11.27 71.83 11.02 71.62 C10.77 71.41 10.53 71.26 10.3 71.19 C10.05 71.12 9.95 71.14 9.68 70.94 C9.4 70.75
						 9.08 70.58 8.87 70.54 C8.67 70.51 8.4 70.42 8.18 70.24 C7.96 70.06 7.67 70.05 7.43 69.84 C7.2 69.63 7 69.54
						 6.87 69.5 C6.75 69.47 6.49 69.29 6.31 69.13 C6.13 68.98 5.36 68.61 5.11 68.41 C4.85 68.22 4.71 68.22 4.54
						 68.17 C4.37 68.11 4.25 67.99 3.97 67.82 C3.7 67.64 3.41 67.46 3.14 67.37 C2.87 67.28 2.61 67.28 2.46 67.18
						 C2.32 67.07 2.01 67.04 1.63 67.04 C1.24 67.04 1.02 66.9 0.88 66.74 C0.74 66.58 0.35 66.39 0.37 66.09 C0.39
						 65.79 0.29 65.77 0.17 65.61 C0.04 65.46 0 65.07 0.18 64.95 C0.37 64.82 0.29 64.7 0.39 64.4 C0.47 64.1 0.53
						 63.85 0.72 63.62 C0.9 63.4 0.91 63.28 1.06 63.06 C1.21 62.85 1.39 62.78 1.57 62.71 C1.75 62.64 1.96 62.48
						 2.11 62.5 C2.28 62.52 2.45 62.15 2.71 62.18 C2.99 62.22 3.21 62.29 3.39 62.41 C3.58 62.54 3.74 62.52 3.92
						 62.5 C4.1 62.48 4.26 62.5 4.45 62.78 C4.63 63.06 5.19 63.45 5.56 63.87 C5.93 64.3 6.52 64.87 6.85 65.16
						 C7.18 65.44 7.51 65.63 7.85 65.97 C8.2 66.3 8.49 66.41 8.69 66.64 C8.89 66.86 9.04 66.9 9.16 66.97 C9.29
						 67.04 9.48 67.22 9.62 67.36 C9.76 67.5 9.93 67.46 10.1 67.62 C10.26 67.78 10.9 68.32 10.96 68.4 C11.04 68.47
						 11.25 68.51 11.41 68.62 C11.57 68.73 11.83 68.98 12.06 69.17 C12.3 69.37 12.86 69.75 13.43 70.12 C13.99
						 70.49 14.68 70.87 14.94 71.04 C15.19 71.19 15.65 71.23 15.67 70.87 C15.69 70.52 15.72 69.59 15.77 69.2 C15.83
						 68.82 15.96 68.45 15.87 68.2 C15.77 67.96 15.79 67.82 15.81 67.39 C15.83 66.97 15.89 66.51 15.58 66.18 C15.27
						 65.84 14.72 65.47 14.28 65.29 C13.84 65.12 13.81 65.05 13.46 64.8 C13.12 64.56 13.02 64.52 12.84 64.49 C12.66
						 64.45 12.5 64.42 12.36 64.22 C12.21 64.03 12.03 64 11.78 63.98 C11.56 63.96 11.52 63.93 11.23 63.7 C10.93
						 63.47 10.19 62.76 9.95 62.52 C9.71 62.27 9.61 62.11 9.62 61.69 C9.64 61.27 9.62 60.92 9.86 60.64 C10.1 60.35
						 10.36 60 10.64 59.81 C10.84 59.67 11.04 59.54 11.21 59.46 C11.37 59.37 11.64 59.25 11.87 59.09 C12.08 58.93
						 12.36 58.59 12.62 58.59 C12.9 58.59 13.24 58.65 13.43 58.61 C13.61 58.57 13.74 58.74 13.88 58.89 C14.03
						 59.05 14.21 59 14.38 59.21 C14.54 59.42 14.75 59.65 14.87 59.86 C14.98 60.07 15.23 60.55 15.43 60.74 C15.63
						 60.93 15.94 60.99 15.96 60.55 C15.98 60.11 15.92 59.88 15.9 59.69 C15.89 59.49 16.11 59.26 16.18 59.14 C16.25
						 59.02 16.23 58.75 16.22 58.42 C16.2 58.08 16.18 57.07 16.18 56.82 C16.18 56.57 16.22 56.36 16.07 56.19 C15.92
						 56.01 15.92 55.92 15.9 55.69 C15.89 55.46 15.9 55.06 15.76 54.88 C15.62 54.7 15.69 54.47 15.52 54.33 C15.36
						 54.2 15.27 53.98 15.07 53.79 C14.87 53.6 14.87 53.42 14.88 53.16 C14.9 52.89 14.94 52.7 15.03 52.59 C15.12
						 52.49 15.21 52.28 15.21 52.08 C15.21 51.89 15.34 51.64 15.43 51.56 C15.52 51.47 15.58 51.27 15.58 51.12
						 C15.58 50.96 15.67 50.84 15.77 50.7 C15.89 50.55 16.2 50.24 16.29 49.97 C16.37 49.71 16.51 49.46 16.67 49.39
						 C16.83 49.32 17.03 49.2 17.22 48.97 C17.4 48.74 17.6 48.53 17.73 48.53 C17.86 48.53 18.17 48.4 18.31 48.21
						 C18.46 48.02 18.71 48.11 18.94 48.09 C19.19 48.07 19.45 48.24 19.62 48.42 C19.79 48.6 20.27 49.08 20.27
						 49.39 C20.27 49.71 20.58 50.62 20.75 50.87 C20.91 51.12 20.97 51.62 20.97 52.08 C20.97 52.54 20.91 53.02
						 20.86 53.4 C20.8 53.79 20.87 54.69 20.87 54.99 C20.87 55.46 20.55 55.8 20.55 56.32 C20.55 56.64 20.63 57.54
						 20.57 57.82 C20.51 58.1 20.57 58.57 20.53 58.74 C20.49 58.89 20.37 59.3 20.27 59.54 C20.18 59.79 20.2 60.3
						 20.18 60.48 C20.17 60.65 20.05 60.92 20.07 61.25 C20.1 61.58 20.13 62.11 19.98 62.36 C19.84 62.61 19.84
						 63 19.87 63.29 C19.89 63.45 19.95 63.51 20.31 63.66 C20.67 63.82 21.06 63.96 21.31 64.09 C21.57 64.21 21.97
						 64.43 22.21 64.47 C22.44 64.51 23.17 65 23.5 65.33 C23.83 65.66 24.12 65.72 24.1 66.3 C24.08 66.88 23.77
						 67.37 23.44 67.64 C23.12 67.9 22.5 68.25 22.3 68.45 C22.1 68.64 21.92 68.64 21.49 68.66 C21.08 68.68 20.57
						 68.68 20.41 68.62 C20.24 68.57 20.13 68.38 19.97 68.34 C19.81 68.3 19.37 68.13 19.25 68.41 C19.15 68.69
						 18.91 69.43 18.88 70.1 C18.84 70.77 18.9 71.62 18.99 71.98 C19.08 72.35 19.25 72.65 19.25 72.65 C19.31 73
						 19.35 73.15 19.54 73.34 C19.75 73.53 20.13 73.85 20.43 73.99 C20.72 74.13 21.35 74.2 21.55 74.33 C21.76
						 74.45 22.22 74.52 22.46 74.64 C22.7 74.76 22.92 74.89 23.39 75.03 C23.87 75.17 24.29 75.43 24.58 75.45 C24.87
						 75.47 25.45 75.73 25.65 75.83 C25.85 75.94 26.21 75.86 26.47 75.91 C26.73 75.96 27.31 76.22 27.44 76.3 C27.56
						 76.37 27.93 76.29 28.07 76.38 C28.42 76.63 28.76 76.47 29.06 76.54 C29.35 76.61 29.8 76.82 30.03 76.98 C30.24
						 77.14 30.66 77.23 30.84 77.21 C31.02 77.19 31.61 77.7 31.79 78.02 C31.97 78.34 32.29 78.81 32.23 79.41 C32.15
						 80.01 31.81 80.09 31.48 80.29 C31.15 80.48 30.71 80.8 30.57 80.89 C30.42 80.98 30.28 81.17 29.93 80.94 C29.58
						 80.71 29.11 80.64 28.73 80.48 C28.34 80.32 28.04 80.69 27.62 80.29 C27.19 79.88 26.66 79.67 26.34 79.6 C26.04
						 79.53 25.87 79.34 25.46 79.18 C25.06 79.02 25.16 79.13 24.74 78.94 C24.32 78.74 24.14 78.65 23.83 78.5 C23.52
						 78.34 22.84 77.84 22.35 77.74 C21.87 77.63 20.82 76.98 20.51 76.82 C20.2 76.67 19.62 76.69 19.69 77.16 C19.77
						 77.63 19.73 78.11 19.85 78.23 C19.98 78.36 20.05 78.62 20.07 79 C20.1 79.39 20.31 79.73 20.55 80.17 C20.79
						 80.6 21.01 81.28 21.29 81.66 C21.59 82.05 21.51 82.27 21.76 82.61 C21.99 82.94 21.99 83.05 22.5 83.23 C23.01
						 83.41 24.27 84.16 24.68 84.41 C25.1 84.65 25.87 85.06 26.21 85.28 C26.56 85.51 27.77 86.18 27.98 86.43 C28.2
						 86.68 28.62 86.91 28.58 87.45 C28.54 88 28.39 88.21 27.93 88.36 C27.48 88.52 27.62 88.59 27.12 88.59 C26.64
						 88.59 26.28 88.54 25.92 88.14 C25.56 87.73 25.38 87.28 25.08 87.1 C24.8 86.92 24.47 86.78 24.38 86.97 C24.29
						 87.17 24.34 87.28 24.54 87.64 C24.74 88.01 24.96 88.33 24.89 88.72 C24.81 89.1 24.84 89.58 24.54 89.72 C24.23
						 89.86 24.12 90.11 23.72 89.84 C23.32 89.58 23.04 89.28 22.86 88.89 C22.69 88.5 22.44 87.78 22.52 87.28 C22.59
						 86.76 22.59 86.52 22.3 86.29 C22.01 86.06 22.03 85.66 21.64 85.71 C21.26 85.76 20.95 86.15 20.58 86.43 C20.22
						 86.71 19.42 87.04 19.31 87.24 C19.21 87.43 18.91 87.41 18.63 87.1 C18.37 86.78 17.86 86.29 17.73 85.9 C17.6
						 85.51 17.49 85.27 17.29 85 C17.09 84.74 16.76 83.99 16.54 83.79 C16.32 83.6 16.11 83.39 15.87 83.45 C15.63
						 83.53 15.81 83.58 15.54 83.91 C15.27 84.25 15.27 84.28 15.25 84.53 C15.23 84.77 15.5 84.95 15.36 85.09 C15.21
						 85.23 15.34 85.62 15.47 85.87 C15.6 86.11 15.72 86.52 15.79 87.06 C15.85 87.45 15.85 87.98 16.32 88.24 C16.8
						 88.5 19.53 89.95 19.85 90.18 C20.18 90.41 20.49 90.28 20.75 90.5 C21.01 90.71 21.29 91.11 21.68 91.26 C22.07
						 91.43 22.65 91.85 22.94 92.02 C23.23 92.2 23.57 92.59 24.12 92.96 C24.66 93.33 25.72 93.89 26.14 94.29 C26.56
						 94.7 28.22 95.84 28.42 96.28 C28.62 96.72 28.8 97 28.47 97.44 C28.14 97.88 28.16 98.01 27.7 97.99 C27.26
						 97.97 27.29 98.09 27.09 98.24 C26.88 98.37 26.76 98.45 26.54 98.27 C26.32 98.09 26.14 97.96 25.87 98.01
						 C25.6 98.06 25.4 97.9 25.16 97.71 C24.93 97.51 24.52 97.44 24.02 96.9 C23.54 96.36 22.24 94.96 21.9 94.47
						 C21.29 93.61 20.64 93.45 20.29 93.06 C19.66 92.32 18.77 92.17 18.32 91.74 C17.8 91.23 17.55 91.34 17.18
						 91.05 C16.82 90.77 16.45 90.64 16.23 90.95 C16.02 91.26 16.18 91.65 16.36 91.89 C16.54 92.12 16.49 92.6
						 16.47 93.19 C16.45 93.77 16.52 94.24 16.22 94.56 C15.9 94.87 15.92 95.44 15.28 95.59 Z" class="st1"/>
		</g>
		<g id="shape3-5" v:mID="3" v:groupContext="shape" transform="translate(56.1639,122.778) scale(1,-1)">
			<title>path158</title>
			<path d="M13.9 97.61 C13.71 96.14 14.13 96.11 14.13 95.37 C14.13 94.62 14.22 92.56 14.19 92.09 C14.16 91.62 13.86 91.51
						 13.93 90.91 C13.99 90.32 13.83 88.39 13.77 87.92 C13.71 87.45 13.64 87.2 13.57 86.89 C13.51 86.58 13.61
						 86.52 13.06 86.11 C12.52 85.71 10.96 84.9 10.32 84.62 C9.67 84.34 8 83.72 7.55 83.68 C7.1 83.65 6.83 83.81
						 6.1 84 C5.35 84.19 4.87 84.25 4.16 83.9 C3.45 83.56 3.29 83.41 3.48 82.5 C3.67 81.6 4.55 81.13 5.04 80.82
						 C5.51 80.5 7.64 79.51 8.83 79.51 C10.03 79.51 11.12 79.67 10.99 79.26 C10.87 78.85 10.74 78.79 10.67 78.36
						 C10.61 77.92 10.35 77.49 10.09 77.11 C9.84 76.74 10.16 76.52 9.29 75.96 C8.42 75.4 7.48 75.12 7.16 74.87
						 C6.83 74.62 6 74.53 5.42 74.34 C4.84 74.15 4.45 74 4.1 73.75 C3.74 73.5 3.2 73.18 2.48 73.16 C1.77 73.13
						 1.39 73.22 1.19 72.29 C1 71.35 0.97 70.26 0.74 69.23 C0.52 68.2 0.1 66.84 0.13 65.71 C0.16 64.59 0 63.1
						 0.94 61.6 C1.87 60.11 2.45 59.95 3.03 60.05 C3.62 60.14 4.65 60.67 4.81 61.41 C4.96 62.16 4.93 63.1 4.9
						 64.43 C4.87 65.77 4.77 65.93 4.74 66.34 C4.71 66.74 4.74 67.02 4.29 67.3 C3.84 67.58 3.71 67.68 3.62 68.14
						 C3.52 68.61 3.29 68.55 3.35 69.45 C3.42 70.35 3.39 70.83 4.32 71.42 C5.26 72 7.42 73.13 7.97 73.37 C8.51
						 73.62 8.83 73.75 9.03 73.18 C9.22 72.63 9.19 72.31 9.36 71.91 C9.51 71.51 9.77 71.16 10 70.94 C10.22 70.73
						 10.29 70.7 10.84 70.73 C11.38 70.76 11.96 70.79 12.35 71.04 C12.74 71.29 12.77 71.1 13.22 71.6 C13.67 72.1
						 13.97 72.38 14.35 72.66 C14.74 72.94 15.09 73.04 15.06 72.53 C15.03 72.04 15.22 71.75 14.77 71.44 C14.32
						 71.13 13.74 70.94 13.16 70.64 C12.57 70.32 12.54 70.39 12.22 70.26 C11.9 70.14 11.93 70.05 11.84 69.86 C11.74
						 69.67 11.41 69.79 11.41 69.36 C11.41 68.92 11.16 68.27 11.68 68.08 C12.19 67.89 12.74 67.68 12.29 67.3 C11.84
						 66.93 10.87 65.93 10.58 65.53 C10.29 65.12 10.16 65.06 10.16 64.31 C10.16 63.56 10.35 62.94 10.8 62.88 C11.26
						 62.82 11.93 62.79 12.35 62.75 C12.77 62.73 13.09 62.73 13.03 62.32 C12.96 61.92 13 61.29 13.28 60.88 C13.57
						 60.48 13.19 60.17 14.13 60.17 C15.06 60.17 15.9 60.6 16.42 61.57 C16.93 62.54 17.41 63.44 17.54 64.03 C17.67
						 64.62 17.67 64.81 18.26 64.84 C18.83 64.87 19.19 65.16 19.73 64.59 C20.99 63.29 22.35 62.51 22.73 61.97
						 C23.12 61.45 23.92 60.57 24.44 60.27 C24.96 59.95 25.6 59.61 26.09 60.32 C26.57 61.04 26.76 61.14 26.89
						 62.13 C27.02 63.13 26.73 64.69 26.96 66.37 C27.19 68.05 27.7 72.13 28.12 74.62 C28.53 77.11 29.12 81.1 29.63
						 81.91 C30.15 82.72 30.28 83.47 30.21 84.03 C30.15 84.59 29.44 85.3 28.83 85.65 C28.22 85.99 27.77 86.08
						 26.73 85.55 C25.7 85.03 24.96 84.9 23.92 83.59 C23.29 82.78 22.32 82.72 21.35 82.13 C20.38 81.53 16.22 79.42
						 15.51 79.07 C14.8 78.74 14.35 78.98 14.74 79.73 C15.12 80.48 15.96 81.69 16.28 82.16 C16.61 82.63 16.73
						 82.6 17.7 83.09 C19.48 84 20.96 85.43 21.54 86.02 C22.12 86.61 23.35 87.73 23.67 88.32 C23.99 88.92 24.15
						 89.48 23.86 89.85 C23.57 90.22 22.93 90.48 22.57 90.66 C22.22 90.84 22.12 90.84 21.57 90.51 C21.02 90.16
						 20.35 89.73 19.86 89.48 C19.38 89.23 18.99 89.51 19.19 90.1 C19.38 90.69 19.64 91.38 19.83 91.97 C20.02
						 92.56 19.99 92.87 19.48 93.59 C18.96 94.3 15.93 97.14 15.44 97.79 C14.96 98.45 14 98.44 13.9 97.61 ZM12.64
						 75.74 C13.32 76.15 13.9 76.18 14.41 76.49 C14.93 76.8 15.84 77.24 16.32 77.49 C16.8 77.74 17.48 77.64 16.89
						 77.11 C16.32 76.58 15.25 75.9 14.64 75.55 C14.02 75.21 13.71 75.06 13.32 75.03 C12.93 74.99 12.96 74.68
						 12.48 74.81 C11.99 74.93 11.96 75.34 12.64 75.74 ZM20.86 79.73 C21.79 80.21 24.19 81.41 25.15 81.78 C26.12
						 82.16 26.05 82.28 26.05 81.28 C26.05 80.29 26.12 78.64 25.9 77.64 C25.66 76.64 25.79 75.37 25.22 73.78 C24.82
						 72.69 24.93 71.57 24.9 71.29 C24.86 71.01 24.66 70.7 24.57 69.86 C24.47 69.01 24.19 68.33 24.09 67.24 C23.99
						 66.15 23.8 65.93 23.73 65.34 C23.67 64.75 23.73 64.38 23.12 64.53 C22.5 64.69 20.41 65.56 20.02 65.87 C19.64
						 66.18 19.55 66.3 19.77 66.68 C19.99 67.05 19.86 67.4 19.89 67.77 C19.93 68.14 20.12 68.08 19.6 68.46 C19.09
						 68.83 18.83 69.23 18.74 69.42 C18.63 69.61 18.71 69.64 18.96 70.05 C19.22 70.45 19.22 70.76 19.22 71.19
						 C19.22 71.63 18.96 72.07 18.54 72.07 C18.12 72.07 17.9 72.29 18.26 72.94 C18.6 73.59 21.05 75.87 21.67 76.49
						 C22.28 77.11 22.89 77.92 22.25 78.29 C21.61 78.67 21.22 79.04 20.89 79.2 C20.58 79.36 20.38 79.48 20.86
						 79.73 Z" class="st1"/>
		</g>
		<g id="shape4-7" v:mID="4" v:groupContext="shape" transform="translate(132.331,124.077) scale(1,-1)">
			<title>path160</title>
			<path d="M4.8 93.25 C4.13 92.66 3.75 92.22 3.28 91.74 C2.82 91.26 2.04 90.2 1.97 89.65 C1.9 89.1 1.85 88.85 1.69 88.58
						 C1.5 88.3 1.61 88.13 1.61 87.73 C1.61 87.31 1.69 87.17 1.78 87 C1.9 86.83 1.88 86.78 1.88 86.54 C1.88 86.28
						 2.1 86.13 2.32 85.92 C2.54 85.71 2.82 85.23 3.23 85.23 C3.63 85.23 4.02 85.29 4.27 85.27 C4.5 85.25 4.65
						 85.48 4.88 85.65 C5.1 85.83 5.52 86.15 5.67 86.43 C6.08 87.14 6.01 87.75 6.12 88.03 C6.22 88.31 6.53 88.71
						 6.78 89.01 C7.01 89.31 7.14 89.93 6.79 89.98 C6.45 90.04 6.03 89.91 6.04 90.46 C6.06 91.01 6.08 91.56 6.21
						 91.83 C6.34 92.1 6.61 92.47 6.5 92.73 C6.39 93 6.31 93.43 5.91 93.49 C5.52 93.54 5.24 93.64 4.8 93.25 ZM9.35
						 92.04 C9.61 92.4 9.65 92.5 10.09 92.83 C10.53 93.17 11.34 93.54 11.87 93.5 C12.4 93.47 12.38 93.45 12.73
						 93.26 C13.08 93.06 13.42 92.9 13.68 93.06 C13.93 93.22 14.24 93.28 14.51 93.19 C14.79 93.1 14.91 93.15 15.13
						 93.28 C15.35 93.4 15.46 93.4 15.77 93.11 C16.08 92.83 16.26 92.64 15.95 92.32 C15.65 92.01 15.46 91.97 15.53
						 91.5 C15.6 91.02 15.71 90.63 15.41 90.32 C15.18 90.09 15.13 89.68 14.75 89.31 C14.37 88.95 14.26 88.92 13.81
						 88.91 C13.34 88.89 12.79 88.91 12.27 89.18 C11.76 89.44 10.43 90.6 10.09 90.67 C9.74 90.74 9.16 90.97 9.06
						 91.38 C8.97 91.78 9.06 91.69 9.35 92.04 ZM21.16 97.27 C21.66 97.62 22.48 97.91 23.2 98.1 C23.92 98.28 24.36
						 98.45 24.89 98.23 C25.41 98 26.31 97.62 26.34 96.88 C26.39 96.12 26.41 95.84 26.02 95.2 C25.62 94.56 25.12
						 94.06 24.5 93.82 C23.87 93.57 23.51 93.65 23.16 93.55 C22.81 93.46 22.58 93.51 22.14 93.23 C21.72 92.95
						 20.5 92.99 20.13 92.93 C19.75 92.88 19.45 93.25 19.78 93.55 C20.11 93.85 20.69 93.91 21.08 94.6 C21.26 94.94
						 21.8 95.13 21.29 95.39 C21.02 95.54 20.88 95.69 20.83 95.97 C20.77 96.26 20.42 96.42 20.52 96.65 C20.61
						 96.88 20.65 96.91 21.16 97.27 ZM9.57 85.91 C9.57 86.22 9.79 86.72 10.05 86.58 C10.31 86.45 10.73 86.22 11.14
						 86.02 C11.55 85.81 11.7 85.66 11.95 85.6 C12.22 85.55 12.47 85.44 12.45 85 C12.43 84.57 12.47 84.27 12.26
						 84.2 C12.07 84.12 12.14 83.97 12.2 83.78 C12.25 83.59 12.35 83.41 12.71 83.47 C13.09 83.52 13.19 83.67 13.54
						 83.67 C13.92 83.67 14.04 83.71 14.27 83.47 C14.5 83.22 14.87 83.07 14.83 82.73 C14.8 82.39 14.7 82.2 14.37
						 81.73 C14.04 81.27 13.77 80.74 13.51 80.36 C13.26 79.99 13.22 80.01 13.03 79.67 C12.84 79.33 12.82 79.37
						 12.84 79 C12.86 78.62 12.76 78.22 13.31 77.96 C13.88 77.69 14.04 77.71 14 77.1 C13.96 76.48 13.98 76.11
						 14 75.69 C14.02 75.25 13.92 74.96 13.67 74.67 C13.24 74.2 11.78 73.02 11.35 72.53 C10.93 72.04 10.75 72.02
						 10.75 71.65 C10.75 71.27 10.73 70.97 10.62 70.88 C10.5 70.78 10.48 70.73 10.5 70.28 C10.52 69.82 10.56 67.85
						 10.54 67.12 C10.52 66.39 10.38 66.18 10.27 66.09 C10.15 65.99 10.15 65.85 10.19 65.62 C10.22 65.39 10.17
						 65.11 10.07 64.92 C9.98 64.73 9.98 64.36 10 63.89 C10.05 63.42 9.98 62.84 9.96 62.5 C9.94 62.17 9.6 61.5
						 9.36 61.3 C9.1 61.09 8.81 61.07 8.45 61.07 C8.11 61.07 7.81 61.31 7.54 61.56 C7.27 61.81 7.23 62.12 7.23
						 62.43 C7.23 62.73 7.21 63.14 7.06 63.33 C6.9 63.52 6.91 63.82 6.9 63.99 C6.88 64.15 6.86 64.34 6.67 64.55
						 C6.48 64.75 6.46 64.89 6.42 65.3 C6.38 65.71 6.72 66.39 7.02 66.65 C7.31 66.92 7.33 67.12 7.33 67.33 C7.33
						 67.69 7.66 67.65 7.64 68.02 C7.62 68.4 7.8 68.68 7.83 69.06 C7.87 69.43 7.91 69.71 7.87 69.92 C7.83 70.13
						 7.74 70.28 7.52 70.16 C7.31 70.05 7.23 69.69 6.96 69.64 C6.68 69.58 6.27 69.51 6.03 69.27 C5.78 69.02 4.7
						 68.42 4.28 68.1 C3.86 67.78 2.69 67.14 2.36 66.92 C2.03 66.69 1.7 66.48 1.25 66.78 C0.8 67.08 0.48 67.07
						 0.36 67.65 C0.24 68.12 0 68.15 0.24 68.57 C0.36 68.78 0.44 68.78 0.44 69.11 C0.44 69.45 0.31 69.77 0.61
						 70.01 C0.89 70.26 2.43 71.55 2.76 71.92 C3.09 72.27 3.4 72.38 3.59 72.57 C3.76 72.76 3.94 72.87 4.19 72.81
						 C4.43 72.76 4.66 72.6 4.45 72.32 C4.25 72.04 4.28 71.66 4.59 71.63 C4.9 71.59 5.39 71.61 5.8 71.73 C6.21
						 71.83 7.45 72.18 7.97 72.87 C8.22 73.2 8.05 73.57 7.7 73.41 C7.35 73.26 6.68 73.17 6.36 73.24 C6.03 73.32
						 5.65 73.76 5.99 74.05 C6.31 74.36 7.99 75.27 8.32 75.48 C8.66 75.69 8.78 76.01 8.51 76.22 C8.24 76.42 7.72
						 76.83 7.52 77.19 C7.33 77.54 7.29 77.62 7.56 77.85 C7.83 78.07 8.66 78.52 8.89 78.71 C9.12 78.9 9.16 79.11
						 9.32 79.31 C9.6 79.71 9.45 80.04 9.12 79.92 C8.78 79.78 8.53 79.57 8.18 79.31 C7.83 79.05 6.84 78.21 6.51
						 77.87 C6.18 77.53 5.22 76.59 4.64 76.31 C4.09 76.02 3.76 75.91 3.46 75.71 C3.17 75.5 3.01 75.59 2.65 75.83
						 C2.28 76.08 2.09 76.34 1.92 76.55 C1.74 76.75 1.85 76.92 1.85 77.19 C1.85 77.45 2.09 77.58 2.1 77.88 C2.13
						 78.19 2.01 78.48 2.33 78.71 C2.63 78.94 3.01 79.29 3.27 79.44 C3.52 79.59 3.78 79.65 4.07 79.55 C4.35 79.46
						 4.84 79.35 5.09 79.46 C5.35 79.57 5.48 79.65 5.88 79.67 C6.13 79.68 6.22 79.78 6.59 80.01 C6.96 80.23 7.6
						 80.67 7.97 80.95 C8.34 81.23 8.68 81.27 8.85 81.29 C9.03 81.3 9.26 81.49 9.4 81.64 C9.57 81.79 9.9 82.01
						 9.72 82.3 C9.55 82.58 9.39 82.58 9.06 82.58 C8.74 82.58 8.24 82.77 8.03 82.92 C7.81 83.07 7.66 83.44 7.91
						 83.65 C8.16 83.85 8.91 84.31 9.19 84.51 C9.49 84.72 9.72 85 9.72 85.23 C9.72 85.45 9.57 85.58 9.57 85.91
						 ZM12.17 81.13 C12.25 81.36 12.78 81.32 12.66 80.95 C12.55 80.57 12.44 80.55 12.3 80.32 C12.09 79.97 11.9
						 80.08 11.86 80.36 C11.83 80.58 11.94 80.67 12.05 80.8 C12.14 80.92 8.92 81.86 8.97 82 L12.17 81.13 ZM11.2
						 75.63 C11.41 75.87 11.63 75.83 11.72 75.69 C11.86 75.47 11.84 75.35 11.64 75.2 C11.45 75.03 11.21 74.86
						 11.05 75.05 C10.91 75.23 10.9 75.31 11.2 75.63 ZM21.53 87.54 C22.07 87.9 23.58 88.68 24.03 88.87 C24.46
						 89.06 24.74 88.99 25.19 88.86 C25.84 88.67 26.43 87.93 26.72 87.61 C26.99 87.29 27.06 86.56 26.93 86.12
						 C26.82 85.68 26.35 85 26.01 84.51 C25.44 83.67 24.51 83.14 24.21 82.67 C23.9 82.2 23.54 81.61 23.32 81.33
						 C23.1 81.05 23.14 81 23.13 80.6 C23.11 80.21 23.08 79.73 23.17 79.46 C23.26 79.2 23.54 78.93 23.47 78.52
						 C23.42 78.11 23.04 77.34 22.52 77.23 C21.99 77.11 21.45 77.27 21.13 77.52 C20.81 77.78 20.36 78.24 20.35
						 79 C20.33 79.76 20.43 80.66 20.46 81.08 C20.49 81.5 20.52 81.74 20.79 82.14 C21.07 82.53 22.39 83.95 22.68
						 84.76 C22.81 85.14 22.93 85.58 22.5 85.82 C22.09 86.06 21.88 86.34 21.38 86.42 C20.89 86.51 20.63 86.92
						 21.53 87.54 ZM17.4 80.17 C17.38 79.45 17.02 79.27 17.04 78.89 C17.06 78.56 17.16 78.15 17.02 78.01 C16.88
						 77.87 16.85 77.8 16.82 77.52 C16.8 77.24 16.7 77.14 16.66 76.84 C16.61 76.54 16.59 75.28 16.56 74.56 C16.54
						 73.84 16.17 73.09 16.03 72.23 C15.89 71.42 15.94 70.85 15.89 69.74 C15.84 68.73 16.15 68.61 16.69 68.04
						 C17.21 67.45 17.98 66.83 18.32 66.71 C18.66 66.59 19.02 66.56 19.28 66.59 C19.55 66.62 19.57 66.36 20.3
						 66.38 C21.02 66.4 27 66.47 28.07 66.45 C29.12 66.43 30.16 66.55 30.7 66.94 C31.23 67.34 31.83 67.87 31.98
						 68.34 C32.12 68.81 32.27 69.34 32.04 69.78 C31.69 70.51 31.49 70.99 31.18 71.46 C30.87 71.93 30.77 72.18
						 30.74 72.56 C30.71 72.93 30.55 73.39 30.28 73.75 C30.02 74.09 30.02 74.51 30.02 74.79 C30.02 75.07 29.66
						 75.98 29.37 76.19 C29.08 76.4 28.55 76.66 28.55 75.91 C28.55 75.17 28.64 74.58 28.62 74.23 C28.6 73.88 28.67
						 73.75 28.77 73.6 C28.86 73.47 28.91 73.28 28.91 72.95 C28.91 72.62 28.91 71.21 28.96 70.74 C29.01 70.27
						 28.91 69.9 28.4 69.76 C27.9 69.62 27.68 69.55 27.52 69.43 C27.34 69.32 27.03 69.38 26.84 69.38 C26.64 69.38
						 26.57 69.18 26.43 69.13 C26.28 69.09 25.31 69.15 25.07 69.15 C24.62 69.15 24.79 68.92 24.4 68.92 C24.08
						 68.92 22.15 68.97 21.81 68.92 C21.48 68.88 21.24 69.18 20.88 69.18 C20.52 69.18 20.21 69.09 19.91 69.32
						 C19.62 69.55 19.22 69.53 19.22 70.11 C19.22 70.69 19.24 72.04 19.28 72.51 C19.33 72.98 19.43 73.35 19.62
						 73.58 C19.82 73.81 19.82 74.05 19.8 74.26 C19.77 74.46 19.99 74.37 19.99 74.72 C19.99 75.07 20.03 75.51
						 20.03 75.91 C20.03 76.31 19.77 76.84 19.74 77.05 C19.72 77.26 19.55 77.48 19.41 77.68 C19.26 77.89 19.24
						 78.12 19.26 78.38 C19.28 78.64 19.05 79.2 18.83 79.54 C18.62 79.9 18.81 79.94 18.49 80.2 C18.18 80.46 17.43
						 81.03 17.4 80.17 Z" class="st2"/>
			<path d="M4.8 93.25 C4.13 92.66 3.75 92.22 3.28 91.74 C2.82 91.26 2.04 90.2 1.97 89.65 C1.9 89.1 1.85 88.85 1.69 88.58
						 C1.5 88.3 1.61 88.13 1.61 87.73 C1.61 87.31 1.69 87.17 1.78 87 C1.9 86.83 1.88 86.78 1.88 86.54 C1.88 86.28
						 2.1 86.13 2.32 85.92 C2.54 85.71 2.82 85.23 3.23 85.23 C3.63 85.23 4.02 85.29 4.27 85.27 C4.5 85.25 4.65
						 85.48 4.88 85.65 C5.1 85.83 5.52 86.15 5.67 86.43 C6.08 87.14 6.01 87.75 6.12 88.03 C6.22 88.31 6.53 88.71
						 6.78 89.01 C7.01 89.31 7.14 89.93 6.79 89.98 C6.45 90.04 6.03 89.91 6.04 90.46 C6.06 91.01 6.08 91.56 6.21
						 91.83 C6.34 92.1 6.61 92.47 6.5 92.73 C6.39 93 6.31 93.43 5.91 93.49 C5.52 93.54 5.24 93.64 4.8 93.25M9.35
						 92.04 C9.61 92.4 9.65 92.5 10.09 92.83 C10.53 93.17 11.34 93.54 11.87 93.5 C12.4 93.47 12.38 93.45 12.73
						 93.26 C13.08 93.06 13.42 92.9 13.68 93.06 C13.93 93.22 14.24 93.28 14.51 93.19 C14.79 93.1 14.91 93.15 15.13
						 93.28 C15.35 93.4 15.46 93.4 15.77 93.11 C16.08 92.83 16.26 92.64 15.95 92.32 C15.65 92.01 15.46 91.97 15.53
						 91.5 C15.6 91.02 15.71 90.63 15.41 90.32 C15.18 90.09 15.13 89.68 14.75 89.31 C14.37 88.95 14.26 88.92 13.81
						 88.91 C13.34 88.89 12.79 88.91 12.27 89.18 C11.76 89.44 10.43 90.6 10.09 90.67 C9.74 90.74 9.16 90.97 9.06
						 91.38 C8.97 91.78 9.06 91.69 9.35 92.04M21.16 97.27 C21.66 97.62 22.48 97.91 23.2 98.1 C23.92 98.28 24.36
						 98.45 24.89 98.23 C25.41 98 26.31 97.62 26.34 96.88 C26.39 96.12 26.41 95.84 26.02 95.2 C25.62 94.56 25.12
						 94.06 24.5 93.82 C23.87 93.57 23.51 93.65 23.16 93.55 C22.81 93.46 22.58 93.51 22.14 93.23 C21.72 92.95
						 20.5 92.99 20.13 92.93 C19.75 92.88 19.45 93.25 19.78 93.55 C20.11 93.85 20.69 93.91 21.08 94.6 C21.26 94.94
						 21.8 95.13 21.29 95.39 C21.02 95.54 20.88 95.69 20.83 95.97 C20.77 96.26 20.42 96.42 20.52 96.65 C20.61
						 96.88 20.65 96.91 21.16 97.27M9.57 85.91 C9.57 86.22 9.79 86.72 10.05 86.58 C10.31 86.45 10.73 86.22 11.14
						 86.02 C11.55 85.81 11.7 85.66 11.95 85.6 C12.22 85.55 12.47 85.44 12.45 85 C12.43 84.57 12.47 84.27 12.26
						 84.2 C12.07 84.12 12.14 83.97 12.2 83.78 C12.25 83.59 12.35 83.41 12.71 83.47 C13.09 83.52 13.19 83.67 13.54
						 83.67 C13.92 83.67 14.04 83.71 14.27 83.47 C14.5 83.22 14.87 83.07 14.83 82.73 C14.8 82.39 14.7 82.2 14.37
						 81.73 C14.04 81.27 13.77 80.74 13.51 80.36 C13.26 79.99 13.22 80.01 13.03 79.67 C12.84 79.33 12.82 79.37
						 12.84 79 C12.86 78.62 12.76 78.22 13.31 77.96 C13.88 77.69 14.04 77.71 14 77.1 C13.96 76.48 13.98 76.11
						 14 75.69 C14.02 75.25 13.92 74.96 13.67 74.67 C13.24 74.2 11.78 73.02 11.35 72.53 C10.93 72.04 10.75 72.02
						 10.75 71.65 C10.75 71.27 10.73 70.97 10.62 70.88 C10.5 70.78 10.48 70.73 10.5 70.28 C10.52 69.82 10.56 67.85
						 10.54 67.12 C10.52 66.39 10.38 66.18 10.27 66.09 C10.15 65.99 10.15 65.85 10.19 65.62 C10.22 65.39 10.17
						 65.11 10.07 64.92 C9.98 64.73 9.98 64.36 10 63.89 C10.05 63.42 9.98 62.84 9.96 62.5 C9.94 62.17 9.6 61.5
						 9.36 61.3 C9.1 61.09 8.81 61.07 8.45 61.07 C8.11 61.07 7.81 61.31 7.54 61.56 C7.27 61.81 7.23 62.12 7.23
						 62.43 C7.23 62.73 7.21 63.14 7.06 63.33 C6.9 63.52 6.91 63.82 6.9 63.99 C6.88 64.15 6.86 64.34 6.67 64.55
						 C6.48 64.75 6.46 64.89 6.42 65.3 C6.38 65.71 6.72 66.39 7.02 66.65 C7.31 66.92 7.33 67.12 7.33 67.33 C7.33
						 67.69 7.66 67.65 7.64 68.02 C7.62 68.4 7.8 68.68 7.83 69.06 C7.87 69.43 7.91 69.71 7.87 69.92 C7.83 70.13
						 7.74 70.28 7.52 70.16 C7.31 70.05 7.23 69.69 6.96 69.64 C6.68 69.58 6.27 69.51 6.03 69.27 C5.78 69.02 4.7
						 68.42 4.28 68.1 C3.86 67.78 2.69 67.14 2.36 66.92 C2.03 66.69 1.7 66.48 1.25 66.78 C0.8 67.08 0.48 67.07
						 0.36 67.65 C0.24 68.12 0 68.15 0.24 68.57 C0.36 68.78 0.44 68.78 0.44 69.11 C0.44 69.45 0.31 69.77 0.61
						 70.01 C0.89 70.26 2.43 71.55 2.76 71.92 C3.09 72.27 3.4 72.38 3.59 72.57 C3.76 72.76 3.94 72.87 4.19 72.81
						 C4.43 72.76 4.66 72.6 4.45 72.32 C4.25 72.04 4.28 71.66 4.59 71.63 C4.9 71.59 5.39 71.61 5.8 71.73 C6.21
						 71.83 7.45 72.18 7.97 72.87 C8.22 73.2 8.05 73.57 7.7 73.41 C7.35 73.26 6.68 73.17 6.36 73.24 C6.03 73.32
						 5.65 73.76 5.99 74.05 C6.31 74.36 7.99 75.27 8.32 75.48 C8.66 75.69 8.78 76.01 8.51 76.22 C8.24 76.42 7.72
						 76.83 7.52 77.19 C7.33 77.54 7.29 77.62 7.56 77.85 C7.83 78.07 8.66 78.52 8.89 78.71 C9.12 78.9 9.16 79.11
						 9.32 79.31 C9.6 79.71 9.45 80.04 9.12 79.92 C8.78 79.78 8.53 79.57 8.18 79.31 C7.83 79.05 6.84 78.21 6.51
						 77.87 C6.18 77.53 5.22 76.59 4.64 76.31 C4.09 76.02 3.76 75.91 3.46 75.71 C3.17 75.5 3.01 75.59 2.65 75.83
						 C2.28 76.08 2.09 76.34 1.92 76.55 C1.74 76.75 1.85 76.92 1.85 77.19 C1.85 77.45 2.09 77.58 2.1 77.88 C2.13
						 78.19 2.01 78.48 2.33 78.71 C2.63 78.94 3.01 79.29 3.27 79.44 C3.52 79.59 3.78 79.65 4.07 79.55 C4.35 79.46
						 4.84 79.35 5.09 79.46 C5.35 79.57 5.48 79.65 5.88 79.67 C6.13 79.68 6.22 79.78 6.59 80.01 C6.96 80.23 7.6
						 80.67 7.97 80.95 C8.34 81.23 8.68 81.27 8.85 81.29 C9.03 81.3 9.26 81.49 9.4 81.64 C9.57 81.79 9.9 82.01
						 9.72 82.3 C9.55 82.58 9.39 82.58 9.06 82.58 C8.74 82.58 8.24 82.77 8.03 82.92 C7.81 83.07 7.66 83.44 7.91
						 83.65 C8.16 83.85 8.91 84.31 9.19 84.51 C9.49 84.72 9.72 85 9.72 85.23 C9.72 85.45 9.57 85.58 9.57 85.91M12.17
						 81.13 C12.25 81.36 12.78 81.32 12.66 80.95 C12.55 80.57 12.44 80.55 12.3 80.32 C12.09 79.97 11.9 80.08 11.86
						 80.36 C11.83 80.58 11.94 80.67 12.05 80.8 C12.14 80.92 8.92 81.86 8.97 82M11.2 75.63 C11.41 75.87 11.63
						 75.83 11.72 75.69 C11.86 75.47 11.84 75.35 11.64 75.2 C11.45 75.03 11.21 74.86 11.05 75.05 C10.91 75.23
						 10.9 75.31 11.2 75.63M21.53 87.54 C22.07 87.9 23.58 88.68 24.03 88.87 C24.46 89.06 24.74 88.99 25.19 88.86
						 C25.84 88.67 26.43 87.93 26.72 87.61 C26.99 87.29 27.06 86.56 26.93 86.12 C26.82 85.68 26.35 85 26.01 84.51
						 C25.44 83.67 24.51 83.14 24.21 82.67 C23.9 82.2 23.54 81.61 23.32 81.33 C23.1 81.05 23.14 81 23.13 80.6
						 C23.11 80.21 23.08 79.73 23.17 79.46 C23.26 79.2 23.54 78.93 23.47 78.52 C23.42 78.11 23.04 77.34 22.52
						 77.23 C21.99 77.11 21.45 77.27 21.13 77.52 C20.81 77.78 20.36 78.24 20.35 79 C20.33 79.76 20.43 80.66 20.46
						 81.08 C20.49 81.5 20.52 81.74 20.79 82.14 C21.07 82.53 22.39 83.95 22.68 84.76 C22.81 85.14 22.93 85.58
						 22.5 85.82 C22.09 86.06 21.88 86.34 21.38 86.42 C20.89 86.51 20.63 86.92 21.53 87.54M17.4 80.17 C17.38 79.45
						 17.02 79.27 17.04 78.89 C17.06 78.56 17.16 78.15 17.02 78.01 C16.88 77.87 16.85 77.8 16.82 77.52 C16.8 77.24
						 16.7 77.14 16.66 76.84 C16.61 76.54 16.59 75.28 16.56 74.56 C16.54 73.84 16.17 73.09 16.03 72.23 C15.89
						 71.42 15.94 70.85 15.89 69.74 C15.84 68.73 16.15 68.61 16.69 68.04 C17.21 67.45 17.98 66.83 18.32 66.71
						 C18.66 66.59 19.02 66.56 19.28 66.59 C19.55 66.62 19.57 66.36 20.3 66.38 C21.02 66.4 27 66.47 28.07 66.45
						 C29.12 66.43 30.16 66.55 30.7 66.94 C31.23 67.34 31.83 67.87 31.98 68.34 C32.12 68.81 32.27 69.34 32.04
						 69.78 C31.69 70.51 31.49 70.99 31.18 71.46 C30.87 71.93 30.77 72.18 30.74 72.56 C30.71 72.93 30.55 73.39
						 30.28 73.75 C30.02 74.09 30.02 74.51 30.02 74.79 C30.02 75.07 29.66 75.98 29.37 76.19 C29.08 76.4 28.55
						 76.66 28.55 75.91 C28.55 75.17 28.64 74.58 28.62 74.23 C28.6 73.88 28.67 73.75 28.77 73.6 C28.86 73.47 28.91
						 73.28 28.91 72.95 C28.91 72.62 28.91 71.21 28.96 70.74 C29.01 70.27 28.91 69.9 28.4 69.76 C27.9 69.62 27.68
						 69.55 27.52 69.43 C27.34 69.32 27.03 69.38 26.84 69.38 C26.64 69.38 26.57 69.18 26.43 69.13 C26.28 69.09
						 25.31 69.15 25.07 69.15 C24.62 69.15 24.79 68.92 24.4 68.92 C24.08 68.92 22.15 68.97 21.81 68.92 C21.48
						 68.88 21.24 69.18 20.88 69.18 C20.52 69.18 20.21 69.09 19.91 69.32 C19.62 69.55 19.22 69.53 19.22 70.11
						 C19.22 70.69 19.24 72.04 19.28 72.51 C19.33 72.98 19.43 73.35 19.62 73.58 C19.82 73.81 19.82 74.05 19.8
						 74.26 C19.77 74.46 19.99 74.37 19.99 74.72 C19.99 75.07 20.03 75.51 20.03 75.91 C20.03 76.31 19.77 76.84
						 19.74 77.05 C19.72 77.26 19.55 77.48 19.41 77.68 C19.26 77.89 19.24 78.12 19.26 78.38 C19.28 78.64 19.05
						 79.2 18.83 79.54 C18.62 79.9 18.81 79.94 18.49 80.2 C18.18 80.46 17.43 81.03 17.4 80.17" class="st3"/>
		</g>
		<g id="shape5-10" v:mID="5" v:groupContext="shape" transform="translate(172.199,125.803) scale(1,-1)">
			<title>path162</title>
			<path d="M11.49 97.69 C11.52 96.79 11.42 96.76 11.55 96.48 C11.66 96.2 11.8 95.91 11.73 94.62 C11.69 93.72 11.73 93.76
						 11.82 93.56 C11.91 93.36 12.05 93.32 12.03 92.83 C12.01 92.12 11.98 86.57 11.94 86.1 C11.91 85.63 11.73
						 85.36 11.74 85.08 C11.79 84.04 11.51 84.21 11.51 83.82 C11.51 83.43 11.55 82.78 11.53 82.55 C11.51 82.32
						 11.26 82.25 11.27 81.81 C11.29 81.38 11.4 80.91 11.3 80.6 C11.22 80.28 11.04 80.23 11.02 79.88 C11 79.53
						 10.87 78.49 10.02 77.96 C9.6 77.7 8.42 77.49 7.91 77.42 C7.4 77.35 6.52 77 6.08 77 C5.62 77 5.28 76.98 4.89
						 76.79 C4.49 76.59 3.95 76.28 3.49 76.31 C3.03 76.35 2.16 76.31 1.76 76.56 C1.36 76.8 1.06 76.89 0.85 76.75
						 C0.45 76.47 0 76.22 0.24 75.56 C0.47 74.89 0.83 74.75 0.85 74.38 C0.87 74.01 1.02 73.7 1.29 73.35 C1.56
						 72.99 1.22 72.77 1.56 72.55 C2.11 72.22 2.04 71.57 2.93 71.71 C3.82 71.85 4.07 72.19 4.75 72.43 C5.42 72.68
						 9.13 74.47 9.47 74.52 C9.82 74.57 10.11 74.66 10.09 74.15 C10.07 73.65 10.17 73.52 10.13 73.28 C10.09 73.03
						 10.01 72.92 9.83 72.71 C9.67 72.5 9.76 72.4 9.67 71.96 C9.59 71.52 8.93 69.71 7.51 68.32 C6.1 66.94 4.55
						 66.28 4.21 66.16 C3.85 66.04 2.76 66.04 2.49 66.09 C2.22 66.15 1.98 66.52 1.55 66.39 C1.11 66.26 0.78 65.84
						 1.27 65.4 C1.76 64.97 3.03 64.3 3.73 64.28 C4.42 64.26 5.06 63.96 5.44 64.11 C5.82 64.24 6.25 64.23 6.89
						 64.6 C7.53 64.97 9.85 67.02 10.82 69.25 C11.79 71.48 12.09 72.54 12.23 72.82 C12.34 73.1 12.32 73.58 12.34
						 74.08 C12.36 74.59 12.5 74.8 12.68 75.03 C12.86 75.26 12.71 75.43 12.79 75.72 C12.86 76 13.06 76.26 13.42
						 76.52 C13.78 76.79 14.1 76.74 14.73 77.09 C15.37 77.44 19.68 79.41 20.89 79.86 C22.11 80.32 22.86 80.56
						 23.34 81.15 C23.59 81.46 23.82 82.13 23.34 82.55 C22.84 82.97 22.8 83.03 22.49 83.03 C22.19 83.03 22.19
						 83.38 21.82 83.32 C21.46 83.27 21.33 83.22 21 83.52 C20.68 83.82 20.14 83.95 19.83 83.55 C19.52 83.14 19.33
						 82.74 18.88 82.32 C18.42 81.9 17.49 81.46 16.91 81.23 C16.34 81 15.41 80.67 14.81 80.42 C14.24 80.18 13.93
						 80.11 13.91 80.63 C13.89 81.17 13.95 81.49 14.1 81.87 C14.24 82.24 14.33 82.97 14.46 83.41 C14.58 83.85
						 14.97 84.15 14.95 84.68 C14.93 85.2 15.02 85.57 15.16 86.05 C15.39 86.75 15.62 87.12 15.64 87.49 C15.66
						 87.86 15.67 88.33 15.78 88.58 C15.9 88.82 16.06 88.95 16.15 89.59 C16.24 90.24 16.37 90.98 16.37 91.79 C16.37
						 92.6 16.29 93.04 16.03 93.41 C15.75 93.78 15.73 94.34 15.43 94.64 C15.15 94.94 15.02 95.16 14.97 95.46 C14.91
						 95.76 14.55 96.02 14.1 96.53 C13.64 97.04 12.89 97.78 12.5 98.11 C12.09 98.45 11.48 98.21 11.49 97.69 Z"
					class="st1"/>
		</g>
		<g id="shape6-12" v:mID="6" v:groupContext="shape" transform="translate(94.2569,123.706) scale(1,-1)">
			<title>path164</title>
			<path d="M29.13 81.44 C29.23 82.02 29.21 82.75 28.93 83.04 C28.65 83.33 28.08 83.51 27.73 83.77 C27.39 84.04 26.86 83.88
						 26.4 83.62 C25.94 83.35 24.49 82.33 23.98 81.91 C23.47 81.49 23.54 81.75 23.26 81.88 C22.99 82.02 22.25
						 82.42 21.49 82.49 C20.74 82.55 20.55 81.68 20.25 81.24 C19.95 80.8 20.07 80.09 20.07 79.73 C20.07 79.37
						 19.79 78.79 19.31 78.3 C18.83 77.82 18.31 77.9 17.86 77.53 C17.39 77.15 16.37 76.66 15.79 76.7 C15.21 76.75
						 14.98 76.79 14.38 76.4 C14.02 76.14 14.15 76.08 14.31 75.68 C14.52 75.17 15.1 74.37 15.7 74.19 C16.29 74.01
						 17.19 74.1 17.58 74.35 C17.97 74.59 18.9 75.7 19.29 75.92 C19.67 76.14 19.74 75.68 19.82 75.22 C19.89 74.75
						 19.82 73.95 19.7 72.97 C19.58 71.99 19.63 70.7 19.72 70.1 C19.82 69.5 19.82 67.88 19.76 67.15 C19.72 66.41
						 19.97 65.86 20.02 65.5 C20.07 65.14 19.97 63.5 20 62.43 C20.02 61.36 21.13 60.81 21.59 60.79 C22.04 60.76
						 22.28 61.21 22.62 61.54 C22.97 61.88 22.87 62.09 23.22 62.65 C23.57 63.21 23.57 64.39 23.59 65.12 C23.61
						 65.86 23.85 65.83 23.79 67.48 C23.76 68.59 23.79 73.92 23.79 74.5 C23.79 75.08 23.98 75.04 24.28 75.08 C24.58
						 75.13 24.97 75.24 25.43 75.53 C25.89 75.82 26.51 76.82 26.99 77.57 C27.48 78.33 27.99 79.15 28.47 79.86
						 C28.95 80.57 29.04 80.86 29.13 81.44 ZM26.28 81 C26.05 80.63 25.07 79.5 24.74 79.14 C24.41 78.77 24.09 78.66
						 23.98 79.18 C23.87 79.71 23.97 79.75 24.13 80.06 C24.31 80.36 24.77 80.93 25.17 81.25 C25.55 81.57 25.66
						 81.64 25.87 81.71 C26.07 81.79 26.53 81.39 26.28 81 ZM28.35 88.34 C29.22 89.15 28.97 89.79 28.49 90.48 C28.02
						 91.19 26.86 91.29 26.06 90.76 C25.26 90.24 21.98 88.02 21.04 87.36 C20.09 86.69 18.86 86.48 18.38 86.34
						 C17.91 86.2 17.5 86.03 17.04 85.67 C16.31 85.1 17.62 83.84 18.57 83.42 C19.51 83 20.02 82.97 21.22 83.24
						 C22.42 83.53 24.46 85.18 25.19 85.91 C25.92 86.66 27.48 87.53 28.35 88.34 ZM15.04 93.86 C15.6 94.75 15.39
						 95.14 14.99 95.82 C14.59 96.51 13.97 96.63 13.22 97.01 C12.47 97.4 12.11 97.4 11.86 97.65 C11.59 97.91 11.26
						 98.13 10.36 98.33 C9.79 98.45 9.52 98.31 9.25 98.08 C8.66 97.58 9.34 96.72 9.87 95.91 C10.4 95.09 10 94.96
						 9.56 93.98 C9.11 93 7.44 89.71 5.97 87.2 C4.52 84.68 1.38 81.99 0.63 81.1 C0 80.35 0.63 80.07 1.33 79.77
						 C2.04 79.47 2.48 79.94 3.15 80.62 C3.81 81.31 6.33 84.25 7.34 85.37 C8.36 86.47 11.72 90.02 12.78 91.08
						 C13.84 92.15 14.46 92.96 15.04 93.86 ZM3.8 71.62 C3.8 70.81 3.77 70.21 3.58 69.26 C3.4 68.32 3.58 67.14
						 5.04 66.56 C6.02 66.17 7.79 67.23 8.16 68.77 C8.53 70.32 8.35 71.23 7.79 72.25 C7.25 73.27 6.62 74.6 5.98
						 75.38 C5.29 76.22 4.96 76.45 4.53 76.32 C4.27 76.26 3.91 75.97 3.91 75.27 C3.91 74.32 3.8 72.42 3.8 71.62
						 ZM7.87 79.77 C8.2 79.73 8.59 79.98 8.74 79.66 C8.89 79.34 9 78.33 9.76 78.29 C10.53 78.26 11.04 78.29 11.26
						 78.57 C11.47 78.86 12.06 79.34 12.34 79.59 C12.63 79.84 12.68 80.3 12.46 80.58 C12.23 80.86 12.3 81.21 12.56
						 81.63 C12.82 82.05 13.07 82.51 13.29 82.93 C13.51 83.35 13.8 83.92 13.76 84.69 C13.73 85.37 13.54 85.36
						 13.21 85.74 C12.89 86.13 12.27 86.51 11.8 86.27 C11.32 86.02 10.78 85.53 10.42 84.83 C10.05 84.13 9.66 83.42
						 9.18 82.83 C8.71 82.23 8.31 81.77 7.73 81.39 C7.14 81 7.04 81.07 6.6 80.82 C6.17 80.58 6.09 79.91 6.52 79.8
						 C6.96 79.7 7.54 79.8 7.87 79.77 ZM9.22 73.72 C8.93 73.44 8.81 73.27 8.96 72.78 C9.1 72.28 9.33 72.04 9.76
						 71.48 C10.2 70.92 10.38 71.05 10.78 70.85 C11.18 70.63 11.36 70.67 11.5 71.05 C11.66 71.44 11.94 71.93 12.34
						 72.39 C12.74 72.85 12.78 73.06 12.78 73.44 C12.78 73.83 12.68 74.64 12.71 75.27 C12.74 75.9 12.63 75.66
						 12.92 75.9 C13.21 76.15 13.19 76.47 13.21 77.06 C13.25 77.66 12.92 77.73 12.6 77.84 C12.27 77.94 12.09 77.94
						 11.84 78.08 C11.59 78.23 11.5 78.01 11.29 77.94 C11.07 77.87 10.74 78.05 10.63 77.69 C10.53 77.34 10.34
						 77.06 10.02 76.82 C9.69 76.57 9.46 76.48 9.07 76.08 C8.77 75.78 9.15 75.43 9.45 75.16 C9.74 74.92 9.8 74.74
						 9.66 74.43 C9.51 74.11 9.51 74.01 9.22 73.72 Z" class="st1"/>
		</g>
		<g id="shape7-14" v:mID="7" v:groupContext="shape" transform="translate(207.306,121.784) scale(1,-1)">
			<title>path166</title>
			<path d="M29.41 94.44 C29.41 94.87 29.14 95.53 28.52 95.86 C27.91 96.19 27.83 96.47 27.19 96.25 C26.56 96.02 25.42 95.41
						 24.74 94.95 C24.06 94.5 20.76 92.75 19.57 91.91 C18.37 91.06 16.61 90.18 16.2 89.96 C15.8 89.73 15.33 89.87
						 15.61 90.38 C15.88 90.9 16.07 91.27 16.7 91.64 C17.32 92.01 18.03 92.57 18.55 92.87 C19.06 93.19 20.18 93.98
						 20.4 94.48 C20.61 94.97 20.84 95.57 20.48 95.88 C20.12 96.19 19.38 96.8 18.93 97.17 C18.48 97.54 18.14 97.81
						 17.91 97.85 C17.67 97.89 17.48 98.12 17.18 98.28 C16.89 98.45 16.71 98.4 16.41 97.99 C16.11 97.58 16.16
						 97.29 16.33 97.01 C16.5 96.72 16.37 96.33 16.52 96.04 C16.68 95.75 16.65 95.52 16.84 95.43 C16.93 95.39
						 16.84 95.18 16.7 94.91 C16.54 94.65 16.65 94.31 16.37 93.94 C16.09 93.58 15.63 92.87 15.28 92.53 C14.95
						 92.18 14.84 91.95 14.35 92.24 C13.85 92.53 13.16 93.14 12.28 93.56 C11.41 93.97 10.24 94.31 9.79 94.77 C9.35
						 95.22 8.81 95.65 8.07 95.88 C7.33 96.1 6.3 96.25 5.86 96.23 C5.41 96.21 4.93 95.9 5.51 95.31 C6.07 94.72
						 6.4 94.54 7.14 94.28 C7.81 94.04 9.29 92.02 9.53 91.08 C9.84 89.87 9.58 88.37 9.62 87.27 C9.67 86.17 9.84
						 85.57 9.27 85.11 C8.7 84.65 8.7 84.05 8.31 84.98 C7.91 85.91 7.96 87.06 7.08 87.52 C6.19 87.99 5.76 88.54
						 4.85 88.37 C3.92 88.2 3.62 88.12 4.01 87.27 C4.41 86.42 4.67 85.75 4.59 83.67 C4.52 82.32 4.8 81.43 5.32
						 81 C5.86 80.58 6.64 79.99 7.2 79.99 C7.78 79.99 7.91 79.69 7.51 79.31 C7.13 78.94 2.52 74.78 0.86 72.12
						 C0 70.75 0.07 70.64 0.55 70.13 C1.03 69.62 1.2 69.2 2.47 69.24 C3.75 69.28 4.75 69.46 5.32 70.05 C5.89 70.64
						 8.35 72.33 9.27 73.18 C10.19 74.02 13.18 76.43 15.23 78.21 C16.9 79.65 19.24 80.33 19.91 80.79 C20.92 81.47
						 21.23 81.22 21.63 81.47 C22.02 81.72 22.59 82.62 22.99 82.87 C23.38 83.12 24.6 83.25 25.18 83.33 C25.75
						 83.42 26.66 83.37 25.93 82.4 C25.18 81.43 24.26 80.58 23.65 80.16 C23.03 79.73 19.88 77.96 19.48 77.7 C19.09
						 77.45 18.73 77.28 17.95 77.32 C17.15 77.37 16.9 77.16 16.1 76.78 C15.31 76.39 15.1 76.78 14.4 76.1 C13.7
						 75.42 13.39 75.21 12.95 74.61 C12.52 74.02 12.55 73.6 12.99 73.26 C13.43 72.92 13.52 72.75 14.09 73 C14.66
						 73.26 15.1 73.22 15.44 73.38 C15.8 73.56 16.41 73.48 16.28 73.05 C16.15 72.62 15.93 72.33 16.02 71.78 C16.1
						 71.23 16.45 70.68 15.31 70.25 C14.17 69.84 12.82 69.54 12.03 69.28 C11.25 69.03 9.09 68.27 8.26 67.84 C7.43
						 67.42 5.46 66.62 4.75 66.11 C4.06 65.6 3.4 65.35 2.87 64.88 C2.35 64.42 2.04 63.95 2.17 63.23 C2.31 62.51
						 2.83 62.05 3.53 62 C4.24 61.96 4.59 61.45 5.06 61.24 C5.55 61.03 5.94 60.95 6.47 60.7 C6.99 60.44 7.51 60.14
						 8.57 59.3 C9.62 58.45 12.29 56.42 13.39 55.7 C14.48 54.98 15.23 54.47 15.89 54.51 C16.54 54.55 16.81 54.51
						 17.46 55.11 C18.12 55.7 18.43 55.7 18.34 56.79 C18.26 57.9 17.91 60.48 17.91 62.13 C17.91 63.78 18.21 63.61
						 18.12 64.55 C18.03 65.48 17.91 65.98 18.03 66.45 C18.16 66.91 18.38 67.21 18.99 67.25 C19.61 67.29 22.33
						 67.46 23.11 67.38 C23.91 67.29 24.16 67.13 24.87 67.63 C25.57 68.14 25.57 68.22 25.65 68.82 C25.75 69.41
						 26.19 69.32 25.6 70.13 C25.04 70.94 24.3 71.23 23.91 71.7 C23.51 72.16 23.34 72.37 22.54 71.91 C21.76 71.44
						 21.46 71.19 20.66 71.14 C19.88 71.1 19.74 71.06 19.39 71.1 C19.04 71.14 18.73 71.14 18.99 71.82 C19.26 72.5
						 19.61 73.22 20.36 73.85 C21.1 74.49 21.41 74.78 21.49 75.25 C21.58 75.72 21.49 76.05 21.49 76.6 C21.49 77.16
						 21.46 77.24 22.19 77.66 C22.94 78.08 25.43 79.86 26.26 80.58 C27.1 81.3 28.76 82.65 28.33 84.18 C28.07 85.11
						 27.46 85.45 26.57 85.53 C25.7 85.62 24.82 85.57 24.38 85.57 C23.77 85.57 23.78 85.8 24.12 86.26 C24.46 86.71
						 24.67 86.83 24.85 87.12 C25.01 87.4 25.42 88.24 25.9 88.8 C26.36 89.36 27.27 90.8 27.77 91.25 C28.25 91.7
						 28.74 92.46 29.11 92.94 C29.47 93.41 29.41 94.01 29.41 94.44 ZM14.6 64.8 C14.59 64.05 14.63 63.44 14.63
						 63.21 C14.62 62.99 14.83 62.73 14.82 62.31 C14.81 61.89 14.83 60.75 14.79 60.34 C14.77 59.93 14.81 59.73
						 14.69 59.53 C14.57 59.33 14.59 59.23 14.59 58.98 C14.59 58.74 14.64 58.49 14.31 58.37 C13.99 58.26 14.13
						 58.15 13.49 58.45 C12.86 58.75 11.01 59.54 10.45 59.9 C9.89 60.24 9.2 60.75 8.48 61.11 C7.78 61.46 6.9 62.02
						 6.47 62.19 C6.03 62.37 5.86 62.73 6.62 63.23 C7.4 63.72 8.21 64.14 8.89 64.43 C9.58 64.71 12.28 65.5 12.97
						 65.67 C13.65 65.84 14.51 65.95 14.69 65.67 C14.97 65.23 14.6 65.29 14.6 64.8 ZM13.56 88.95 C13.95 88.8 13.74
						 88.24 13.46 87.96 C13.18 87.67 11.93 86.87 11.58 86.65 C11.25 86.41 11.07 86.76 11.01 87.13 C10.94 87.51
						 10.96 87.77 11.07 88.02 C11.18 88.27 11.12 88.48 11.39 88.72 C11.67 88.97 11.58 89.5 11.64 89.97 C11.71
						 90.45 12.57 90.24 12.46 89.62 C12.39 89.28 12.5 89.19 12.76 89.11 C13 89.03 13.18 89.09 13.56 88.95 ZM15.65
						 83.18 C15.4 83.03 15.16 82.9 14.61 82.77 C14.05 82.65 14.01 82.75 13.41 82.55 C12.82 82.34 12.5 82.16 12.07
						 82.06 C11.64 81.95 11.01 81.81 10.61 81.46 C10.2 81.11 9.69 80.82 9.43 80.79 C9.18 80.74 9.3 80.64 8.85
						 80.39 C8.24 80.05 7.94 80.41 8.69 81.48 C9.15 82.15 9.95 83.42 10.43 83.92 C10.93 84.44 12.6 85.68 13.05
						 85.98 C13.5 86.29 13.54 85.68 13.28 85.33 C13.03 84.98 12.97 84.56 12.84 84.11 C12.71 83.66 13.48 83.81
						 13.76 84.05 C14.03 84.3 14.42 84.24 14.99 84.24 C15.33 84.24 15.33 84.07 15.63 83.74 C15.92 83.42 15.9 83.35
						 15.65 83.18 ZM16.51 81.56 C16.93 81.58 17.42 81.43 16.9 81.06 C16.38 80.69 13.38 78.55 12.63 78.1 C11.89
						 77.66 8.37 75.24 7.56 74.75 C6.77 74.25 6.34 74.09 5.94 73.85 C5.33 73.48 5.04 73.76 5.49 74.35 C5.92 74.95
						 7.84 77.48 9.08 78.43 C10.31 79.37 11.63 79.99 12.37 80.37 C13.13 80.73 14.17 80.96 14.44 81.13 C14.69 81.31
						 15.18 81.23 15.48 81.28 C15.79 81.33 16.1 81.53 16.51 81.56 ZM18.01 86.39 C18.01 85.64 17.98 85.25 17.69
						 84.98 C17.39 84.71 17.32 84.73 17.21 84.42 C17.1 84.11 16.78 84.05 16.61 84.36 C16.44 84.67 16.61 85.1 16.48
						 85.41 C16.35 85.72 16.68 86.17 16.95 86.58 C17.23 86.99 18.01 87.15 18.01 86.39 ZM26.4 93.41 C26.34 92.91
						 26.13 92.48 26.08 92.22 C26.04 91.95 25.29 90.63 24.74 89.79 C24.18 88.95 23.19 87.2 22.91 86.44 C22.64
						 85.68 22.29 85.33 22.21 84.91 C22.11 84.51 22.04 84.52 21.74 84.24 C21.45 83.95 21.26 83.7 20.74 83.68 C20.2
						 83.66 20.26 83.64 20.01 83.66 C19.76 83.68 19.74 83.87 20.03 84.19 C20.33 84.52 20.52 84.83 20.52 85.08
						 C20.52 85.33 20.76 85.53 20.95 85.76 C21.15 85.98 21.16 86.15 21.18 86.34 C21.2 86.52 21.42 86.62 21.57
						 86.85 C21.72 87.08 21.72 87.22 21.77 87.55 C21.8 87.88 22.04 87.79 22 88.29 C21.95 88.78 22.11 89.25 21.82
						 89.6 C21.52 89.96 21.52 90.26 21.23 90.49 C20.93 90.72 21.08 90.98 21.26 91.17 C21.71 91.59 21.93 91.81
						 22.72 92.32 C23.51 92.83 24.39 93.32 24.82 93.51 C25.26 93.69 25.53 93.74 25.7 93.84 C25.87 93.94 26.46
						 93.9 26.4 93.41 Z" class="st1"/>
		</g>
		<g id="shape8-16" v:mID="8" v:groupContext="shape" transform="translate(18.7229,170.26) scale(1,-1)">
			<title>path168</title>
			<path d="M4.67 98.45 C4.63 98.26 4.57 98.14 4.51 98.07 C4.44 98.01 4.36 97.98 4.25 97.98 C4.16 97.98 4 98.03 3.78 98.13
						 C3.29 98.34 2.83 98.45 2.39 98.45 C1.7 98.45 1.13 98.24 0.68 97.82 C0.22 97.39 0 96.89 0 96.3 C0 95.96 0.08
						 95.65 0.23 95.37 C0.38 95.09 0.61 94.83 0.9 94.6 C1.2 94.37 1.7 94.06 2.4 93.67 C3.1 93.28 3.53 93.02 3.69
						 92.9 C3.92 92.73 4.09 92.53 4.2 92.33 C4.31 92.12 4.37 91.92 4.37 91.72 C4.37 91.36 4.22 91.04 3.93 90.78
						 C3.64 90.51 3.24 90.38 2.74 90.38 C2.31 90.38 1.91 90.48 1.54 90.67 C1.18 90.86 0.91 91.11 0.73 91.4 C0.56
						 91.69 0.42 92.13 0.31 92.72 L0.08 92.72 L0.08 89.91 L0.31 89.91 C0.34 90.1 0.38 90.23 0.44 90.29 C0.5 90.35
						 0.58 90.38 0.68 90.38 C0.79 90.38 1.03 90.32 1.42 90.19 C1.82 90.06 2.07 89.99 2.2 89.96 C2.41 89.93 2.63
						 89.91 2.87 89.91 C3.62 89.91 4.24 90.13 4.72 90.58 C5.2 91.03 5.44 91.56 5.44 92.18 C5.44 92.51 5.36 92.82
						 5.21 93.11 C5.06 93.41 4.85 93.67 4.57 93.89 C4.29 94.11 3.77 94.42 3 94.83 C2.07 95.33 1.47 95.73 1.22
						 96.04 C1.05 96.24 0.96 96.47 0.96 96.72 C0.96 97.04 1.1 97.33 1.37 97.59 C1.65 97.84 1.99 97.97 2.41 97.97
						 C2.78 97.97 3.14 97.87 3.48 97.68 C3.83 97.49 4.09 97.24 4.28 96.92 C4.47 96.59 4.6 96.16 4.67 95.62 L4.9
						 95.62 L4.9 98.45 L4.67 98.45 ZM7.87 97.38 C6.99 96.57 6.54 95.51 6.54 94.21 C6.54 92.94 6.93 91.91 7.69
						 91.11 C8.46 90.31 9.4 89.91 10.53 89.91 C11.64 89.91 12.59 90.32 13.38 91.14 C14.16 91.96 14.55 92.99 14.55
						 94.23 C14.55 95.43 14.17 96.44 13.39 97.24 C12.61 98.05 11.69 98.45 10.63 98.45 C9.56 98.45 8.64 98.1 7.87
						 97.38 ZM12.34 97.2 C12.89 96.51 13.17 95.47 13.17 94.07 C13.17 92.78 12.92 91.84 12.42 91.24 C11.92 90.64
						 11.29 90.34 10.52 90.34 C9.8 90.34 9.22 90.62 8.79 91.16 C8.22 91.88 7.93 92.91 7.93 94.24 C7.93 95.54 8.21
						 96.53 8.76 97.2 C9.2 97.75 9.78 98.02 10.51 98.02 C11.29 98.02 11.9 97.74 12.34 97.2 ZM21.25 98.04 C21.56
						 98.04 21.79 97.95 21.94 97.78 C22.06 97.65 22.11 97.33 22.11 96.82 L22.11 93.52 C22.11 92.65 22.03 92.04
						 21.88 91.67 C21.72 91.31 21.43 91.01 21.01 90.78 C20.59 90.54 20.11 90.43 19.57 90.43 C19.15 90.43 18.8
						 90.5 18.51 90.65 C18.22 90.8 18 90.99 17.85 91.22 C17.7 91.45 17.59 91.77 17.53 92.17 C17.47 92.58 17.44
						 92.95 17.44 93.26 L17.44 96.82 C17.44 97.28 17.49 97.58 17.59 97.72 C17.74 97.93 17.98 98.04 18.32 98.04
						 L18.64 98.04 L18.64 98.27 L15.09 98.27 L15.09 98.04 L15.4 98.04 C15.71 98.04 15.94 97.96 16.08 97.81 C16.22
						 97.65 16.29 97.32 16.29 96.82 L16.29 93.63 C16.29 92.65 16.35 91.98 16.48 91.62 C16.67 91.1 17 90.68 17.46
						 90.37 C17.92 90.06 18.6 89.91 19.49 89.91 C20.31 89.91 20.96 90.07 21.44 90.39 C21.92 90.72 22.24 91.1 22.4
						 91.56 C22.56 92.01 22.64 92.64 22.64 93.46 L22.64 96.77 C22.64 97.23 22.68 97.51 22.77 97.64 C22.94 97.91
						 23.19 98.04 23.51 98.04 L23.81 98.04 L23.81 98.27 L20.94 98.27 L20.94 98.04 L21.25 98.04 ZM24.41 98.27 L24.33
						 96.35 L24.55 96.35 C24.58 96.72 24.67 97.01 24.82 97.23 C24.97 97.44 25.15 97.59 25.36 97.67 C25.52 97.72
						 25.79 97.75 26.18 97.75 L27.16 97.75 L27.16 91.51 C27.16 91.06 27.12 90.76 27.03 90.63 C26.88 90.42 26.63
						 90.32 26.28 90.32 L25.99 90.32 L25.99 90.09 L29.48 90.09 L29.48 90.32 L29.19 90.32 C28.87 90.32 28.64 90.4
						 28.48 90.57 C28.37 90.7 28.32 91.01 28.32 91.51 L28.32 97.75 L29.47 97.75 C29.81 97.75 30.08 97.7 30.28
						 97.59 C30.49 97.47 30.66 97.3 30.78 97.07 C30.86 96.92 30.92 96.68 30.96 96.35 L31.19 96.35 L31.11 98.27
						 L24.41 98.27 ZM34.04 96.82 C34.04 97.22 34.07 97.48 34.11 97.61 C34.16 97.74 34.25 97.84 34.37 97.9 C34.54
						 97.99 34.73 98.04 34.92 98.04 L35.21 98.04 L35.21 98.27 L31.71 98.27 L31.71 98.04 L32 98.04 C32.2 98.04
						 32.38 97.99 32.56 97.9 C32.68 97.83 32.77 97.74 32.81 97.64 C32.86 97.51 32.88 97.24 32.88 96.82 L32.88
						 91.54 C32.88 91.05 32.84 90.74 32.74 90.61 C32.59 90.42 32.34 90.32 32 90.32 L31.71 90.32 L31.71 90.09 L35.21
						 90.09 L35.21 90.32 L34.92 90.32 C34.73 90.32 34.54 90.37 34.37 90.46 C34.24 90.54 34.16 90.62 34.12 90.72
						 C34.07 90.85 34.04 91.13 34.04 91.54 L34.04 94.04 L37.84 94.04 L37.84 91.54 C37.84 91.05 37.79 90.74 37.69
						 90.61 C37.54 90.42 37.3 90.32 36.96 90.32 L36.67 90.32 L36.67 90.09 L40.17 90.09 L40.17 90.32 L39.88 90.32
						 C39.69 90.32 39.5 90.37 39.33 90.46 C39.2 90.54 39.12 90.62 39.08 90.72 C39.03 90.85 39 91.13 39 91.54 L39
						 96.82 C39 97.22 39.02 97.48 39.07 97.61 C39.12 97.74 39.2 97.84 39.33 97.9 C39.51 97.99 39.69 98.04 39.88
						 98.04 L40.17 98.04 L40.17 98.27 L36.67 98.27 L36.67 98.04 L36.96 98.04 C37.16 98.04 37.34 97.99 37.51 97.9
						 C37.64 97.83 37.72 97.74 37.76 97.64 C37.82 97.51 37.84 97.24 37.84 96.82 L37.84 94.48 L34.04 94.48 L34.04
						 96.82 ZM50.7 98.45 C50.65 98.26 50.58 98.11 50.47 98 C50.39 97.92 50.3 97.88 50.19 97.88 C50.12 97.88 50
						 97.93 49.83 98.02 C49.26 98.31 48.68 98.45 48.1 98.45 C47.34 98.45 46.65 98.26 46.01 97.89 C45.37 97.51
						 44.87 96.98 44.51 96.3 C44.15 95.62 43.97 94.87 43.97 94.05 C43.97 93.04 44.24 92.16 44.8 91.42 C45.54 90.41
						 46.58 89.91 47.94 89.91 C48.69 89.91 49.33 90.08 49.88 90.42 C50.43 90.76 50.9 91.29 51.31 92.02 L51.12
						 92.14 C50.64 91.46 50.2 91.01 49.79 90.78 C49.39 90.55 48.92 90.44 48.39 90.44 C47.79 90.44 47.25 90.59
						 46.77 90.87 C46.3 91.16 45.94 91.58 45.71 92.12 C45.47 92.66 45.35 93.3 45.35 94.04 C45.35 94.94 45.48 95.69
						 45.73 96.29 C45.98 96.89 46.32 97.33 46.75 97.6 C47.19 97.88 47.68 98.02 48.21 98.02 C48.86 98.02 49.41
						 97.83 49.87 97.47 C50.33 97.1 50.68 96.5 50.93 95.66 L51.12 95.66 L50.93 98.45 L50.7 98.45 ZM54.29 96.82
						 C54.29 97.22 54.32 97.48 54.36 97.61 C54.41 97.74 54.5 97.84 54.62 97.9 C54.79 97.99 54.98 98.04 55.17 98.04
						 L55.46 98.04 L55.46 98.27 L51.96 98.27 L51.96 98.04 L52.25 98.04 C52.45 98.04 52.63 97.99 52.81 97.9 C52.93
						 97.83 53.01 97.74 53.05 97.64 C53.11 97.51 53.13 97.24 53.13 96.82 L53.13 91.54 C53.13 91.05 53.09 90.74
						 52.99 90.61 C52.84 90.42 52.59 90.32 52.25 90.32 L51.96 90.32 L51.96 90.09 L55.46 90.09 L55.46 90.32 L55.17
						 90.32 C54.98 90.32 54.79 90.37 54.62 90.46 C54.49 90.54 54.41 90.62 54.37 90.72 C54.32 90.85 54.29 91.13
						 54.29 91.54 L54.29 94.04 L58.09 94.04 L58.09 91.54 C58.09 91.05 58.04 90.74 57.94 90.61 C57.79 90.42 57.54
						 90.32 57.21 90.32 L56.92 90.32 L56.92 90.09 L60.42 90.09 L60.42 90.32 L60.13 90.32 C59.94 90.32 59.75 90.37
						 59.58 90.46 C59.45 90.54 59.37 90.62 59.33 90.72 C59.28 90.85 59.25 91.13 59.25 91.54 L59.25 96.82 C59.25
						 97.22 59.27 97.48 59.32 97.61 C59.37 97.74 59.45 97.84 59.58 97.9 C59.75 97.99 59.94 98.04 60.13 98.04 L60.42
						 98.04 L60.42 98.27 L56.92 98.27 L56.92 98.04 L57.21 98.04 C57.4 98.04 57.59 97.99 57.76 97.9 C57.89 97.83
						 57.97 97.74 58.01 97.64 C58.07 97.51 58.09 97.24 58.09 96.82 L58.09 94.48 L54.29 94.48 L54.29 96.82 ZM64.19
						 90.32 C63.99 90.32 63.81 90.37 63.64 90.46 C63.51 90.54 63.43 90.62 63.39 90.72 C63.33 90.85 63.31 91.13
						 63.31 91.54 L63.31 96.82 C63.31 97.31 63.36 97.62 63.46 97.75 C63.61 97.94 63.85 98.04 64.19 98.04 L64.48
						 98.04 L64.48 98.27 L60.98 98.27 L60.98 98.04 L61.27 98.04 C61.46 98.04 61.65 97.99 61.83 97.9 C61.95 97.82
						 62.03 97.74 62.07 97.64 C62.12 97.51 62.15 97.23 62.15 96.82 L62.15 91.54 C62.15 91.05 62.1 90.74 62.01
						 90.61 C61.85 90.42 61.61 90.32 61.27 90.32 L60.98 90.32 L60.98 90.09 L64.48 90.09 L64.48 90.32 L64.19 90.32
						 ZM64.62 98.04 C64.85 98.04 65.03 98.02 65.15 97.99 C65.39 97.91 65.57 97.83 65.69 97.74 C65.81 97.65 65.99
						 97.47 66.23 97.2 L66.23 91.51 C66.23 91.06 66.18 90.76 66.09 90.63 C65.95 90.42 65.7 90.32 65.34 90.32 L65.06
						 90.32 L65.06 90.09 L67.93 90.09 L67.93 90.32 L67.64 90.32 C67.32 90.32 67.08 90.4 66.92 90.57 C66.81 90.7
						 66.76 91.01 66.76 91.51 L66.76 96.55 L72.15 89.96 L72.37 89.96 L72.37 96.85 C72.37 97.3 72.41 97.6 72.5
						 97.73 C72.65 97.94 72.9 98.04 73.25 98.04 L73.54 98.04 L73.54 98.27 L70.67 98.27 L70.67 98.04 L70.95 98.04
						 C71.28 98.04 71.52 97.96 71.67 97.79 C71.78 97.66 71.84 97.35 71.84 96.85 L71.84 92.14 L66.83 98.27 L64.62
						 98.27 L64.62 98.04 ZM79.87 91.65 C80.03 91.27 80.11 90.99 80.11 90.82 C80.11 90.69 80.05 90.57 79.93 90.48
						 C79.82 90.39 79.6 90.34 79.27 90.32 L79.27 90.09 L82.5 90.09 L82.5 90.32 C82.17 90.34 81.91 90.43 81.72
						 90.59 C81.53 90.76 81.33 91.11 81.1 91.65 L78.25 98.45 L78.02 98.45 L75.15 91.73 C74.9 91.14 74.67 90.75
						 74.47 90.55 C74.37 90.46 74.14 90.38 73.8 90.32 L73.8 90.09 L76.39 90.09 L76.39 90.32 C75.99 90.35 75.74
						 90.41 75.62 90.5 C75.5 90.6 75.44 90.71 75.44 90.83 C75.44 90.99 75.51 91.22 75.64 91.54 L76.2 92.83 L79.37
						 92.83 L79.87 91.65 ZM76.39 93.28 L77.81 96.58 L79.19 93.28 L76.39 93.28 ZM84.87 98.04 C85.1 98.04 85.28
						 98.02 85.4 97.99 C85.63 97.91 85.81 97.83 85.94 97.74 C86.06 97.65 86.24 97.47 86.48 97.2 L86.48 91.51 C86.48
						 91.06 86.43 90.76 86.34 90.63 C86.2 90.42 85.95 90.32 85.59 90.32 L85.31 90.32 L85.31 90.09 L88.18 90.09
						 L88.18 90.32 L87.89 90.32 C87.56 90.32 87.33 90.4 87.17 90.57 C87.06 90.7 87.01 91.01 87.01 91.51 L87.01
						 96.55 L92.4 89.96 L92.62 89.96 L92.62 96.85 C92.62 97.3 92.66 97.6 92.75 97.73 C92.9 97.94 93.15 98.04 93.49
						 98.04 L93.79 98.04 L93.79 98.27 L90.92 98.27 L90.92 98.04 L91.2 98.04 C91.53 98.04 91.77 97.96 91.92 97.79
						 C92.03 97.66 92.09 97.35 92.09 96.85 L92.09 92.14 L87.08 98.27 L84.87 98.27 L84.87 98.04 ZM95.71 97.38 C94.83
						 96.57 94.38 95.51 94.38 94.21 C94.38 92.94 94.77 91.91 95.53 91.11 C96.3 90.31 97.25 89.91 98.37 89.91 C99.49
						 89.91 100.43 90.32 101.22 91.14 C102 91.96 102.39 92.99 102.39 94.23 C102.39 95.43 102.01 96.44 101.23 97.24
						 C100.45 98.05 99.53 98.45 98.47 98.45 C97.4 98.45 96.48 98.1 95.71 97.38 ZM100.18 97.2 C100.73 96.51 101.01
						 95.47 101.01 94.07 C101.01 92.78 100.76 91.84 100.26 91.24 C99.76 90.64 99.13 90.34 98.36 90.34 C97.64 90.34
						 97.06 90.62 96.63 91.16 C96.06 91.88 95.77 92.91 95.77 94.24 C95.77 95.54 96.05 96.53 96.6 97.2 C97.04 97.75
						 97.62 98.02 98.35 98.02 C99.13 98.02 99.74 97.74 100.18 97.2 ZM111.23 90.32 C110.78 90.37 110.42 90.48 110.14
						 90.66 C109.86 90.83 109.53 91.19 109.14 91.73 L107.45 94.08 C108.13 94.23 108.64 94.49 108.97 94.86 C109.29
						 95.23 109.46 95.66 109.46 96.17 C109.46 96.64 109.31 97.04 109.03 97.38 C108.74 97.72 108.39 97.95 107.98
						 98.08 C107.57 98.21 106.93 98.27 106.06 98.27 L103.09 98.27 L103.09 98.04 L103.39 98.04 C103.7 98.04 103.93
						 97.95 104.09 97.78 C104.2 97.65 104.26 97.33 104.26 96.82 L104.26 91.54 C104.26 91.07 104.22 90.78 104.13
						 90.66 C103.98 90.43 103.74 90.32 103.39 90.32 L103.09 90.32 L103.09 90.09 L106.59 90.09 L106.59 90.32 L106.27
						 90.32 C105.96 90.32 105.74 90.41 105.58 90.58 C105.47 90.71 105.42 91.03 105.42 91.54 L105.42 93.92 C105.48
						 93.91 105.54 93.91 105.6 93.91 C105.66 93.9 105.72 93.9 105.77 93.9 C105.9 93.9 106.07 93.91 106.27 93.92
						 L109.04 90.09 L111.23 90.09 L111.23 90.32 ZM105.42 97.69 C105.81 97.77 106.12 97.81 106.35 97.81 C106.87
						 97.81 107.28 97.65 107.6 97.33 C107.91 97.01 108.07 96.6 108.07 96.09 C108.07 95.57 107.88 95.14 107.49
						 94.8 C107.1 94.46 106.52 94.3 105.75 94.3 C105.71 94.3 105.67 94.3 105.61 94.3 C105.56 94.3 105.49 94.3
						 105.42 94.3 L105.42 97.69 ZM116.37 90.09 L119.52 96.97 L119.52 91.51 C119.52 91.06 119.47 90.76 119.38 90.63
						 C119.24 90.42 118.99 90.32 118.64 90.32 L118.35 90.32 L118.35 90.09 L121.85 90.09 L121.85 90.32 L121.56
						 90.32 C121.24 90.32 121 90.4 120.85 90.57 C120.73 90.7 120.68 91.01 120.68 91.51 L120.68 96.85 C120.68 97.3
						 120.72 97.6 120.81 97.73 C120.96 97.94 121.21 98.04 121.56 98.04 L121.85 98.04 L121.85 98.27 L119.52 98.27
						 L116.6 91.87 L113.63 98.27 L111.3 98.27 L111.3 98.04 C111.64 98.04 111.89 98 112.04 97.92 C112.19 97.84
						 112.29 97.75 112.35 97.63 C112.43 97.47 112.47 97.21 112.47 96.85 L112.47 91.51 C112.47 91.06 112.43 90.76
						 112.34 90.63 C112.19 90.42 111.95 90.32 111.6 90.32 L111.3 90.32 L111.3 90.09 L114.17 90.09 L114.17 90.32
						 L113.88 90.32 C113.56 90.32 113.32 90.4 113.17 90.57 C113.06 90.7 113 91.01 113 91.51 L113 96.97 L116.17
						 90.09 L116.37 90.09 ZM128.26 91.65 C128.42 91.27 128.5 90.99 128.5 90.82 C128.5 90.69 128.44 90.57 128.33
						 90.48 C128.21 90.39 127.99 90.34 127.67 90.32 L127.67 90.09 L130.89 90.09 L130.89 90.32 C130.56 90.34 130.3
						 90.43 130.11 90.59 C129.93 90.76 129.72 91.11 129.49 91.65 L126.64 98.45 L126.42 98.45 L123.54 91.73 C123.29
						 91.14 123.06 90.75 122.86 90.55 C122.76 90.46 122.54 90.38 122.2 90.32 L122.2 90.09 L124.78 90.09 L124.78
						 90.32 C124.38 90.35 124.13 90.41 124.01 90.5 C123.89 90.6 123.83 90.71 123.83 90.83 C123.83 90.99 123.9
						 91.22 124.04 91.54 L124.59 92.83 L127.77 92.83 L128.26 91.65 ZM124.78 93.28 L126.2 96.58 L127.58 93.28 L124.78
						 93.28 ZM137.47 91.24 C137.26 91.01 137.03 90.84 136.78 90.75 C136.52 90.66 136.08 90.61 135.45 90.61 L134.86
						 90.61 C134.33 90.61 134.02 90.63 133.92 90.67 C133.82 90.71 133.74 90.77 133.69 90.86 C133.63 90.98 133.6
						 91.21 133.6 91.55 L133.6 96.69 C133.6 97.17 133.63 97.48 133.69 97.6 C133.76 97.73 133.88 97.84 134.05 97.92
						 C134.23 98 134.54 98.04 134.97 98.04 L134.97 98.27 L131.27 98.27 L131.27 98.04 L131.57 98.04 C131.88 98.04
						 132.12 97.95 132.27 97.78 C132.38 97.65 132.44 97.33 132.44 96.82 L132.44 91.54 C132.44 91.08 132.4 90.78
						 132.31 90.65 C132.16 90.43 131.92 90.32 131.57 90.32 L131.27 90.32 L131.27 90.09 L137.6 90.09 L138.3 92.32
						 L138.1 92.36 C137.89 91.85 137.68 91.48 137.47 91.24 ZM147.41 98.04 C147.72 98.04 147.95 97.95 148.1 97.78
						 C148.22 97.65 148.27 97.33 148.27 96.82 L148.27 93.52 C148.27 92.65 148.19 92.04 148.04 91.67 C147.88 91.31
						 147.6 91.01 147.17 90.78 C146.75 90.54 146.27 90.43 145.73 90.43 C145.31 90.43 144.96 90.5 144.67 90.65
						 C144.38 90.8 144.16 90.99 144.01 91.22 C143.86 91.45 143.75 91.77 143.69 92.17 C143.63 92.58 143.6 92.95
						 143.6 93.26 L143.6 96.82 C143.6 97.28 143.65 97.58 143.76 97.72 C143.9 97.93 144.14 98.04 144.48 98.04 L144.8
						 98.04 L144.8 98.27 L141.25 98.27 L141.25 98.04 L141.56 98.04 C141.87 98.04 142.1 97.96 142.24 97.81 C142.38
						 97.65 142.45 97.32 142.45 96.82 L142.45 93.63 C142.45 92.65 142.51 91.98 142.64 91.62 C142.83 91.1 143.16
						 90.68 143.62 90.37 C144.08 90.06 144.76 89.91 145.65 89.91 C146.47 89.91 147.12 90.07 147.6 90.39 C148.08
						 90.72 148.4 91.1 148.56 91.56 C148.72 92.01 148.8 92.64 148.8 93.46 L148.8 96.77 C148.8 97.23 148.85 97.51
						 148.93 97.64 C149.1 97.91 149.35 98.04 149.67 98.04 L149.97 98.04 L149.97 98.27 L147.1 98.27 L147.1 98.04
						 L147.41 98.04 ZM149.95 98.04 C150.19 98.04 150.36 98.02 150.48 97.99 C150.72 97.91 150.9 97.83 151.02 97.74
						 C151.14 97.65 151.32 97.47 151.56 97.2 L151.56 91.51 C151.56 91.06 151.52 90.76 151.43 90.63 C151.28 90.42
						 151.03 90.32 150.68 90.32 L150.39 90.32 L150.39 90.09 L153.26 90.09 L153.26 90.32 L152.97 90.32 C152.65
						 90.32 152.41 90.4 152.26 90.57 C152.15 90.7 152.09 91.01 152.09 91.51 L152.09 96.55 L157.48 89.96 L157.7
						 89.96 L157.7 96.85 C157.7 97.3 157.74 97.6 157.83 97.73 C157.98 97.94 158.23 98.04 158.58 98.04 L158.87
						 98.04 L158.87 98.27 L156 98.27 L156 98.04 L156.29 98.04 C156.61 98.04 156.85 97.96 157 97.79 C157.11 97.66
						 157.17 97.35 157.17 96.85 L157.17 92.14 L152.17 98.27 L149.95 98.27 L149.95 98.04 ZM162.55 90.32 C162.36
						 90.32 162.18 90.37 162.01 90.46 C161.88 90.54 161.79 90.62 161.75 90.72 C161.7 90.85 161.68 91.13 161.68
						 91.54 L161.68 96.82 C161.68 97.31 161.72 97.62 161.83 97.75 C161.98 97.94 162.22 98.04 162.55 98.04 L162.85
						 98.04 L162.85 98.27 L159.35 98.27 L159.35 98.04 L159.64 98.04 C159.83 98.04 160.01 97.99 160.19 97.9 C160.32
						 97.82 160.4 97.74 160.44 97.64 C160.49 97.51 160.52 97.23 160.52 96.82 L160.52 91.54 C160.52 91.05 160.47
						 90.74 160.37 90.61 C160.22 90.42 159.97 90.32 159.64 90.32 L159.35 90.32 L159.35 90.09 L162.85 90.09 L162.85
						 90.32 L162.55 90.32 ZM169.4 98.27 L169.4 98.04 C169.45 98.03 169.48 98.03 169.5 98.02 C169.78 97.98 169.98
						 97.9 170.1 97.8 C170.21 97.69 170.27 97.58 170.27 97.46 C170.27 97.28 170.18 96.96 169.99 96.49 L168.05
						 91.76 L165.97 96.55 C165.78 96.98 165.69 97.29 165.69 97.49 C165.69 97.64 165.75 97.76 165.86 97.85 C165.97
						 97.94 166.22 98 166.6 98.04 L166.6 98.27 L163.26 98.27 L163.26 98.04 C163.51 98.02 163.71 97.98 163.85 97.91
						 C164 97.84 164.12 97.74 164.22 97.62 C164.29 97.54 164.4 97.32 164.56 96.96 L167.61 89.91 L167.84 89.91
						 L170.7 96.86 C170.86 97.27 171.05 97.57 171.26 97.76 C171.41 97.9 171.63 97.99 171.92 98.04 L171.92 98.27
						 L169.4 98.27 ZM176.89 97.82 C177.3 97.82 177.58 97.79 177.74 97.73 C177.94 97.65 178.09 97.52 178.19 97.36
						 C178.3 97.2 178.39 96.9 178.47 96.47 L178.71 96.47 L178.63 98.27 L172.32 98.27 L172.32 98.04 L172.61 98.04
						 C172.95 98.04 173.19 97.96 173.33 97.8 C173.44 97.68 173.49 97.36 173.49 96.85 L173.49 91.54 C173.49 91.14
						 173.47 90.88 173.42 90.75 C173.38 90.62 173.29 90.52 173.16 90.46 C172.99 90.37 172.8 90.32 172.61 90.32
						 L172.32 90.32 L172.32 90.09 L178.62 90.09 L179.33 92.14 L179.09 92.14 C178.83 91.64 178.57 91.26 178.32
						 91.01 C178.13 90.82 177.93 90.7 177.72 90.63 C177.51 90.57 177.17 90.54 176.71 90.54 L175.32 90.54 C175.1
						 90.54 174.95 90.56 174.87 90.61 C174.79 90.65 174.73 90.72 174.7 90.79 C174.67 90.87 174.65 91.09 174.65
						 91.46 L174.65 94.16 L176.43 94.16 C176.77 94.16 177.03 94.12 177.19 94.04 C177.36 93.96 177.47 93.84 177.55
						 93.7 C177.6 93.59 177.66 93.34 177.71 92.94 L177.94 92.94 L177.94 95.8 L177.71 95.8 C177.69 95.33 177.57
						 95 177.37 94.81 C177.21 94.67 176.9 94.6 176.43 94.6 L174.65 94.6 L174.65 97.82 L176.89 97.82 ZM187.97 90.32
						 C187.52 90.37 187.16 90.48 186.88 90.66 C186.6 90.83 186.27 91.19 185.89 91.73 L184.19 94.08 C184.88 94.23
						 185.38 94.49 185.71 94.86 C186.04 95.23 186.2 95.66 186.2 96.17 C186.2 96.64 186.06 97.04 185.77 97.38 C185.48
						 97.72 185.13 97.95 184.72 98.08 C184.31 98.21 183.67 98.27 182.8 98.27 L179.83 98.27 L179.83 98.04 L180.14
						 98.04 C180.44 98.04 180.68 97.95 180.83 97.78 C180.94 97.65 181 97.33 181 96.82 L181 91.54 C181 91.07 180.96
						 90.78 180.87 90.66 C180.73 90.43 180.48 90.32 180.14 90.32 L179.83 90.32 L179.83 90.09 L183.33 90.09 L183.33
						 90.32 L183.01 90.32 C182.71 90.32 182.48 90.41 182.33 90.58 C182.21 90.71 182.16 91.03 182.16 91.54 L182.16
						 93.92 C182.22 93.91 182.28 93.91 182.35 93.91 C182.41 93.9 182.46 93.9 182.51 93.9 C182.64 93.9 182.81 93.91
						 183.01 93.92 L185.78 90.09 L187.97 90.09 L187.97 90.32 ZM182.16 97.69 C182.55 97.77 182.86 97.81 183.09
						 97.81 C183.61 97.81 184.03 97.65 184.34 97.33 C184.66 97.01 184.81 96.6 184.81 96.09 C184.81 95.57 184.62
						 95.14 184.23 94.8 C183.84 94.46 183.26 94.3 182.49 94.3 C182.46 94.3 182.41 94.3 182.35 94.3 C182.3 94.3
						 182.23 94.3 182.16 94.3 L182.16 97.69 ZM193.28 98.45 C193.24 98.26 193.19 98.14 193.12 98.07 C193.06 98.01
						 192.97 97.98 192.87 97.98 C192.77 97.98 192.61 98.03 192.39 98.13 C191.9 98.34 191.44 98.45 191.01 98.45
						 C190.31 98.45 189.74 98.24 189.29 97.82 C188.84 97.39 188.61 96.89 188.61 96.3 C188.61 95.96 188.69 95.65
						 188.84 95.37 C189 95.09 189.22 94.83 189.52 94.6 C189.81 94.37 190.31 94.06 191.01 93.67 C191.72 93.28 192.14
						 93.02 192.3 92.9 C192.53 92.73 192.7 92.53 192.81 92.33 C192.92 92.12 192.98 91.92 192.98 91.72 C192.98
						 91.36 192.83 91.04 192.54 90.78 C192.25 90.51 191.86 90.38 191.35 90.38 C190.92 90.38 190.52 90.48 190.16
						 90.67 C189.79 90.86 189.52 91.11 189.35 91.4 C189.17 91.69 189.03 92.13 188.93 92.72 L188.7 92.72 L188.7
						 89.91 L188.93 89.91 C188.95 90.1 189 90.23 189.06 90.29 C189.11 90.35 189.19 90.38 189.29 90.38 C189.4 90.38
						 189.65 90.32 190.04 90.19 C190.43 90.06 190.69 89.99 190.81 89.96 C191.02 89.93 191.24 89.91 191.48 89.91
						 C192.24 89.91 192.85 90.13 193.33 90.58 C193.81 91.03 194.05 91.56 194.05 92.18 C194.05 92.51 193.98 92.82
						 193.83 93.11 C193.68 93.41 193.46 93.67 193.18 93.89 C192.9 94.11 192.38 94.42 191.62 94.83 C190.68 95.33
						 190.09 95.73 189.84 96.04 C189.66 96.24 189.58 96.47 189.58 96.72 C189.58 97.04 189.71 97.33 189.99 97.59
						 C190.26 97.84 190.61 97.97 191.02 97.97 C191.39 97.97 191.75 97.87 192.1 97.68 C192.44 97.49 192.71 97.24
						 192.89 96.92 C193.08 96.59 193.21 96.16 193.28 95.62 L193.51 95.62 L193.51 98.45 L193.28 98.45 ZM198.24
						 90.32 C198.05 90.32 197.87 90.37 197.7 90.46 C197.57 90.54 197.48 90.62 197.44 90.72 C197.39 90.85 197.36
						 91.13 197.36 91.54 L197.36 96.82 C197.36 97.31 197.41 97.62 197.52 97.75 C197.67 97.94 197.91 98.04 198.24
						 98.04 L198.54 98.04 L198.54 98.27 L195.04 98.27 L195.04 98.04 L195.33 98.04 C195.52 98.04 195.7 97.99 195.88
						 97.9 C196.01 97.82 196.09 97.74 196.13 97.64 C196.18 97.51 196.21 97.23 196.21 96.82 L196.21 91.54 C196.21
						 91.05 196.16 90.74 196.06 90.61 C195.91 90.42 195.66 90.32 195.33 90.32 L195.04 90.32 L195.04 90.09 L198.54
						 90.09 L198.54 90.32 L198.24 90.32 ZM199.3 98.27 L199.21 96.35 L199.44 96.35 C199.47 96.72 199.56 97.01 199.71
						 97.23 C199.85 97.44 200.03 97.59 200.24 97.67 C200.41 97.72 200.68 97.75 201.06 97.75 L202.05 97.75 L202.05
						 91.51 C202.05 91.06 202 90.76 201.91 90.63 C201.77 90.42 201.52 90.32 201.17 90.32 L200.88 90.32 L200.88
						 90.09 L204.36 90.09 L204.36 90.32 L204.08 90.32 C203.76 90.32 203.52 90.4 203.37 90.57 C203.26 90.7 203.2
						 91.01 203.2 91.51 L203.2 97.75 L204.35 97.75 C204.69 97.75 204.96 97.7 205.17 97.59 C205.38 97.47 205.54
						 97.3 205.67 97.07 C205.74 96.92 205.8 96.68 205.85 96.35 L206.07 96.35 L205.99 98.27 L199.3 98.27 ZM212.28
						 98.04 C212.5 98.04 212.66 98.02 212.77 97.97 C212.88 97.92 212.96 97.85 213.02 97.76 C213.08 97.67 213.11
						 97.57 213.11 97.46 C213.11 97.27 212.99 96.99 212.74 96.62 L211.13 94.1 L209.43 96.73 C209.19 97.11 209.06
						 97.37 209.06 97.51 C209.06 97.69 209.14 97.82 209.3 97.91 C209.46 98 209.63 98.04 209.82 98.04 L210.01 98.04
						 L210.01 98.27 L206.51 98.27 L206.51 98.04 C206.67 98.04 206.78 98.02 206.86 97.98 C207.16 97.84 207.36 97.72
						 207.45 97.62 C207.55 97.52 207.73 97.28 207.99 96.88 L210.23 93.43 L210.23 91.51 C210.23 91.06 210.19 90.76
						 210.1 90.63 C209.95 90.42 209.7 90.32 209.35 90.32 L209.06 90.32 L209.06 90.09 L212.56 90.09 L212.56 90.32
						 L212.29 90.32 C211.96 90.32 211.71 90.4 211.56 90.57 C211.45 90.7 211.39 91.01 211.39 91.51 L211.39 93.58
						 L213.36 96.66 C213.6 97.05 213.81 97.33 213.97 97.51 C214.14 97.68 214.32 97.81 214.52 97.9 C214.72 97.99
						 214.87 98.04 214.98 98.04 L215.14 98.04 L215.14 98.27 L212.28 98.27 L212.28 98.04 Z" class="st1"/>
		</g>
	</g>
</svg>
