<?xml version="1.0" encoding="UTF-8" standalone="no"?>
<!DOCTYPE svg PUBLIC "-//W3C//DTD SVG 1.1//EN" "http://www.w3.org/Graphics/SVG/1.1/DTD/svg11.dtd">
<!-- 由 Microsoft Visio, SVG Export 生成 华师 图标.svg Page-1 -->
<svg xmlns="http://www.w3.org/2000/svg" xmlns:xlink="http://www.w3.org/1999/xlink" xmlns:ev="http://www.w3.org/2001/xml-events"
		xmlns:v="http://schemas.microsoft.com/visio/2003/SVGExtensions/" width="1.5566in" height="1.65896in"
		viewBox="0 0 112.075 119.445" xml:space="preserve" color-interpolation-filters="sRGB" class="st6">
	<v:documentProperties v:langID="2052" v:metric="true" v:viewMarkup="false">
		<v:userDefs>
			<v:ud v:nameU="msvNoAutoConnect" v:val="VT0(1):26"/>
		</v:userDefs>
	</v:documentProperties>

	<style type="text/css">
	<![CDATA[
		.st1 {fill:#96a0a5;stroke:none;stroke-linecap:butt;stroke-width:0.1}
		.st2 {fill:#bf1b2c;stroke:none;stroke-linecap:butt;stroke-width:0.1}
		.st3 {fill:#0c3b66;stroke:none;stroke-linecap:butt;stroke-width:0.1}
		.st4 {fill:#d1e5f7;stroke:none;stroke-linecap:butt;stroke-width:0.1}
		.st5 {fill:#ffffff;stroke:none;stroke-linecap:butt;stroke-width:0.1}
		.st6 {fill:none;fill-rule:evenodd;font-size:12px;overflow:visible;stroke-linecap:square;stroke-miterlimit:3}
	]]>
	</style>

	<g v:mID="0" v:index="1" v:groupContext="foregroundPage">
		<title>页-1</title>
		<v:pageProperties v:drawingScale="0.0393701" v:pageScale="0.0393701" v:drawingUnits="24" v:shadowOffsetX="9"
				v:shadowOffsetY="-9"/>
		<g id="shape1-1" v:mID="1" v:groupContext="shape" transform="translate(88.692,177.076) scale(1,-1)">
			<title>path12</title>
			<path d="M0 119.44 C0.11 119.17 2.81 115.28 0.15 109.71 C3.6 112.29 4.97 111.5 5.28 112.39 C4.64 116.56 1.59 118.54 0
						 119.44 Z" class="st1"/>
		</g>
		<g id="shape2-3" v:mID="2" v:groupContext="shape" transform="translate(81.412,192.445) scale(1,-1)">
			<title>path14</title>
			<path d="M1.65 110.79 C3.53 113.15 8.22 116.97 12.56 117.54 L12.56 119.44 C12.56 119.44 4.42 118.36 0.58 112.7 C0 112.13
						 1.52 110.63 1.65 110.79 Z" class="st2"/>
		</g>
		<g id="shape3-5" v:mID="3" v:groupContext="shape" transform="translate(79.087,185.316) scale(1,-1)">
			<title>path16</title>
			<path d="M3.72 105.45 C6.83 109.32 12.03 111.89 14.88 112.24 L14.88 119.44 C14.88 119.44 5.87 117.7 2.09 112.96 C0 109.7
						 3.16 104.75 3.72 105.45 Z" class="st3"/>
		</g>
		<g id="shape4-7" v:mID="4" v:groupContext="shape" transform="translate(77.97,191.246) scale(1,-1)">
			<title>path18</title>
			<path d="M6.78 113.04 C3.28 115.62 2.62 119.27 2.73 119.44 C0 116.84 0.65 108.35 4.6 105.16 C8.32 102.15 12.6 109.07
						 12.6 109.07 C11.37 110.32 8.9 111.72 6.78 113.04 Z" class="st1"/>
		</g>
		<g id="shape5-9" v:mID="5" v:groupContext="shape" transform="translate(80.518,184.126) scale(1,-1)">
			<title>path20</title>
			<path d="M0.08 110.61 C3.23 115.05 10.73 117.71 13.45 117.85 L13.45 119.44 C13.45 119.44 5.81 118.5 0.41 112.99 C0.27
						 112.38 0 111.3 0.08 110.61 Z" class="st4"/>
		</g>
		<g id="shape6-11" v:mID="6" v:groupContext="shape" transform="translate(18.1,192.445) scale(1,-1)">
			<title>path22</title>
			<path d="M10.91 110.79 C8.63 113.6 4.29 116.86 0 117.77 L0 119.44 C0 119.44 8.13 118.36 11.98 112.7 C12.56 112.13 11.04
						 110.63 10.91 110.79 Z" class="st2"/>
		</g>
		<g id="shape7-13" v:mID="7" v:groupContext="shape" transform="translate(18.1,185.316) scale(1,-1)">
			<title>path24</title>
			<path d="M11.18 105.4 C8.41 109.09 3.34 111.58 0 112.24 L0 119.44 C0 119.44 9.01 117.7 12.79 112.96 C14.88 109.7 11.72
						 104.68 11.18 105.4 Z" class="st3"/>
		</g>
		<g id="shape8-15" v:mID="8" v:groupContext="shape" transform="translate(18.1,177.076) scale(1,-1)">
			<title>path26</title>
			<path d="M9.22 98.87 C12.72 101.45 13.38 105.1 13.27 105.27 C16 102.67 15.35 94.18 11.4 90.99 C7.68 87.98 3.63 94.89
						 3.63 94.89 C4.87 96.15 7.1 97.55 9.22 98.87 ZM5.28 119.44 C5.17 119.17 2.47 115.28 5.13 109.71 C1.68 112.29
						 0.31 111.5 0 112.39 C0.64 116.56 3.69 118.54 5.28 119.44 Z" class="st1"/>
		</g>
		<g id="shape9-17" v:mID="9" v:groupContext="shape" transform="translate(18.1,184.126) scale(1,-1)">
			<title>path28</title>
			<path d="M13.37 110.61 C10.22 115.05 2.72 117.71 0 117.85 L0 119.44 C0 119.44 7.64 118.5 13.04 112.99 C13.18 112.38 13.45
						 111.3 13.37 110.61 Z" class="st4"/>
		</g>
		<g id="shape10-19" v:mID="10" v:groupContext="shape" transform="translate(21.73,201.884) scale(1,-1)">
			<title>path30</title>
			<path d="M0 118.94 C12.88 118.63 17.65 109.88 33.41 109.88 C48.58 109.88 50.43 117.39 68.86 119.44 L68.86 110.39 C56.67
						 110.39 46.17 100.66 33.74 101.12 C22.02 101.57 8.52 109.89 0 110.21 L0 118.94 Z" class="st3"/>
		</g>
		<g id="shape11-21" v:mID="11" v:groupContext="shape" transform="translate(21.73,210.429) scale(1,-1)">
			<title>path32</title>
			<path d="M0 119.43 C0.78 119.35 1.82 119.08 3.14 118.79 C14.46 116.14 22.14 111.49 34.35 110.63 C47.82 111.38 57.53 118.92
						 68.86 119.44 L68.86 117.93 C56.73 116.76 49.83 110.14 34.35 109.08 C20.29 110.11 9.67 116.39 0 117.75 L0
						 119.43 Z" class="st2"/>
		</g>
		<g id="shape12-23" v:mID="12" v:groupContext="shape" transform="translate(21.73,201.571) scale(1,-1)">
			<title>path34</title>
			<path d="M0 119.39 C9.75 118.28 21.6 111.45 34.35 110.07 C47.12 110.8 51.15 116.53 68.86 119.44 L68.86 117.68 C53.48
						 115.53 46.82 109.21 34.35 108.61 C20.16 109.98 12.29 115.66 0 117.68 L0 119.39 Z" class="st4"/>
		</g>
		<g id="shape13-25" v:mID="13" v:groupContext="shape" transform="translate(23.489,206.424) scale(1,-1)">
			<title>path36</title>
			<path d="M2.31 119.19 L2.02 118.12 L1.95 118.14 C1.99 118.35 1.99 118.52 1.97 118.66 C1.94 118.8 1.89 118.91 1.81 119.01
						 C1.72 119.11 1.62 119.18 1.51 119.21 C1.39 119.24 1.27 119.22 1.16 119.14 C1.06 119.07 0.99 118.97 0.95
						 118.85 C0.93 118.76 0.93 118.66 0.96 118.57 C1.01 118.44 1.14 118.24 1.37 117.98 C1.56 117.76 1.69 117.6
						 1.75 117.5 C1.81 117.39 1.85 117.28 1.86 117.16 C1.88 117.03 1.87 116.91 1.84 116.78 C1.77 116.55 1.65 116.37
						 1.46 116.24 C1.27 116.11 1.06 116.08 0.83 116.14 C0.76 116.15 0.7 116.18 0.64 116.21 C0.6 116.23 0.53 116.28
						 0.43 116.35 C0.32 116.43 0.26 116.48 0.22 116.49 C0.19 116.49 0.17 116.49 0.14 116.47 C0.12 116.45 0.09
						 116.41 0.07 116.34 L0 116.36 L0.28 117.41 L0.35 117.4 C0.32 117.17 0.32 116.99 0.34 116.87 C0.37 116.74
						 0.42 116.63 0.51 116.53 C0.6 116.43 0.71 116.36 0.84 116.32 C0.99 116.28 1.13 116.3 1.24 116.38 C1.35 116.45
						 1.43 116.56 1.47 116.7 C1.49 116.77 1.49 116.85 1.48 116.94 C1.47 117.02 1.43 117.11 1.38 117.2 C1.35 117.25
						 1.25 117.38 1.07 117.59 C0.9 117.79 0.79 117.95 0.72 118.06 C0.66 118.17 0.61 118.28 0.6 118.4 C0.58 118.52
						 0.59 118.64 0.62 118.77 C0.68 118.99 0.8 119.16 0.98 119.29 C1.16 119.41 1.35 119.44 1.56 119.39 C1.69 119.35
						 1.82 119.28 1.94 119.16 C2 119.1 2.04 119.07 2.07 119.06 C2.1 119.05 2.13 119.06 2.15 119.08 C2.18 119.1
						 2.21 119.14 2.24 119.21 L2.31 119.19 Z" class="st5"/>
		</g>
		<g id="shape14-27" v:mID="14" v:groupContext="shape" transform="translate(25.77,207.09) scale(1,-1)">
			<title>path38</title>
			<path d="M1.67 119.21 C1.45 119.26 1.25 119.2 1.07 119.03 C0.84 118.82 0.66 118.46 0.54 117.97 C0.41 117.46 0.4 117.05
						 0.51 116.74 C0.59 116.5 0.74 116.35 0.95 116.3 C1.18 116.24 1.4 116.3 1.61 116.49 C1.82 116.68 1.98 117.02
						 2.1 117.51 C2.23 118.04 2.25 118.46 2.15 118.76 C2.07 119 1.91 119.15 1.67 119.21 ZM1.75 119.36 C2.07 119.28
						 2.31 119.06 2.47 118.7 C2.63 118.33 2.65 117.93 2.53 117.47 C2.42 117 2.2 116.64 1.89 116.38 C1.58 116.13
						 1.25 116.05 0.92 116.13 C0.58 116.22 0.33 116.44 0.17 116.8 C0.02 117.16 0 117.58 0.12 118.06 C0.24 118.56
						 0.48 118.92 0.82 119.17 C1.12 119.38 1.43 119.44 1.75 119.36 Z" class="st5"/>
		</g>
		<g id="shape15-29" v:mID="15" v:groupContext="shape" transform="translate(28.663,207.624) scale(1,-1)">
			<title>path40</title>
			<path d="M2.02 118.86 L2.04 118.94 L2.91 118.7 L2.89 118.61 L2.79 118.64 C2.7 118.67 2.61 118.64 2.53 118.55 C2.49 118.51
						 2.45 118.41 2.4 118.24 L2.04 116.99 C1.95 116.69 1.86 116.45 1.76 116.3 C1.66 116.14 1.53 116.02 1.35 115.94
						 C1.17 115.86 0.96 115.86 0.72 115.93 C0.45 116 0.26 116.12 0.16 116.28 C0.06 116.43 0 116.61 0 116.83 C0
						 116.97 0.05 117.23 0.16 117.6 L0.5 118.8 C0.56 118.99 0.57 119.12 0.55 119.19 C0.52 119.26 0.46 119.31 0.37
						 119.33 L0.28 119.36 L0.3 119.44 L1.36 119.14 L1.34 119.06 L1.24 119.09 C1.14 119.11 1.06 119.09 0.99 119.03
						 C0.94 118.98 0.9 118.87 0.85 118.7 L0.46 117.36 C0.43 117.24 0.4 117.1 0.37 116.95 C0.35 116.79 0.34 116.66
						 0.37 116.56 C0.39 116.46 0.43 116.37 0.5 116.29 C0.57 116.21 0.67 116.15 0.79 116.12 C0.95 116.07 1.11 116.07
						 1.26 116.12 C1.41 116.18 1.53 116.26 1.61 116.39 C1.7 116.51 1.79 116.73 1.88 117.06 L2.24 118.3 C2.3 118.49
						 2.31 118.62 2.29 118.68 C2.26 118.75 2.2 118.81 2.11 118.84 L2.02 118.86 Z" class="st5"/>
		</g>
		<g id="shape16-31" v:mID="16" v:groupContext="shape" transform="translate(31.335,208.431) scale(1,-1)">
			<title>path42</title>
			<path d="M2.45 118.84 L2.26 118.11 L2.19 118.13 C2.21 118.27 2.23 118.36 2.22 118.42 C2.21 118.52 2.18 118.6 2.13 118.66
						 C2.08 118.72 2.01 118.76 1.91 118.8 L1.56 118.9 L0.85 116.57 C0.79 116.38 0.77 116.26 0.79 116.2 C0.82 116.13
						 0.88 116.07 0.97 116.04 L1.06 116.02 L1.03 115.94 L0 116.25 L0.03 116.33 L0.11 116.31 C0.21 116.28 0.3 116.29
						 0.37 116.36 C0.41 116.4 0.45 116.5 0.51 116.67 L1.22 119 L0.93 119.1 C0.81 119.13 0.73 119.14 0.68 119.14
						 C0.6 119.13 0.54 119.09 0.47 119.02 C0.4 118.95 0.34 118.85 0.29 118.72 L0.22 118.74 L0.47 119.44 L2.45
						 118.84 Z" class="st5"/>
		</g>
		<g id="shape17-33" v:mID="17" v:groupContext="shape" transform="translate(33.033,209.105) scale(1,-1)">
			<title>path44</title>
			<path d="M1.22 117.81 L2.34 117.45 L2.62 118.32 C2.67 118.47 2.7 118.58 2.7 118.63 C2.7 118.67 2.68 118.71 2.65 118.75
						 C2.61 118.8 2.57 118.84 2.51 118.86 L2.42 118.89 L2.45 118.97 L3.48 118.63 L3.46 118.55 L3.37 118.58 C3.32
						 118.6 3.26 118.6 3.19 118.58 C3.15 118.57 3.11 118.54 3.08 118.5 C3.05 118.45 3.01 118.36 2.96 118.21 L2.33
						 116.25 C2.28 116.09 2.25 115.99 2.25 115.94 C2.25 115.89 2.26 115.85 2.29 115.82 C2.33 115.76 2.38 115.73
						 2.44 115.71 L2.52 115.68 L2.5 115.6 L1.46 115.93 L1.49 116.02 L1.58 115.99 C1.68 115.96 1.76 115.97 1.83
						 116.03 C1.87 116.07 1.93 116.18 1.98 116.36 L2.29 117.28 L1.16 117.65 L0.86 116.72 C0.81 116.57 0.79 116.46
						 0.79 116.41 C0.79 116.37 0.8 116.33 0.83 116.29 C0.87 116.24 0.92 116.2 0.97 116.18 L1.06 116.16 L1.03 116.07
						 L0 116.41 L0.03 116.49 L0.11 116.46 C0.21 116.43 0.3 116.45 0.36 116.5 C0.41 116.54 0.46 116.65 0.52 116.83
						 L1.16 118.79 C1.21 118.95 1.23 119.05 1.23 119.11 C1.23 119.15 1.22 119.19 1.19 119.23 C1.15 119.28 1.1
						 119.32 1.04 119.33 L0.96 119.36 L0.99 119.44 L2.02 119.11 L1.99 119.03 L1.91 119.05 C1.85 119.07 1.79 119.07
						 1.73 119.06 C1.68 119.04 1.65 119.02 1.62 118.97 C1.59 118.93 1.55 118.83 1.5 118.68 L1.22 117.81 Z"
					class="st5"/>
		</g>
		<g id="shape18-35" v:mID="18" v:groupContext="shape" transform="translate(36.989,210.517) scale(1,-1)">
			<title>path46</title>
			<path d="M2.74 119.1 L2.46 118.05 L2.41 118.07 C2.43 118.4 2.4 118.66 2.31 118.84 C2.22 119.02 2.07 119.14 1.88 119.2
						 C1.72 119.25 1.56 119.25 1.4 119.19 C1.23 119.13 1.08 119 0.93 118.8 C0.79 118.6 0.66 118.33 0.55 118 C0.46
						 117.73 0.42 117.48 0.42 117.25 C0.43 117.03 0.48 116.84 0.59 116.69 C0.69 116.53 0.84 116.43 1.02 116.37
						 C1.18 116.32 1.33 116.31 1.48 116.36 C1.62 116.4 1.81 116.53 2.03 116.73 L2.08 116.67 C1.87 116.44 1.66
						 116.29 1.46 116.22 C1.26 116.14 1.04 116.14 0.82 116.22 C0.42 116.34 0.17 116.63 0.07 117.08 C0 117.41 0.02
						 117.76 0.15 118.14 C0.24 118.44 0.39 118.7 0.58 118.92 C0.77 119.14 0.98 119.29 1.22 119.36 C1.45 119.44
						 1.68 119.44 1.91 119.37 C2.08 119.32 2.24 119.2 2.37 119.04 C2.41 118.99 2.44 118.96 2.46 118.96 C2.49 118.95
						 2.53 118.95 2.56 118.97 C2.6 119 2.64 119.05 2.68 119.12 L2.74 119.1 Z" class="st5"/>
		</g>
		<g id="shape19-37" v:mID="19" v:groupContext="shape" transform="translate(39.023,211.03) scale(1,-1)">
			<title>path48</title>
			<path d="M1.22 117.81 L2.34 117.45 L2.62 118.32 C2.67 118.47 2.7 118.58 2.7 118.63 C2.7 118.67 2.68 118.71 2.65 118.75
						 C2.61 118.81 2.57 118.84 2.51 118.86 L2.42 118.89 L2.45 118.97 L3.48 118.63 L3.46 118.55 L3.37 118.58 C3.31
						 118.6 3.26 118.6 3.19 118.58 C3.15 118.57 3.11 118.54 3.08 118.5 C3.05 118.45 3.01 118.36 2.96 118.21 L2.33
						 116.25 C2.28 116.09 2.25 115.99 2.25 115.94 C2.25 115.89 2.26 115.85 2.29 115.82 C2.33 115.76 2.38 115.73
						 2.44 115.71 L2.53 115.68 L2.5 115.6 L1.46 115.93 L1.49 116.02 L1.58 115.99 C1.68 115.96 1.76 115.97 1.83
						 116.03 C1.87 116.07 1.93 116.18 1.98 116.36 L2.29 117.28 L1.16 117.65 L0.86 116.72 C0.81 116.57 0.79 116.47
						 0.79 116.41 C0.78 116.37 0.8 116.33 0.83 116.29 C0.87 116.24 0.92 116.2 0.97 116.18 L1.06 116.16 L1.03 116.07
						 L0 116.41 L0.03 116.49 L0.11 116.46 C0.21 116.43 0.3 116.45 0.36 116.5 C0.41 116.54 0.46 116.65 0.52 116.83
						 L1.16 118.79 C1.21 118.95 1.23 119.05 1.23 119.11 C1.23 119.15 1.22 119.19 1.19 119.23 C1.15 119.28 1.1
						 119.32 1.04 119.33 L0.96 119.36 L0.98 119.44 L2.02 119.11 L1.99 119.03 L1.91 119.05 C1.85 119.07 1.79 119.07
						 1.73 119.05 C1.68 119.04 1.65 119.02 1.61 118.97 C1.59 118.93 1.55 118.83 1.5 118.68 L1.22 117.81 Z"
					class="st5"/>
		</g>
		<g id="shape20-39" v:mID="20" v:groupContext="shape" transform="translate(41.695,211.866) scale(1,-1)">
			<title>path50</title>
			<path d="M1.07 116.16 L1.04 116.08 L0 116.39 L0.02 116.48 L0.11 116.45 C0.21 116.42 0.29 116.43 0.36 116.49 C0.4 116.53
						 0.45 116.64 0.51 116.83 L1.11 118.8 C1.16 118.95 1.18 119.06 1.18 119.11 C1.18 119.15 1.17 119.19 1.14 119.23
						 C1.1 119.28 1.05 119.32 0.99 119.34 L0.91 119.36 L0.93 119.44 L1.97 119.13 L1.95 119.04 L1.86 119.07 C1.76
						 119.1 1.68 119.09 1.61 119.03 C1.56 118.99 1.51 118.88 1.46 118.69 L0.85 116.72 C0.81 116.57 0.78 116.46
						 0.78 116.41 C0.78 116.37 0.8 116.33 0.83 116.29 C0.87 116.24 0.92 116.2 0.98 116.18 L1.07 116.16 Z"
					class="st5"/>
		</g>
		<g id="shape21-41" v:mID="21" v:groupContext="shape" transform="translate(42.907,212.209) scale(1,-1)">
			<title>path52</title>
			<path d="M0.8 119.44 L1.46 119.24 L2.24 116.5 L2.78 118.26 C2.84 118.45 2.86 118.57 2.84 118.63 C2.81 118.7 2.75 118.76
						 2.66 118.78 L2.57 118.81 L2.6 118.89 L3.44 118.64 L3.42 118.55 L3.33 118.58 C3.23 118.61 3.15 118.59 3.08
						 118.53 C3.04 118.49 2.99 118.38 2.94 118.21 L2.15 115.64 L2.09 115.66 L1.24 118.61 L0.66 116.73 C0.6 116.54
						 0.59 116.42 0.6 116.36 C0.63 116.28 0.69 116.23 0.78 116.2 L0.87 116.18 L0.84 116.09 L0 116.35 L0.02 116.43
						 L0.11 116.41 C0.21 116.38 0.3 116.39 0.37 116.46 C0.41 116.5 0.45 116.6 0.5 116.77 L1.15 118.9 C1.11 119.02
						 1.08 119.11 1.06 119.15 C1.03 119.19 0.99 119.24 0.92 119.29 C0.89 119.32 0.84 119.34 0.77 119.36 L0.8 119.44
						 Z" class="st5"/>
		</g>
		<g id="shape22-43" v:mID="22" v:groupContext="shape" transform="translate(45.501,213.277) scale(1,-1)">
			<title>path54</title>
			<path d="M1.94 117.4 L1.86 118.75 L1.09 117.62 L1.94 117.4 ZM1.94 117.22 L0.99 117.47 L0.7 117.03 C0.62 116.92 0.58 116.84
						 0.56 116.78 C0.55 116.73 0.56 116.68 0.58 116.64 C0.61 116.59 0.68 116.55 0.8 116.51 L0.77 116.42 L0 116.63
						 L0.02 116.71 C0.13 116.71 0.21 116.72 0.25 116.75 C0.33 116.81 0.43 116.94 0.57 117.14 L2.11 119.44 L2.17
						 119.43 L2.34 116.63 C2.36 116.41 2.38 116.26 2.42 116.18 C2.46 116.11 2.53 116.05 2.63 116.02 L2.61 115.93
						 L1.64 116.19 L1.66 116.27 C1.76 116.26 1.83 116.26 1.87 116.28 C1.92 116.31 1.95 116.35 1.96 116.4 C1.98
						 116.46 1.98 116.57 1.97 116.73 L1.94 117.22 Z" class="st5"/>
		</g>
		<g id="shape23-45" v:mID="23" v:groupContext="shape" transform="translate(49.169,213.888) scale(1,-1)">
			<title>path56</title>
			<path d="M0.53 119.44 L1.2 119.3 L2.22 116.64 L2.6 118.44 C2.64 118.63 2.65 118.75 2.63 118.81 C2.6 118.88 2.53 118.93
						 2.44 118.95 L2.35 118.97 L2.37 119.05 L3.23 118.87 L3.21 118.78 L3.13 118.8 C3.02 118.82 2.94 118.8 2.88
						 118.73 C2.84 118.69 2.8 118.58 2.77 118.4 L2.21 115.77 L2.14 115.78 L1.04 118.65 L0.63 116.72 C0.59 116.53
						 0.58 116.41 0.6 116.36 C0.63 116.28 0.7 116.23 0.79 116.21 L0.88 116.19 L0.86 116.11 L0 116.29 L0.02 116.38
						 L0.1 116.36 C0.21 116.34 0.29 116.36 0.35 116.43 C0.39 116.47 0.43 116.58 0.47 116.76 L0.93 118.93 C0.88
						 119.05 0.84 119.13 0.81 119.18 C0.78 119.22 0.73 119.26 0.66 119.3 C0.63 119.33 0.58 119.34 0.51 119.36
						 L0.53 119.44 Z" class="st5"/>
		</g>
		<g id="shape24-47" v:mID="24" v:groupContext="shape" transform="translate(52.17,214.549) scale(1,-1)">
			<title>path58</title>
			<path d="M1.43 119.24 C1.21 119.27 1.02 119.18 0.86 118.98 C0.66 118.74 0.53 118.37 0.48 117.86 C0.43 117.34 0.47 116.94
						 0.62 116.64 C0.73 116.41 0.9 116.29 1.12 116.27 C1.36 116.24 1.57 116.34 1.75 116.55 C1.93 116.77 2.04 117.13
						 2.09 117.63 C2.15 118.17 2.11 118.58 1.97 118.86 C1.85 119.09 1.68 119.22 1.43 119.24 ZM1.49 119.41 C1.81
						 119.38 2.08 119.19 2.29 118.85 C2.5 118.51 2.58 118.11 2.53 117.64 C2.48 117.16 2.31 116.78 2.04 116.48
						 C1.76 116.19 1.45 116.06 1.11 116.1 C0.76 116.14 0.48 116.32 0.28 116.66 C0.08 116.99 0 117.4 0.05 117.9
						 C0.1 118.4 0.29 118.8 0.59 119.09 C0.86 119.34 1.16 119.44 1.49 119.41 Z" class="st5"/>
		</g>
		<g id="shape25-49" v:mID="25" v:groupContext="shape" transform="translate(54.834,214.83) scale(1,-1)">
			<title>path60</title>
			<path d="M0.78 117.87 C0.8 117.87 0.82 117.87 0.84 117.86 C0.86 117.86 0.87 117.86 0.88 117.86 C1.13 117.85 1.31 117.91
						 1.44 118.04 C1.56 118.17 1.63 118.33 1.64 118.54 C1.65 118.74 1.6 118.9 1.51 119.03 C1.41 119.16 1.28 119.22
						 1.12 119.23 C1.05 119.23 0.95 119.22 0.83 119.2 L0.78 117.87 ZM2.53 116.17 L1.85 116.19 L1.04 117.71 C0.98
						 117.71 0.93 117.71 0.88 117.71 C0.87 117.71 0.85 117.71 0.83 117.71 C0.81 117.72 0.79 117.72 0.77 117.72
						 L0.74 116.79 C0.74 116.59 0.75 116.47 0.78 116.42 C0.83 116.35 0.9 116.31 0.99 116.31 L1.09 116.3 L1.09
						 116.22 L0 116.26 L0 116.34 L0.1 116.34 C0.2 116.33 0.28 116.38 0.33 116.46 C0.36 116.51 0.38 116.63 0.38
						 116.81 L0.46 118.87 C0.46 119.07 0.45 119.19 0.42 119.24 C0.37 119.31 0.3 119.35 0.2 119.35 L0.11 119.36
						 L0.11 119.44 L1.03 119.41 C1.31 119.4 1.5 119.37 1.63 119.32 C1.76 119.26 1.86 119.17 1.95 119.03 C2.03
						 118.9 2.07 118.74 2.06 118.56 C2.06 118.36 2 118.19 1.89 118.05 C1.79 117.91 1.62 117.81 1.41 117.76 L1.9
						 116.83 C2.01 116.61 2.11 116.47 2.2 116.4 C2.28 116.33 2.39 116.28 2.53 116.25 L2.53 116.17 Z" class="st5"/>
		</g>
		<g id="shape26-51" v:mID="26" v:groupContext="shape" transform="translate(57.304,214.518) scale(1,-1)">
			<title>path62</title>
			<path d="M1.88 116.06 L0.58 118.61 L0.84 116.49 C0.87 116.3 0.9 116.18 0.94 116.13 C0.99 116.07 1.07 116.05 1.17 116.06
						 L1.26 116.07 L1.27 115.99 L0.39 115.88 L0.38 115.97 L0.47 115.97 C0.58 115.99 0.65 116.04 0.68 116.12 C0.7
						 116.18 0.7 116.29 0.68 116.47 L0.43 118.54 C0.41 118.68 0.38 118.78 0.35 118.84 C0.33 118.88 0.29 118.92
						 0.24 118.94 C0.19 118.97 0.11 118.97 0.01 118.96 L0 119.05 L0.71 119.13 L1.93 116.77 L2.53 119.36 L3.24
						 119.44 L3.25 119.36 L3.17 119.35 C3.06 119.33 2.99 119.28 2.95 119.2 C2.93 119.14 2.93 119.03 2.95 118.85
						 L3.21 116.78 C3.23 116.59 3.27 116.47 3.31 116.42 C3.36 116.36 3.44 116.34 3.53 116.35 L3.62 116.36 L3.63
						 116.28 L2.56 116.15 L2.55 116.23 L2.64 116.24 C2.75 116.26 2.82 116.31 2.85 116.39 C2.87 116.45 2.87 116.56
						 2.85 116.74 L2.59 118.85 L1.95 116.07 L1.88 116.06 Z" class="st5"/>
		</g>
		<g id="shape27-53" v:mID="27" v:groupContext="shape" transform="translate(61.275,214.113) scale(1,-1)">
			<title>path64</title>
			<path d="M1.4 117.53 L0.71 118.7 L0.54 117.35 L1.4 117.53 ZM1.48 117.37 L0.52 117.16 L0.46 116.64 C0.44 116.51 0.44 116.41
						 0.45 116.35 C0.46 116.3 0.49 116.27 0.53 116.24 C0.58 116.21 0.66 116.2 0.78 116.22 L0.8 116.13 L0.02 115.97
						 L0 116.05 C0.1 116.1 0.16 116.14 0.18 116.18 C0.23 116.27 0.27 116.43 0.29 116.68 L0.62 119.43 L0.69 119.44
						 L2.1 117.03 C2.22 116.84 2.31 116.71 2.38 116.66 C2.45 116.62 2.54 116.6 2.64 116.61 L2.66 116.53 L1.68
						 116.32 L1.66 116.4 C1.76 116.43 1.82 116.47 1.85 116.51 C1.87 116.55 1.88 116.6 1.87 116.65 C1.86 116.71
						 1.81 116.82 1.73 116.95 L1.48 117.37 Z" class="st5"/>
		</g>
		<g id="shape28-55" v:mID="28" v:groupContext="shape" transform="translate(63.148,213.55) scale(1,-1)">
			<title>path66</title>
			<path d="M2.73 117.55 L2.8 117.55 L2.86 116.66 L0.99 116.05 L0.96 116.14 L1.05 116.17 C1.15 116.2 1.21 116.26 1.23 116.36
						 C1.24 116.42 1.22 116.53 1.16 116.71 L0.52 118.66 C0.46 118.85 0.41 118.97 0.36 119 C0.29 119.05 0.21 119.06
						 0.12 119.04 L0.03 119.01 L0 119.09 L1.09 119.44 L1.12 119.36 C0.99 119.32 0.91 119.28 0.87 119.23 C0.82
						 119.18 0.8 119.13 0.8 119.08 C0.79 119.02 0.82 118.9 0.88 118.72 L1.5 116.82 C1.54 116.69 1.58 116.61 1.61
						 116.57 C1.64 116.54 1.67 116.53 1.7 116.52 C1.74 116.52 1.83 116.54 1.99 116.59 L2.16 116.65 C2.35 116.71
						 2.47 116.77 2.54 116.83 C2.6 116.89 2.65 116.97 2.68 117.07 C2.72 117.18 2.73 117.34 2.73 117.55 Z"
					class="st5"/>
		</g>
		<g id="shape29-57" v:mID="29" v:groupContext="shape" transform="translate(66.154,212.063) scale(1,-1)">
			<title>path68</title>
			<path d="M1.74 119.07 L1.71 119.15 L2.56 119.44 L2.59 119.36 L2.5 119.33 C2.41 119.3 2.35 119.23 2.33 119.11 C2.33 119.05
						 2.35 118.94 2.41 118.77 L2.83 117.55 C2.93 117.25 2.99 117 3 116.82 C3.01 116.64 2.97 116.46 2.87 116.29
						 C2.77 116.13 2.6 116 2.36 115.92 C2.1 115.83 1.87 115.82 1.7 115.88 C1.52 115.95 1.37 116.07 1.25 116.25
						 C1.17 116.36 1.07 116.61 0.94 116.97 L0.53 118.15 C0.47 118.33 0.41 118.45 0.35 118.49 C0.29 118.54 0.21
						 118.54 0.12 118.51 L0.03 118.48 L0 118.56 L1.04 118.92 L1.07 118.84 L0.98 118.81 C0.88 118.77 0.82 118.71
						 0.8 118.61 C0.79 118.55 0.82 118.43 0.87 118.27 L1.33 116.95 C1.37 116.83 1.42 116.7 1.49 116.56 C1.56 116.41
						 1.63 116.3 1.71 116.24 C1.78 116.17 1.87 116.12 1.97 116.09 C2.08 116.07 2.19 116.08 2.31 116.12 C2.47 116.17
						 2.59 116.26 2.69 116.39 C2.78 116.52 2.83 116.66 2.83 116.81 C2.83 116.96 2.77 117.19 2.66 117.52 L2.24
						 118.74 C2.18 118.93 2.12 119.04 2.07 119.07 C2 119.12 1.92 119.13 1.83 119.1 L1.74 119.07 Z" class="st5"/>
		</g>
		<g id="shape30-59" v:mID="30" v:groupContext="shape" transform="translate(68.655,211.132) scale(1,-1)">
			<title>path70</title>
			<path d="M0 118.5 L0.65 118.73 L2.93 117.01 L2.3 118.75 C2.23 118.93 2.17 119.04 2.12 119.07 C2.06 119.12 1.98 119.12
						 1.88 119.09 L1.8 119.06 L1.77 119.14 L2.6 119.44 L2.63 119.36 L2.55 119.33 C2.44 119.3 2.39 119.23 2.37
						 119.14 C2.36 119.08 2.39 118.97 2.45 118.8 L3.37 116.27 L3.31 116.25 L0.85 118.09 L1.53 116.25 C1.59 116.06
						 1.65 115.95 1.7 115.92 C1.77 115.87 1.85 115.87 1.94 115.9 L2.02 115.93 L2.05 115.85 L1.22 115.55 L1.19
						 115.63 L1.28 115.66 C1.38 115.69 1.44 115.76 1.45 115.85 C1.46 115.91 1.43 116.02 1.37 116.19 L0.61 118.27
						 C0.51 118.35 0.43 118.4 0.38 118.42 C0.33 118.44 0.27 118.45 0.19 118.45 C0.15 118.45 0.1 118.44 0.03 118.42
						 L0 118.5 Z" class="st5"/>
		</g>
		<g id="shape31-61" v:mID="31" v:groupContext="shape" transform="translate(71.392,210.696) scale(1,-1)">
			<title>path72</title>
			<path d="M2.08 116.53 L2.11 116.45 L1.09 116.07 L1.06 116.16 L1.14 116.19 C1.24 116.22 1.3 116.28 1.32 116.37 C1.33 116.43
						 1.3 116.55 1.24 116.73 L0.53 118.67 C0.48 118.82 0.44 118.92 0.4 118.96 C0.38 118.99 0.34 119.01 0.3 119.03
						 C0.23 119.05 0.17 119.04 0.11 119.02 L0.03 118.99 L0 119.07 L1.02 119.44 L1.05 119.36 L0.97 119.33 C0.87
						 119.3 0.81 119.24 0.79 119.15 C0.78 119.09 0.81 118.97 0.87 118.79 L1.58 116.85 C1.63 116.7 1.68 116.6 1.71
						 116.56 C1.74 116.53 1.77 116.51 1.82 116.49 C1.88 116.48 1.94 116.48 2 116.5 L2.08 116.53 Z" class="st5"/>
		</g>
		<g id="shape32-63" v:mID="32" v:groupContext="shape" transform="translate(72.531,209.72) scale(1,-1)">
			<title>path74</title>
			<path d="M2.53 119.44 L2.56 119.36 C2.48 119.31 2.43 119.26 2.4 119.19 C2.37 119.1 2.35 118.96 2.36 118.8 L2.45 115.94
						 L2.39 115.92 L0.55 118.18 C0.46 118.3 0.4 118.37 0.37 118.39 C0.32 118.42 0.27 118.45 0.22 118.46 C0.17
						 118.47 0.11 118.46 0.03 118.44 L0 118.52 L0.98 118.88 L1 118.8 C0.9 118.74 0.84 118.7 0.82 118.65 C0.8 118.6
						 0.8 118.55 0.81 118.5 C0.84 118.43 0.91 118.32 1.02 118.18 L2.27 116.65 L2.2 118.59 C2.19 118.78 2.18 118.91
						 2.15 118.98 C2.14 119.02 2.11 119.05 2.06 119.08 C2.01 119.1 1.94 119.11 1.85 119.1 C1.85 119.1 1.84 119.1
						 1.82 119.1 L1.79 119.18 L2.53 119.44 Z" class="st5"/>
		</g>
		<g id="shape33-65" v:mID="33" v:groupContext="shape" transform="translate(75.224,209.007) scale(1,-1)">
			<title>path76</title>
			<path d="M0.74 118.88 L1.15 117.68 L1.68 117.87 C1.82 117.91 1.9 117.97 1.93 118.04 C1.97 118.13 1.96 118.26 1.91 118.43
						 L1.97 118.46 L2.33 117.41 L2.27 117.38 C2.2 117.53 2.15 117.61 2.12 117.65 C2.08 117.69 2.03 117.72 1.97
						 117.74 C1.92 117.75 1.84 117.74 1.74 117.7 L1.21 117.52 L1.55 116.53 C1.6 116.39 1.63 116.31 1.65 116.29
						 C1.67 116.26 1.69 116.24 1.72 116.23 C1.75 116.23 1.8 116.23 1.87 116.26 L2.27 116.4 C2.41 116.44 2.5 116.49
						 2.56 116.54 C2.61 116.58 2.65 116.65 2.69 116.74 C2.73 116.85 2.75 117.02 2.77 117.23 L2.84 117.25 L2.89
						 116.43 L1.04 115.79 L1.01 115.87 L1.1 115.9 C1.15 115.92 1.2 115.96 1.24 116.01 C1.27 116.04 1.28 116.09
						 1.28 116.14 C1.28 116.19 1.25 116.29 1.2 116.44 L0.53 118.4 C0.46 118.59 0.4 118.7 0.36 118.74 C0.29 118.78
						 0.21 118.79 0.12 118.75 L0.03 118.72 L0 118.81 L1.85 119.44 L2.11 118.79 L2.04 118.77 C1.96 118.92 1.89
						 119.02 1.84 119.07 C1.79 119.12 1.73 119.15 1.66 119.16 C1.61 119.16 1.52 119.14 1.4 119.1 L0.74 118.88
						 Z" class="st5"/>
		</g>
		<g id="shape34-67" v:mID="34" v:groupContext="shape" transform="translate(77.466,208.446) scale(1,-1)">
			<title>path78</title>
			<path d="M1.17 117.79 C1.19 117.79 1.21 117.8 1.23 117.8 C1.24 117.81 1.26 117.81 1.27 117.82 C1.5 117.89 1.65 118.01
						 1.73 118.17 C1.81 118.34 1.81 118.52 1.75 118.71 C1.69 118.9 1.59 119.04 1.46 119.13 C1.32 119.21 1.18 119.23
						 1.02 119.18 C0.95 119.16 0.87 119.12 0.76 119.05 L1.17 117.79 ZM3.39 116.78 L2.75 116.57 L1.47 117.73 C1.41
						 117.71 1.36 117.69 1.32 117.68 C1.3 117.67 1.29 117.67 1.27 117.66 C1.25 117.66 1.23 117.65 1.21 117.65
						 L1.5 116.76 C1.56 116.57 1.62 116.46 1.67 116.42 C1.73 116.37 1.81 116.36 1.9 116.39 L2 116.42 L2.02 116.34
						 L0.99 116 L0.96 116.09 L1.05 116.12 C1.15 116.15 1.21 116.21 1.23 116.31 C1.24 116.37 1.22 116.48 1.16 116.65
						 L0.52 118.61 C0.46 118.8 0.4 118.92 0.36 118.95 C0.29 119 0.21 119.02 0.12 118.99 L0.03 118.96 L0 119.04
						 L0.88 119.33 C1.14 119.41 1.33 119.44 1.47 119.44 C1.61 119.43 1.74 119.38 1.87 119.28 C1.99 119.18 2.08
						 119.04 2.14 118.87 C2.2 118.68 2.2 118.51 2.15 118.34 C2.1 118.17 1.98 118.02 1.8 117.9 L2.58 117.19 C2.76
						 117.03 2.9 116.93 3 116.89 C3.11 116.85 3.23 116.84 3.37 116.87 L3.39 116.78 Z" class="st5"/>
		</g>
		<g id="shape35-69" v:mID="35" v:groupContext="shape" transform="translate(80.33,207.488) scale(1,-1)">
			<title>path80</title>
			<path d="M1.29 119.44 L1.6 118.38 L1.53 118.36 C1.45 118.56 1.37 118.71 1.27 118.82 C1.18 118.92 1.08 119 0.95 119.04
						 C0.83 119.08 0.71 119.08 0.6 119.05 C0.48 119.01 0.39 118.94 0.33 118.82 C0.28 118.7 0.27 118.58 0.31 118.46
						 C0.33 118.36 0.38 118.28 0.46 118.22 C0.56 118.13 0.78 118.03 1.12 117.92 C1.39 117.83 1.58 117.76 1.68
						 117.7 C1.79 117.65 1.88 117.57 1.96 117.47 C2.04 117.37 2.1 117.26 2.13 117.14 C2.2 116.9 2.18 116.68 2.09
						 116.47 C1.99 116.26 1.83 116.13 1.61 116.06 C1.53 116.04 1.47 116.03 1.4 116.03 C1.36 116.02 1.28 116.03
						 1.14 116.04 C1.01 116.05 0.93 116.06 0.9 116.05 C0.87 116.04 0.85 116.02 0.84 115.99 C0.83 115.97 0.83 115.92
						 0.84 115.84 L0.78 115.82 L0.47 116.88 L0.54 116.9 C0.64 116.68 0.72 116.53 0.81 116.44 C0.89 116.34 1 116.28
						 1.13 116.23 C1.26 116.19 1.39 116.19 1.52 116.23 C1.67 116.27 1.77 116.35 1.83 116.48 C1.89 116.6 1.9 116.73
						 1.86 116.87 C1.84 116.95 1.8 117.02 1.74 117.08 C1.69 117.15 1.62 117.21 1.53 117.25 C1.47 117.29 1.31 117.35
						 1.06 117.43 C0.81 117.52 0.63 117.6 0.51 117.66 C0.4 117.72 0.31 117.8 0.23 117.89 C0.16 117.98 0.1 118.09
						 0.06 118.22 C0 118.44 0.01 118.65 0.1 118.84 C0.19 119.04 0.34 119.17 0.55 119.23 C0.68 119.27 0.83 119.27
						 0.99 119.23 C1.07 119.21 1.13 119.2 1.15 119.21 C1.18 119.22 1.21 119.24 1.22 119.27 C1.23 119.3 1.24 119.35
						 1.23 119.43 L1.29 119.44 Z" class="st5"/>
		</g>
		<g id="shape36-71" v:mID="36" v:groupContext="shape" transform="translate(82.205,207.155) scale(1,-1)">
			<title>path82</title>
			<path d="M1.81 116.43 L1.83 116.35 L0.77 116.08 L0.75 116.17 L0.84 116.19 C0.94 116.22 1.01 116.27 1.03 116.36 C1.05
						 116.41 1.03 116.53 0.99 116.72 L0.49 118.72 C0.45 118.88 0.42 118.98 0.39 119.03 C0.37 119.06 0.33 119.09
						 0.29 119.1 C0.23 119.13 0.17 119.13 0.11 119.12 L0.02 119.1 L0 119.18 L1.06 119.44 L1.08 119.36 L0.99 119.34
						 C0.89 119.31 0.82 119.26 0.8 119.17 C0.78 119.11 0.79 118.99 0.84 118.81 L1.34 116.81 C1.38 116.65 1.41
						 116.55 1.44 116.5 C1.46 116.47 1.49 116.44 1.54 116.42 C1.6 116.4 1.66 116.4 1.72 116.41 L1.81 116.43 Z"
					class="st5"/>
		</g>
		<g id="shape37-73" v:mID="37" v:groupContext="shape" transform="translate(83.598,206.635) scale(1,-1)">
			<title>path84</title>
			<path d="M2.03 119.44 L2.21 118.72 L2.14 118.71 C2.1 118.83 2.06 118.92 2.03 118.97 C1.97 119.05 1.91 119.1 1.83 119.13
						 C1.76 119.16 1.68 119.17 1.57 119.15 L1.22 119.07 L1.73 116.68 C1.77 116.49 1.81 116.38 1.85 116.34 C1.92
						 116.28 1.99 116.27 2.09 116.28 L2.18 116.3 L2.2 116.22 L1.14 115.99 L1.12 116.08 L1.21 116.1 C1.32 116.12
						 1.38 116.18 1.41 116.27 C1.42 116.32 1.42 116.43 1.38 116.61 L0.87 119 L0.57 118.93 C0.46 118.91 0.38 118.88
						 0.33 118.85 C0.27 118.8 0.23 118.74 0.2 118.64 C0.18 118.55 0.17 118.43 0.2 118.29 L0.12 118.28 L0 119.01
						 L2.03 119.44 Z" class="st5"/>
		</g>
		<g id="shape38-75" v:mID="38" v:groupContext="shape" transform="translate(86.005,206.155) scale(1,-1)">
			<title>path86</title>
			<path d="M1.77 119.32 L2.65 119.44 L2.67 119.36 L2.62 119.35 C2.58 119.35 2.54 119.32 2.48 119.28 C2.43 119.23 2.38 119.18
						 2.33 119.1 C2.29 119.03 2.25 118.91 2.19 118.75 L1.76 117.46 L1.87 116.67 C1.9 116.48 1.93 116.36 1.97 116.31
						 C2.03 116.26 2.1 116.23 2.21 116.25 L2.29 116.26 L2.3 116.17 L1.23 116.02 L1.22 116.11 L1.31 116.12 C1.41
						 116.14 1.48 116.19 1.52 116.28 C1.54 116.33 1.54 116.44 1.51 116.62 L1.41 117.37 L0.53 118.6 C0.43 118.74
						 0.36 118.83 0.32 118.86 C0.29 118.9 0.22 118.94 0.12 118.98 C0.1 118.99 0.06 118.99 0.01 118.99 L0 119.07
						 L1.07 119.22 L1.09 119.14 L1.03 119.13 C0.97 119.12 0.92 119.1 0.88 119.06 C0.83 119.01 0.82 118.96 0.83
						 118.89 C0.83 118.84 0.89 118.74 0.98 118.61 L1.65 117.66 L2.01 118.7 C2.06 118.86 2.08 118.97 2.07 119.05
						 C2.07 119.09 2.05 119.13 2.03 119.16 C2.01 119.19 1.98 119.21 1.94 119.23 C1.9 119.24 1.85 119.25 1.79 119.24
						 L1.77 119.32 Z" class="st5"/>
		</g>
		<g id="shape39-77" v:mID="39" v:groupContext="shape" transform="translate(31.034,157.406) scale(1,-1)">
			<title>path88</title>
			<path d="M49.99 119.44 C49.99 119.44 50.01 88.83 50.01 88.8 C50 88.8 49.97 88.68 49.97 88.68 C49.98 88.69 49.87 88.3
						 49.87 88.3 C47.13 77.89 38.77 70.87 25.02 67.43 C11.45 71.2 2.81 78.5 0.06 88.57 C0.06 88.57 0.04 88.66
						 0.03 88.7 C0.03 88.71 0 89.09 0 89.09 L0 119.44 L49.99 119.44 Z" class="st4"/>
		</g>
		<g id="shape40-79" v:mID="40" v:groupContext="shape" transform="translate(45.464,183.221) scale(1,-1)">
			<title>path90</title>
			<path d="M17.77 116.19 L13.29 109.67 L22.77 97.04 L18.64 95.63 L10.98 106.31 L3.2 94.98 L0 97.02 L8.61 109.61 L3.81 116.03
						 L6.11 119.44 L10.89 112.94 L15.34 119.44 L17.77 116.19 Z" class="st5"/>
		</g>
		<g id="shape41-81" v:mID="41" v:groupContext="shape" transform="translate(34.397,159.064) scale(1,-1)">
			<title>path92</title>
			<path d="M18.53 119.44 L24.99 119.44 L24.99 108.65 L43.64 83.12 L43.41 82.77 L24.61 108.53 L24.61 119.06 L24.51 119.06
						 L21.85 117.39 L21.85 108.2 L42 80.71 L39.99 78.39 L21.77 103.59 L3.81 78.16 L1.89 80.33 L21.73 108.2 L21.73
						 117.4 L19.02 119.07 L18.92 119.07 L18.92 108.53 L0.23 82.43 L0 82.85 L18.53 108.65 L18.53 119.44 Z"
					class="st3"/>
		</g>
		<g id="shape42-83" v:mID="42" v:groupContext="shape" transform="translate(33.244,180.941) scale(1,-1)">
			<title>path94</title>
			<path d="M0 119 C0 119.25 0.2 119.44 0.45 119.44 C0.69 119.44 0.9 119.25 0.9 119 C0.9 118.75 0.69 118.55 0.45 118.55
						 C0.2 118.55 0 118.75 0 119 Z" class="st3"/>
		</g>
		<g id="shape43-85" v:mID="43" v:groupContext="shape" transform="translate(32.304,159.257) scale(1,-1)">
			<title>path96</title>
			<path d="M8.57 104.34 L12.29 98.98 L14.65 102.36 L10.25 108.41 L10.25 119.44 L6.82 119.44 L6.82 108.41 L0 98.99 L0 92.24
						 L8.57 104.34 Z" class="st5"/>
		</g>
		<g id="shape44-87" v:mID="44" v:groupContext="shape" transform="translate(32.111,159.064) scale(1,-1)">
			<title>path98</title>
			<path d="M6.82 119.44 C6.82 119.44 6.82 108.4 6.82 108.28 C6.75 108.18 0 98.86 0 98.86 L0 91.44 C0 91.44 8.45 103.37
						 8.76 103.81 C9.05 103.39 12.48 98.45 12.48 98.45 L15.08 102.17 C15.08 102.17 10.71 108.18 10.63 108.28 C10.63
						 108.4 10.63 119.44 10.63 119.44 L6.82 119.44 ZM10.25 119.06 C10.25 118.69 10.25 108.15 10.25 108.15 C10.25
						 108.15 14.45 102.38 14.61 102.16 C14.47 101.97 12.75 99.51 12.48 99.13 C12.19 99.54 8.76 104.48 8.76 104.48
						 C8.76 104.48 1.03 93.57 0.39 92.66 C0.39 93.65 0.39 98.62 0.39 98.73 C0.46 98.83 7.21 108.15 7.21 108.15
						 C7.21 108.15 7.21 118.69 7.21 119.06 C7.53 119.06 9.92 119.06 10.25 119.06 Z" class="st3"/>
		</g>
		<g id="shape45-89" v:mID="45" v:groupContext="shape" transform="translate(40.425,160.049) scale(1,-1)">
			<title>path100</title>
			<path d="M0 119 C0 119.24 0.2 119.44 0.45 119.44 C0.69 119.44 0.89 119.24 0.89 119 C0.89 118.75 0.69 118.55 0.45 118.55
						 C0.2 118.55 0 118.75 0 119 Z" class="st3"/>
		</g>
		<g id="shape46-91" v:mID="46" v:groupContext="shape" transform="translate(33.798,160.84) scale(1,-1)">
			<title>path102</title>
			<path d="M7.1 119.35 L7.1 109.01 L11.95 102.28 L11.87 102.2 L7.06 108.95 L0.11 99.1 L0 99.14 L7.01 109.07 L7.01 119.44
						 L7.1 119.35 Z" class="st3"/>
		</g>
		<g id="shape47-93" v:mID="47" v:groupContext="shape" transform="translate(65.379,159.257) scale(1,-1)">
			<title>path104</title>
			<path d="M6.08 104.34 L2.36 98.98 L0 102.36 L4.4 108.41 L4.4 119.44 L7.83 119.44 L7.83 108.41 L14.65 98.99 L14.65 92.24
						 L6.08 104.34 Z" class="st5"/>
		</g>
		<g id="shape48-95" v:mID="48" v:groupContext="shape" transform="translate(65.142,159.064) scale(1,-1)">
			<title>path106</title>
			<path d="M8.26 119.44 C8.26 119.44 8.26 108.4 8.26 108.28 C8.33 108.18 15.08 98.86 15.08 98.86 L15.08 91.44 C15.08 91.44
						 6.63 103.37 6.32 103.81 C6.03 103.39 2.6 98.45 2.6 98.45 L0 102.17 C0 102.17 4.38 108.18 4.45 108.28 C4.45
						 108.4 4.45 119.44 4.45 119.44 L8.26 119.44 ZM4.83 119.06 C4.83 118.69 4.83 108.15 4.83 108.15 C4.83 108.15
						 0.63 102.38 0.47 102.16 C0.61 101.97 2.33 99.51 2.6 99.13 C2.89 99.54 6.32 104.48 6.32 104.48 C6.32 104.48
						 14.05 93.57 14.7 92.66 C14.7 93.65 14.7 98.62 14.7 98.73 C14.62 98.83 7.87 108.15 7.87 108.15 C7.87 108.15
						 7.87 118.69 7.87 119.06 C7.55 119.06 5.16 119.06 4.83 119.06 Z" class="st3"/>
		</g>
		<g id="shape49-97" v:mID="49" v:groupContext="shape" transform="translate(71.016,160.049) scale(1,-1)">
			<title>path108</title>
			<path d="M0.89 119 C0.89 119.24 0.69 119.44 0.45 119.44 C0.2 119.44 0 119.24 0 119 C0 118.75 0.2 118.55 0.45 118.55 C0.69
						 118.55 0.89 118.75 0.89 119 Z" class="st3"/>
		</g>
		<g id="shape50-99" v:mID="50" v:groupContext="shape" transform="translate(66.591,160.84) scale(1,-1)">
			<title>path110</title>
			<path d="M4.84 119.35 L4.84 109.01 L0 102.28 L0.08 102.2 L4.89 108.95 L11.84 99.1 L11.95 99.14 L4.93 109.07 L4.93 119.44
						 L4.84 119.35 Z" class="st3"/>
		</g>
		<g id="shape51-101" v:mID="51" v:groupContext="shape" transform="translate(55.641,160.629) scale(1,-1)">
			<title>path112</title>
			<path d="M0 118.87 C0 119.19 0.25 119.44 0.57 119.44 C0.88 119.44 1.14 119.19 1.14 118.87 C1.14 118.56 0.88 118.3 0.57
						 118.3 C0.25 118.3 0 118.56 0 118.87 Z" class="st5"/>
		</g>
		<g id="shape52-103" v:mID="52" v:groupContext="shape" transform="translate(45.191,182.888) scale(1,-1)">
			<title>path114</title>
			<path d="M13.8 109.34 C13.95 109.56 18.28 115.86 18.28 115.86 L15.61 119.44 C15.61 119.44 11.44 113.36 11.16 112.94 C10.86
						 113.35 6.37 119.44 6.37 119.44 L3.84 115.69 C3.84 115.69 8.49 109.48 8.65 109.27 C8.49 109.04 0 96.63 0
						 96.63 L3.53 94.39 C3.53 94.39 10.96 105.2 11.26 105.64 C11.57 105.21 19.3 94.31 19.3 94.31 L23.42 96.27
						 C23.42 96.27 13.96 109.12 13.8 109.34 ZM6.39 118.77 C6.69 118.35 11.17 112.27 11.17 112.27 C11.17 112.27
						 15.34 118.36 15.62 118.78 C15.75 118.61 16.19 118.02 16.65 117.41 L11.39 109.71 C11.33 109.74 11.26 109.76
						 11.18 109.76 C11.11 109.76 11.04 109.74 10.97 109.7 L5.4 117.31 C5.84 117.96 6.27 118.59 6.39 118.77 ZM11.25
						 106.31 C11.25 106.31 3.63 95.21 3.42 94.91 C3.15 95.08 0.83 96.56 0.55 96.74 C0.76 97.06 9.12 109.28 9.12
						 109.28 C9.12 109.28 4.48 115.49 4.32 115.7 C4.39 115.81 4.86 116.5 5.34 117.21 L10.87 109.64 C10.79 109.56
						 10.74 109.44 10.74 109.32 C10.74 109.18 10.8 109.07 10.89 108.99 L2.1 96.14 L2.21 96.08 L11 108.91 C11.05
						 108.89 11.12 108.87 11.18 108.87 C11.26 108.87 11.33 108.89 11.39 108.93 L20.6 96.34 L20.71 96.39 L11.49
						 108.99 C11.58 109.07 11.63 109.19 11.63 109.32 C11.63 109.44 11.58 109.56 11.49 109.64 L16.73 117.29 C17.24
						 116.62 17.74 115.95 17.81 115.85 C17.66 115.63 13.33 109.33 13.33 109.33 C13.33 109.33 22.75 96.52 22.93
						 96.28 C22.76 96.08 19.96 94.84 19.53 94.64 C19.25 95.03 11.25 106.31 11.25 106.31 Z" class="st3"/>
		</g>
		<g id="shape53-105" v:mID="53" v:groupContext="shape" transform="translate(26.016,137.545) scale(1,-1)">
			<title>path116</title>
			<path d="M40.71 116.28 C40.71 117.11 40.69 119.43 40.69 119.43 L19.29 119.44 C19.29 119.44 19.29 117.12 19.29 116.28
						 C18.02 116.28 0 116.28 0 116.28 C0 116.28 3.3 112.96 3.64 112.61 C3.64 112.05 3.64 69.24 3.64 69.24 C3.64
						 69.25 3.7 68.55 3.7 68.55 L3.71 68.49 L3.71 68.51 L3.76 68.35 C6.65 57.74 15.68 50.08 29.85 46.19 L30.02
						 46.14 L30.2 46.19 C44.57 49.74 53.33 57.11 56.22 68.09 L56.32 68.47 C56.32 68.48 56.4 68.93 56.4 68.93 C56.4
						 68.93 56.4 112.23 56.4 112.79 C56.74 113.13 59.87 116.28 59.87 116.28 C59.87 116.28 41.98 116.28 40.71 116.28
						 ZM54.99 68.82 C55 68.83 54.89 68.44 54.89 68.44 C52.15 58.03 43.79 51.01 30.04 47.57 C16.46 51.34 7.83 58.64
						 5.08 68.71 C5.08 68.71 5.06 68.8 5.04 68.84 C5.04 68.85 5.02 69.23 5.02 69.23 L5.02 99.58 L55.01 99.58 C55.01
						 99.58 55.02 68.97 55.02 68.94 C55.02 68.94 54.99 68.82 54.99 68.82 Z" class="st3"/>
		</g>
		<g id="shape54-107" v:mID="54" v:groupContext="shape" transform="translate(29.32,142.077) scale(1,-1)">
			<title>path118</title>
			<path d="M0 119.44 L1.52 117.92 L15.9 117.92 L15.9 119.44 L0 119.44 Z" class="st2"/>
		</g>
		<g id="shape55-109" v:mID="55" v:groupContext="shape" transform="translate(66.571,142.077) scale(1,-1)">
			<title>path120</title>
			<path d="M15.89 119.44 L14.38 117.92 L0 117.92 L0 119.44 L15.89 119.44 Z" class="st2"/>
		</g>
		<g id="shape56-111" v:mID="56" v:groupContext="shape" transform="translate(34.516,145.311) scale(1,-1)">
			<title>path122</title>
			<path d="M3.03 118.87 C2.94 118.89 2.9 118.89 2.87 118.91 C2.84 118.94 2.81 118.94 2.74 118.89 C2.68 118.85 2.61 118.84
						 2.59 118.81 C2.57 118.78 2.55 118.77 2.5 118.74 C2.45 118.71 2.18 118.46 2.14 118.35 C2.1 118.23 2.09 118.14
						 2.1 118.06 C2.11 117.98 2.19 117.84 2.23 117.83 C2.27 117.81 2.29 117.82 2.34 117.76 C2.39 117.7 2.46 117.68
						 2.41 117.61 C2.37 117.55 2.37 117.54 2.3 117.54 C2.22 117.54 2.09 117.54 2.04 117.54 C2 117.55 1.92 117.49
						 1.92 117.45 C1.92 117.41 1.96 117.34 1.97 117.29 C1.98 117.24 2.02 117.22 2.07 117.16 C2.11 117.11 2.12
						 117.04 2.19 117.01 C2.25 116.97 2.27 116.96 2.31 116.96 C2.35 116.96 2.4 116.98 2.43 116.92 C2.47 116.86
						 2.48 116.85 2.47 116.79 C2.45 116.74 2.5 116.72 2.5 116.61 C2.51 116.5 2.51 116.29 2.51 116.21 C2.51 116.13
						 2.52 116.08 2.43 116.04 C2.34 115.99 2.13 115.89 2.04 115.87 C1.95 115.84 1.7 115.71 1.64 115.62 C1.58 115.54
						 1.59 115.47 1.55 115.44 C1.52 115.41 1.45 115.34 1.53 115.24 C1.61 115.14 1.64 115.13 1.68 115.07 C1.71
						 115.01 1.84 115.01 1.91 115.02 C1.97 115.03 2.08 115.06 2.13 115.12 C2.19 115.18 2.25 115.22 2.29 115.25
						 C2.33 115.27 2.42 115.28 2.53 115.27 C2.65 115.26 2.75 115.25 2.8 115.32 C2.85 115.39 2.9 115.47 2.92 115.54
						 C2.95 115.61 3.03 115.73 3.08 115.77 C3.13 115.8 3.22 115.83 3.22 115.72 C3.22 115.62 3.21 115.49 3.21 115.42
						 C3.21 115.34 3.13 115.3 3.14 115.19 C3.15 115.07 3.17 114.98 3.16 114.91 C3.15 114.84 3.14 114.79 3.17 114.76
						 C3.2 114.74 3.2 114.71 3.18 114.67 C3.16 114.63 3.16 114.58 3.12 114.52 C3.08 114.46 3.03 114.39 2.95 114.36
						 C2.88 114.32 2.8 114.31 2.68 114.24 C2.56 114.18 2.55 114.2 2.48 114.15 C2.41 114.11 2.38 114.08 2.33 114.07
						 C2.29 114.06 2.23 114.07 2.18 114.03 C2.13 113.98 2.09 113.95 2.04 113.94 C1.99 113.93 1.97 113.93 1.92
						 113.89 C1.86 113.85 1.8 113.82 1.76 113.81 C1.72 113.8 1.67 113.78 1.62 113.75 C1.58 113.71 1.52 113.71
						 1.47 113.67 C1.43 113.62 1.39 113.61 1.36 113.6 C1.34 113.59 1.28 113.56 1.25 113.52 C1.21 113.49 1.06 113.42
						 1.01 113.38 C0.96 113.34 0.93 113.34 0.9 113.33 C0.87 113.32 0.84 113.29 0.79 113.26 C0.73 113.22 0.68 113.19
						 0.62 113.17 C0.57 113.15 0.52 113.15 0.49 113.13 C0.46 113.11 0.4 113.1 0.32 113.1 C0.25 113.1 0.2 113.07
						 0.17 113.04 C0.15 113.01 0.07 112.97 0.07 112.91 C0.08 112.85 0.06 112.85 0.03 112.81 C0.01 112.78 0 112.7
						 0.04 112.68 C0.07 112.65 0.06 112.63 0.08 112.57 C0.09 112.51 0.11 112.46 0.14 112.41 C0.18 112.37 0.18
						 112.34 0.21 112.3 C0.24 112.26 0.28 112.24 0.31 112.23 C0.35 112.21 0.39 112.18 0.42 112.18 C0.45 112.19
						 0.48 112.11 0.54 112.12 C0.59 112.13 0.64 112.14 0.67 112.17 C0.71 112.19 0.74 112.19 0.78 112.18 C0.81
						 112.18 0.84 112.18 0.88 112.24 C0.92 112.3 1.03 112.38 1.1 112.46 C1.17 112.55 1.29 112.66 1.36 112.72 C1.42
						 112.78 1.49 112.82 1.56 112.89 C1.62 112.95 1.68 112.97 1.72 113.02 C1.76 113.07 1.79 113.07 1.82 113.09
						 C1.84 113.1 1.88 113.14 1.91 113.17 C1.93 113.19 1.97 113.19 2 113.22 C2.03 113.25 2.16 113.36 2.17 113.38
						 C2.19 113.39 2.23 113.4 2.26 113.42 C2.29 113.44 2.34 113.49 2.39 113.53 C2.44 113.57 2.55 113.65 2.66 113.72
						 C2.77 113.8 2.91 113.88 2.96 113.91 C3.01 113.94 3.1 113.95 3.11 113.88 C3.11 113.8 3.11 113.62 3.13 113.54
						 C3.14 113.46 3.16 113.39 3.14 113.34 C3.13 113.29 3.13 113.26 3.13 113.17 C3.14 113.09 3.15 112.99 3.09
						 112.93 C3.03 112.86 2.92 112.78 2.83 112.75 C2.74 112.71 2.74 112.7 2.67 112.65 C2.6 112.6 2.58 112.59 2.54
						 112.59 C2.51 112.58 2.48 112.57 2.45 112.53 C2.42 112.49 2.38 112.49 2.33 112.48 C2.29 112.48 2.28 112.47
						 2.22 112.43 C2.17 112.38 2.02 112.24 1.97 112.19 C1.92 112.14 1.9 112.11 1.91 112.02 C1.91 111.94 1.91 111.87
						 1.95 111.81 C2 111.75 2.05 111.68 2.11 111.64 C2.15 111.61 2.19 111.59 2.22 111.57 C2.25 111.55 2.31 111.53
						 2.35 111.5 C2.39 111.46 2.45 111.4 2.5 111.4 C2.56 111.4 2.62 111.41 2.66 111.4 C2.7 111.39 2.72 111.42
						 2.75 111.46 C2.78 111.49 2.82 111.48 2.85 111.52 C2.88 111.56 2.92 111.61 2.95 111.65 C2.97 111.69 3.02
						 111.79 3.06 111.83 C3.1 111.87 3.16 111.88 3.16 111.79 C3.17 111.7 3.15 111.65 3.15 111.62 C3.15 111.58
						 3.19 111.53 3.21 111.51 C3.22 111.48 3.22 111.43 3.21 111.36 C3.21 111.29 3.21 111.09 3.21 111.04 C3.21
						 110.99 3.21 110.94 3.18 110.91 C3.15 110.87 3.15 110.86 3.15 110.81 C3.15 110.76 3.15 110.68 3.12 110.65
						 C3.09 110.61 3.11 110.56 3.08 110.53 C3.04 110.51 3.03 110.46 2.99 110.43 C2.95 110.39 2.95 110.35 2.95
						 110.3 C2.95 110.24 2.96 110.21 2.98 110.18 C3 110.16 3.01 110.12 3.01 110.08 C3.01 110.04 3.04 109.99 3.06
						 109.98 C3.08 109.96 3.09 109.92 3.09 109.89 C3.09 109.85 3.11 109.83 3.13 109.8 C3.15 109.77 3.21 109.71
						 3.23 109.66 C3.24 109.6 3.27 109.55 3.3 109.54 C3.33 109.52 3.38 109.5 3.41 109.45 C3.45 109.41 3.49 109.36
						 3.51 109.36 C3.54 109.36 3.6 109.34 3.63 109.3 C3.66 109.26 3.71 109.28 3.75 109.27 C3.8 109.27 3.85 109.31
						 3.89 109.34 C3.92 109.38 4.02 109.47 4.02 109.54 C4.02 109.6 4.08 109.79 4.11 109.84 C4.14 109.89 4.15 109.99
						 4.15 110.08 C4.15 110.17 4.14 110.27 4.13 110.35 C4.12 110.43 4.14 110.61 4.14 110.67 C4.14 110.76 4.07
						 110.83 4.07 110.94 C4.07 111 4.09 111.18 4.08 111.24 C4.06 111.3 4.08 111.39 4.07 111.42 C4.06 111.46 4.04
						 111.54 4.02 111.59 C4 111.64 4 111.74 4 111.78 C4 111.81 3.97 111.87 3.98 111.93 C3.98 112 3.99 112.11 3.96
						 112.16 C3.93 112.21 3.93 112.29 3.94 112.34 C3.94 112.38 3.95 112.39 4.02 112.42 C4.1 112.45 4.17 112.48
						 4.22 112.5 C4.27 112.53 4.35 112.58 4.4 112.58 C4.45 112.59 4.59 112.69 4.66 112.76 C4.72 112.82 4.78 112.84
						 4.78 112.95 C4.77 113.07 4.71 113.17 4.64 113.22 C4.58 113.28 4.46 113.35 4.42 113.39 C4.38 113.42 4.34
						 113.42 4.26 113.43 C4.18 113.43 4.08 113.43 4.04 113.42 C4.01 113.41 3.99 113.37 3.96 113.36 C3.92 113.36
						 3.84 113.32 3.81 113.38 C3.79 113.44 3.75 113.58 3.74 113.72 C3.73 113.85 3.74 114.03 3.76 114.1 C3.78 114.17
						 3.81 114.23 3.81 114.23 C3.83 114.31 3.83 114.33 3.87 114.37 C3.91 114.41 3.99 114.48 4.05 114.5 C4.1 114.53
						 4.23 114.55 4.27 114.57 C4.31 114.6 4.4 114.61 4.45 114.64 C4.5 114.66 4.54 114.69 4.63 114.71 C4.73 114.74
						 4.81 114.8 4.87 114.8 C4.93 114.8 5.04 114.86 5.08 114.88 C5.12 114.9 5.19 114.88 5.24 114.89 C5.3 114.9
						 5.41 114.96 5.44 114.97 C5.46 114.98 5.53 114.97 5.56 114.99 C5.63 115.04 5.7 115.01 5.76 115.02 C5.81 115.03
						 5.9 115.08 5.95 115.11 C5.99 115.14 6.07 115.16 6.11 115.15 C6.15 115.15 6.26 115.25 6.3 115.32 C6.34 115.38
						 6.4 115.48 6.38 115.6 C6.37 115.72 6.3 115.74 6.24 115.78 C6.17 115.82 6.09 115.88 6.06 115.9 C6.03 115.92
						 6 115.95 5.93 115.91 C5.86 115.86 5.77 115.85 5.69 115.82 C5.62 115.78 5.56 115.86 5.47 115.78 C5.39 115.69
						 5.28 115.65 5.22 115.64 C5.16 115.62 5.12 115.59 5.05 115.55 C4.97 115.52 4.98 115.54 4.9 115.5 C4.82 115.46
						 4.78 115.45 4.72 115.42 C4.66 115.38 4.53 115.28 4.43 115.26 C4.33 115.24 4.13 115.11 4.06 115.08 C4 115.05
						 3.89 115.05 3.9 115.14 C3.92 115.24 3.91 115.34 3.93 115.36 C3.96 115.39 3.97 115.44 3.98 115.52 C3.98 115.6
						 4.02 115.66 4.07 115.75 C4.12 115.84 4.16 115.98 4.22 116.05 C4.28 116.13 4.26 116.18 4.31 116.25 C4.36
						 116.31 4.36 116.33 4.46 116.37 C4.56 116.41 4.81 116.56 4.89 116.61 C4.97 116.66 5.12 116.74 5.19 116.79
						 C5.26 116.83 5.5 116.97 5.54 117.02 C5.59 117.07 5.67 117.11 5.66 117.22 C5.65 117.33 5.62 117.38 5.53 117.41
						 C5.44 117.44 5.47 117.45 5.37 117.45 C5.28 117.45 5.21 117.44 5.14 117.36 C5.06 117.28 5.03 117.19 4.97
						 117.15 C4.91 117.12 4.85 117.09 4.83 117.13 C4.81 117.17 4.82 117.19 4.86 117.26 C4.9 117.34 4.95 117.4
						 4.93 117.48 C4.92 117.56 4.92 117.65 4.86 117.68 C4.8 117.71 4.78 117.76 4.7 117.71 C4.62 117.65 4.57 117.59
						 4.53 117.51 C4.49 117.44 4.45 117.29 4.46 117.19 C4.48 117.08 4.48 117.03 4.42 116.99 C4.36 116.94 4.36
						 116.86 4.29 116.87 C4.21 116.88 4.15 116.96 4.08 117.02 C4.01 117.07 3.85 117.14 3.83 117.18 C3.8 117.22
						 3.75 117.22 3.69 117.15 C3.64 117.09 3.54 116.99 3.51 116.91 C3.49 116.83 3.47 116.78 3.42 116.73 C3.39
						 116.68 3.32 116.52 3.28 116.48 C3.23 116.44 3.19 116.4 3.14 116.42 C3.1 116.43 3.13 116.44 3.08 116.51 C3.03
						 116.58 3.03 116.58 3.02 116.63 C3.02 116.68 3.07 116.72 3.04 116.75 C3.01 116.78 3.04 116.85 3.07 116.9
						 C3.09 116.95 3.11 117.03 3.13 117.14 C3.14 117.22 3.14 117.33 3.23 117.38 C3.33 117.44 3.87 117.73 3.93
						 117.77 C4 117.82 4.06 117.79 4.11 117.84 C4.16 117.88 4.22 117.96 4.3 117.99 C4.37 118.03 4.49 118.11 4.54
						 118.15 C4.6 118.18 4.67 118.26 4.78 118.33 C4.89 118.41 5.1 118.52 5.18 118.6 C5.26 118.69 5.59 118.92 5.63
						 119.01 C5.67 119.09 5.71 119.15 5.64 119.24 C5.58 119.33 5.58 119.35 5.49 119.35 C5.4 119.35 5.41 119.37
						 5.37 119.4 C5.33 119.43 5.3 119.44 5.26 119.41 C5.21 119.37 5.18 119.34 5.12 119.35 C5.07 119.37 5.03 119.33
						 4.98 119.29 C4.94 119.26 4.86 119.24 4.76 119.13 C4.66 119.02 4.41 118.74 4.34 118.64 C4.22 118.47 4.09
						 118.43 4.02 118.36 C3.89 118.21 3.72 118.18 3.63 118.09 C3.53 117.99 3.48 118.01 3.4 117.95 C3.33 117.89
						 3.26 117.87 3.22 117.93 C3.17 117.99 3.21 118.07 3.24 118.12 C3.28 118.16 3.27 118.26 3.26 118.38 C3.26
						 118.5 3.27 118.59 3.21 118.66 C3.15 118.72 3.15 118.84 3.03 118.87 Z" class="st5"/>
		</g>
		<g id="shape57-113" v:mID="57" v:groupContext="shape" transform="translate(42.069,146.584) scale(1,-1)">
			<title>path124</title>
			<path d="M2.75 119.27 C2.72 118.98 2.8 118.97 2.8 118.82 C2.8 118.67 2.82 118.26 2.81 118.16 C2.81 118.07 2.75 118.04
						 2.76 117.92 C2.77 117.8 2.74 117.41 2.73 117.32 C2.72 117.22 2.7 117.17 2.69 117.11 C2.68 117.05 2.7 117.03
						 2.59 116.95 C2.48 116.87 2.17 116.71 2.04 116.65 C1.92 116.59 1.58 116.47 1.5 116.46 C1.41 116.46 1.35 116.49
						 1.21 116.53 C1.06 116.56 0.97 116.58 0.82 116.51 C0.68 116.44 0.65 116.41 0.69 116.22 C0.73 116.04 0.9 115.95
						 1 115.88 C1.09 115.82 1.51 115.62 1.75 115.62 C1.99 115.62 2.2 115.65 2.18 115.57 C2.15 115.49 2.13 115.47
						 2.11 115.39 C2.1 115.3 2.05 115.21 2 115.14 C1.95 115.06 2.01 115.02 1.84 114.9 C1.67 114.79 1.48 114.73
						 1.42 114.68 C1.35 114.63 1.19 114.61 1.07 114.58 C0.96 114.54 0.88 114.51 0.81 114.46 C0.74 114.41 0.63
						 114.34 0.49 114.34 C0.35 114.33 0.27 114.35 0.24 114.16 C0.2 113.97 0.19 113.75 0.15 113.54 C0.1 113.34
						 0.02 113.06 0.03 112.83 C0.03 112.61 0 112.31 0.19 112 C0.37 111.7 0.49 111.67 0.6 111.69 C0.72 111.71 0.92
						 111.82 0.95 111.97 C0.98 112.12 0.98 112.31 0.97 112.58 C0.97 112.85 0.95 112.88 0.94 112.96 C0.93 113.04
						 0.94 113.1 0.85 113.15 C0.76 113.21 0.74 113.23 0.72 113.32 C0.7 113.42 0.65 113.41 0.66 113.59 C0.68 113.77
						 0.67 113.87 0.86 113.99 C1.04 114.1 1.47 114.33 1.58 114.38 C1.69 114.43 1.75 114.46 1.79 114.34 C1.83 114.23
						 1.82 114.17 1.85 114.09 C1.88 114 1.94 113.93 1.98 113.89 C2.03 113.85 2.04 113.84 2.15 113.85 C2.26 113.85
						 2.37 113.86 2.45 113.91 C2.52 113.96 2.53 113.92 2.62 114.02 C2.71 114.12 2.77 114.18 2.84 114.24 C2.92
						 114.29 2.99 114.31 2.98 114.21 C2.98 114.11 3.02 114.05 2.93 113.99 C2.84 113.93 2.72 113.89 2.61 113.83
						 C2.49 113.76 2.48 113.78 2.42 113.75 C2.36 113.73 2.36 113.71 2.35 113.67 C2.33 113.63 2.26 113.66 2.26
						 113.57 C2.26 113.48 2.21 113.35 2.31 113.31 C2.41 113.27 2.52 113.23 2.43 113.15 C2.35 113.08 2.15 112.88
						 2.1 112.8 C2.04 112.71 2.01 112.7 2.01 112.55 C2.01 112.4 2.05 112.27 2.14 112.26 C2.23 112.25 2.36 112.24
						 2.45 112.24 C2.53 112.23 2.59 112.23 2.58 112.15 C2.57 112.07 2.58 111.94 2.63 111.86 C2.69 111.78 2.61
						 111.71 2.8 111.71 C2.98 111.71 3.15 111.8 3.25 112 C3.35 112.19 3.45 112.37 3.47 112.49 C3.5 112.61 3.5
						 112.65 3.62 112.66 C3.73 112.66 3.8 112.72 3.91 112.61 C4.16 112.34 4.43 112.19 4.5 112.08 C4.58 111.97
						 4.74 111.8 4.84 111.73 C4.94 111.67 5.07 111.6 5.17 111.75 C5.26 111.89 5.3 111.91 5.33 112.11 C5.35 112.31
						 5.3 112.63 5.34 112.97 C5.39 113.31 5.49 114.13 5.57 114.63 C5.65 115.14 5.77 115.94 5.87 116.1 C5.97 116.27
						 6 116.42 5.99 116.53 C5.97 116.64 5.83 116.79 5.71 116.86 C5.59 116.93 5.5 116.95 5.3 116.84 C5.09 116.73
						 4.94 116.71 4.74 116.44 C4.61 116.28 4.42 116.27 4.23 116.15 C4.04 116.03 3.21 115.6 3.07 115.53 C2.93 115.46
						 2.84 115.51 2.92 115.66 C3 115.81 3.16 116.06 3.23 116.15 C3.29 116.25 3.32 116.24 3.51 116.34 C3.86 116.53
						 4.15 116.82 4.27 116.93 C4.38 117.05 4.63 117.28 4.69 117.4 C4.75 117.52 4.78 117.63 4.73 117.71 C4.67 117.78
						 4.54 117.83 4.47 117.87 C4.4 117.91 4.38 117.91 4.27 117.84 C4.17 117.77 4.03 117.68 3.94 117.63 C3.84 117.58
						 3.76 117.64 3.8 117.76 C3.84 117.88 3.89 118.02 3.93 118.14 C3.97 118.26 3.96 118.32 3.86 118.46 C3.76 118.61
						 3.16 119.18 3.06 119.31 C2.96 119.44 2.77 119.44 2.75 119.27 ZM2.5 114.86 C2.64 114.94 2.75 114.95 2.86
						 115.01 C2.96 115.07 3.14 115.16 3.23 115.21 C3.33 115.26 3.46 115.24 3.35 115.14 C3.23 115.03 3.02 114.89
						 2.9 114.82 C2.78 114.75 2.72 114.72 2.64 114.71 C2.56 114.71 2.57 114.65 2.47 114.67 C2.38 114.7 2.37 114.78
						 2.5 114.86 ZM4.13 115.66 C4.32 115.76 4.79 116 4.98 116.08 C5.17 116.15 5.16 116.18 5.16 115.98 C5.16 115.78
						 5.17 115.44 5.13 115.24 C5.08 115.04 5.11 114.78 5 114.46 C4.92 114.24 4.94 114.02 4.93 113.96 C4.93 113.9
						 4.89 113.84 4.87 113.67 C4.85 113.5 4.79 113.36 4.77 113.14 C4.75 112.92 4.72 112.88 4.7 112.76 C4.69 112.64
						 4.7 112.56 4.58 112.6 C4.46 112.63 4.04 112.8 3.97 112.87 C3.89 112.93 3.87 112.95 3.92 113.03 C3.96 113.1
						 3.94 113.17 3.94 113.25 C3.95 113.32 3.99 113.31 3.88 113.39 C3.78 113.46 3.73 113.54 3.71 113.58 C3.69
						 113.62 3.71 113.63 3.76 113.71 C3.81 113.79 3.81 113.85 3.81 113.94 C3.81 114.03 3.76 114.12 3.67 114.12
						 C3.59 114.12 3.55 114.16 3.62 114.29 C3.69 114.43 4.17 114.88 4.29 115.01 C4.41 115.14 4.54 115.3 4.41 115.37
						 C4.28 115.45 4.2 115.53 4.14 115.56 C4.08 115.59 4.04 115.61 4.13 115.66 Z" class="st5"/>
		</g>
		<g id="shape58-115" v:mID="58" v:groupContext="shape" transform="translate(49.617,146.771) scale(1,-1)">
			<title>path126</title>
			<path d="M2.05 119.42 C2.23 119.38 2.29 119.34 2.35 119.28 C2.4 119.23 2.47 119.23 2.62 119.15 C2.77 119.08 2.89 119.05
						 2.97 118.91 C3.05 118.77 3.09 118.7 2.98 118.52 C2.86 118.33 2.74 118.17 2.53 117.96 C2.32 117.74 1.66 117.02
						 1.45 116.8 C1.25 116.58 0.75 115.98 0.62 115.84 C0.49 115.71 0.4 115.61 0.26 115.67 C0.12 115.73 0 115.79
						 0.12 115.94 C0.27 116.12 0.89 116.66 1.18 117.17 C1.47 117.68 1.8 118.34 1.89 118.54 C1.98 118.74 2.06 118.77
						 1.95 118.93 C1.85 119.09 1.71 119.27 1.83 119.37 C1.89 119.42 1.94 119.44 2.05 119.42 ZM2.34 116.98 C2.24
						 116.93 2.14 116.84 2.06 116.69 C1.99 116.55 1.91 116.41 1.82 116.29 C1.72 116.17 1.65 116.08 1.53 116 C1.41
						 115.92 1.39 115.93 1.31 115.88 C1.22 115.83 1.21 115.7 1.29 115.68 C1.38 115.66 1.49 115.68 1.56 115.67
						 C1.62 115.66 1.7 115.71 1.73 115.65 C1.76 115.59 1.78 115.38 1.93 115.37 C2.09 115.37 2.19 115.37 2.23 115.43
						 C2.27 115.49 2.39 115.59 2.44 115.64 C2.5 115.69 2.51 115.78 2.47 115.83 C2.42 115.89 2.44 115.96 2.49 116.05
						 C2.54 116.13 2.59 116.23 2.63 116.31 C2.68 116.4 2.73 116.51 2.73 116.66 C2.72 116.8 2.68 116.8 2.62 116.88
						 C2.55 116.96 2.43 117.03 2.34 116.98 ZM0.77 114.76 C0.77 114.57 0.75 114.19 0.75 114.03 C0.75 113.86 0.75
						 113.74 0.71 113.55 C0.67 113.36 0.71 113.12 1 113 C1.19 112.93 1.54 113.14 1.62 113.45 C1.69 113.76 1.65
						 113.95 1.54 114.15 C1.44 114.36 1.31 114.63 1.18 114.79 C1.05 114.96 0.98 115 0.9 114.98 C0.84 114.96 0.77
						 114.91 0.77 114.76 ZM1.8 114.93 C1.87 115.01 1.92 115.03 1.98 115.08 C2.05 115.13 2.09 115.18 2.11 115.25
						 C2.13 115.32 2.19 115.29 2.24 115.3 C2.28 115.32 2.29 115.36 2.34 115.33 C2.39 115.3 2.43 115.3 2.5 115.28
						 C2.56 115.26 2.63 115.25 2.62 115.13 C2.61 115.01 2.62 114.94 2.56 114.89 C2.5 114.84 2.52 114.89 2.52 114.76
						 C2.51 114.64 2.53 114.47 2.53 114.39 C2.53 114.32 2.52 114.27 2.44 114.18 C2.37 114.09 2.31 113.99 2.28
						 113.91 C2.25 113.83 2.21 113.83 2.14 113.87 C2.06 113.91 2.02 113.88 1.93 114 C1.85 114.11 1.8 114.16 1.77
						 114.26 C1.75 114.36 1.77 114.39 1.83 114.45 C1.88 114.51 1.88 114.53 1.91 114.59 C1.94 114.66 1.93 114.69
						 1.87 114.74 C1.81 114.79 1.74 114.87 1.8 114.93 ZM3.38 116.86 C3.47 116.94 3.55 116.97 3.64 117 C3.74 117.03
						 3.98 117.07 4.17 117.2 C4.35 117.34 5 117.79 5.16 117.89 C5.32 118 5.55 117.98 5.64 117.84 C5.74 117.69
						 5.79 117.57 5.62 117.4 C5.44 117.24 5.13 117.06 4.99 116.91 C4.84 116.76 4.44 116.43 4.2 116.37 C3.97 116.32
						 3.87 116.32 3.68 116.41 C3.49 116.49 3.23 116.75 3.38 116.86 ZM2.85 114.99 C2.97 115.07 3.01 115.06 3.13
						 115.05 C3.24 115.04 3.45 115.14 3.54 115.22 C3.63 115.3 3.73 115.28 3.82 115.38 C3.92 115.47 3.98 115.59
						 3.98 115.66 C3.98 115.74 3.95 115.88 4.01 115.97 C4.07 116.06 4.11 116.23 4.26 116.22 C4.41 116.21 4.55
						 116.13 4.61 116.1 C4.66 116.07 4.65 116.02 4.75 116.1 C4.85 116.19 5.14 116.4 5.23 116.45 C5.32 116.5 5.43
						 116.53 5.49 116.48 C5.56 116.43 5.68 116.39 5.73 116.33 C5.79 116.27 5.79 116.13 5.77 116.01 C5.75 115.89
						 5.74 115.83 5.64 115.69 C5.54 115.55 5.44 115.38 5.35 115.23 C5.25 115.08 5.13 114.87 5.04 114.81 C4.95
						 114.76 4.87 114.73 4.81 114.72 C4.75 114.72 4.71 114.72 4.71 114.61 C4.71 114.49 4.71 113.41 4.71 113.19
						 C4.72 112.86 4.68 112.86 4.67 112.71 C4.67 112.57 4.67 112.33 4.6 112.21 C4.53 112.1 4.55 112.06 4.48 111.99
						 C4.41 111.92 4.37 111.83 4.28 111.84 C4.19 111.84 3.97 111.95 3.96 112.17 C3.96 112.39 3.98 112.72 3.97
						 112.79 C3.96 112.86 3.91 112.97 3.91 113.12 C3.93 113.27 3.93 113.6 3.91 113.72 C3.89 113.84 3.88 114.1
						 3.9 114.3 C3.93 114.5 3.94 114.66 3.93 114.75 C3.91 114.85 3.9 114.94 3.82 114.9 C3.74 114.85 3.56 114.63
						 3.48 114.58 C3.41 114.53 3.23 114.51 3.11 114.55 C2.99 114.58 2.88 114.74 2.84 114.85 C2.8 114.93 2.78 114.94
						 2.85 114.99 ZM4.78 115.73 C4.82 115.79 4.91 115.91 4.99 115.97 C5.06 116.03 5.08 116.05 5.12 116.06 C5.16
						 116.08 5.25 116 5.21 115.92 C5.16 115.85 4.97 115.62 4.9 115.54 C4.84 115.47 4.77 115.45 4.75 115.55 C4.73
						 115.66 4.75 115.67 4.78 115.73 Z" class="st5"/>
		</g>
		<g id="shape59-117" v:mID="59" v:groupContext="shape" transform="translate(57.16,146.846) scale(1,-1)">
			<title>path128</title>
			<path d="M0.95 118.39 C0.82 118.28 0.74 118.19 0.65 118.09 C0.56 117.99 0.4 117.78 0.39 117.67 C0.38 117.55 0.37 117.51
						 0.33 117.45 C0.3 117.39 0.32 117.36 0.32 117.28 C0.32 117.19 0.33 117.17 0.35 117.13 C0.38 117.1 0.37 117.09
						 0.37 117.04 C0.37 116.99 0.42 116.96 0.46 116.91 C0.5 116.87 0.56 116.78 0.64 116.78 C0.72 116.78 0.8 116.79
						 0.84 116.78 C0.89 116.78 0.92 116.82 0.97 116.86 C1.01 116.9 1.09 116.96 1.12 117.02 C1.2 117.16 1.19 117.28
						 1.21 117.34 C1.23 117.4 1.29 117.48 1.34 117.54 C1.39 117.6 1.41 117.72 1.34 117.73 C1.28 117.75 1.19 117.72
						 1.2 117.83 C1.2 117.94 1.2 118.05 1.23 118.11 C1.26 118.16 1.31 118.24 1.29 118.29 C1.27 118.34 1.25 118.43
						 1.17 118.44 C1.09 118.45 1.04 118.47 0.95 118.39 ZM1.85 118.15 C1.9 118.22 1.91 118.24 2 118.31 C2.09 118.38
						 2.25 118.45 2.35 118.45 C2.46 118.44 2.45 118.43 2.52 118.4 C2.59 118.36 2.66 118.32 2.71 118.36 C2.76 118.39
						 2.82 118.4 2.88 118.38 C2.93 118.36 2.95 118.37 3 118.4 C3.04 118.42 3.06 118.42 3.12 118.37 C3.19 118.31
						 3.22 118.27 3.16 118.21 C3.1 118.14 3.06 118.14 3.08 118.04 C3.09 117.94 3.11 117.87 3.05 117.8 C3.01 117.76
						 3 117.67 2.92 117.6 C2.85 117.53 2.83 117.52 2.74 117.52 C2.64 117.51 2.53 117.52 2.43 117.57 C2.33 117.62
						 2.07 117.86 2 117.87 C1.93 117.89 1.81 117.93 1.8 118.02 C1.78 118.1 1.8 118.08 1.85 118.15 ZM4.19 119.21
						 C4.29 119.28 4.45 119.33 4.6 119.37 C4.74 119.41 4.83 119.44 4.93 119.4 C5.03 119.35 5.21 119.28 5.22 119.13
						 C5.23 118.97 5.23 118.92 5.16 118.79 C5.08 118.66 4.98 118.56 4.85 118.51 C4.73 118.46 4.66 118.47 4.59
						 118.46 C4.52 118.44 4.47 118.45 4.39 118.39 C4.3 118.33 4.06 118.34 3.99 118.33 C3.91 118.32 3.85 118.39
						 3.92 118.46 C3.98 118.52 4.1 118.53 4.18 118.67 C4.21 118.73 4.32 118.77 4.22 118.83 C4.16 118.86 4.14 118.89
						 4.13 118.94 C4.11 119 4.04 119.04 4.06 119.08 C4.08 119.13 4.09 119.13 4.19 119.21 ZM1.9 116.91 C1.9 116.97
						 1.94 117.07 1.99 117.05 C2.04 117.02 2.13 116.97 2.21 116.93 C2.29 116.89 2.32 116.86 2.37 116.85 C2.42
						 116.84 2.47 116.82 2.47 116.73 C2.46 116.64 2.47 116.58 2.43 116.57 C2.39 116.55 2.4 116.52 2.42 116.48
						 C2.43 116.44 2.45 116.41 2.52 116.42 C2.59 116.43 2.61 116.46 2.68 116.46 C2.76 116.46 2.78 116.47 2.83
						 116.42 C2.87 116.37 2.95 116.34 2.94 116.27 C2.93 116.2 2.91 116.16 2.85 116.07 C2.78 115.97 2.73 115.87
						 2.68 115.79 C2.63 115.72 2.62 115.72 2.58 115.65 C2.54 115.58 2.54 115.59 2.54 115.52 C2.55 115.44 2.53
						 115.36 2.64 115.31 C2.75 115.25 2.78 115.26 2.77 115.13 C2.77 115.01 2.77 114.93 2.77 114.85 C2.78 114.76
						 2.76 114.7 2.71 114.64 C2.62 114.55 2.33 114.31 2.25 114.21 C2.16 114.11 2.13 114.11 2.13 114.03 C2.13 113.96
						 2.13 113.9 2.1 113.88 C2.08 113.86 2.08 113.85 2.08 113.76 C2.08 113.66 2.09 113.27 2.09 113.12 C2.08 112.97
						 2.06 112.93 2.03 112.91 C2.01 112.89 2.01 112.86 2.02 112.82 C2.02 112.77 2.01 112.71 2 112.67 C1.98 112.64
						 1.98 112.56 1.98 112.47 C1.99 112.37 1.98 112.25 1.97 112.18 C1.97 112.12 1.9 111.98 1.85 111.94 C1.8 111.9
						 1.75 111.9 1.67 111.9 C1.61 111.9 1.55 111.95 1.49 111.99 C1.44 112.05 1.43 112.11 1.43 112.17 C1.43 112.23
						 1.43 112.31 1.4 112.35 C1.37 112.39 1.37 112.45 1.37 112.48 C1.36 112.52 1.36 112.56 1.32 112.6 C1.28 112.64
						 1.28 112.67 1.27 112.75 C1.26 112.83 1.33 112.97 1.39 113.02 C1.45 113.08 1.45 113.12 1.45 113.16 C1.45
						 113.23 1.52 113.22 1.51 113.3 C1.51 113.38 1.54 113.43 1.55 113.51 C1.56 113.58 1.57 113.64 1.56 113.68
						 C1.55 113.72 1.53 113.76 1.49 113.73 C1.45 113.71 1.43 113.64 1.38 113.63 C1.32 113.61 1.24 113.6 1.19 113.55
						 C1.14 113.5 0.93 113.38 0.85 113.32 C0.76 113.25 0.53 113.12 0.47 113.08 C0.4 113.03 0.34 112.99 0.25 113.05
						 C0.16 113.11 0.1 113.11 0.07 113.22 C0.05 113.32 0 113.33 0.05 113.41 C0.07 113.45 0.09 113.45 0.09 113.52
						 C0.09 113.59 0.06 113.65 0.12 113.7 C0.18 113.75 0.48 114.01 0.55 114.09 C0.61 114.16 0.67 114.18 0.71 114.22
						 C0.74 114.26 0.78 114.28 0.83 114.27 C0.88 114.26 0.92 114.23 0.88 114.17 C0.84 114.11 0.85 114.04 0.91
						 114.03 C0.97 114.02 1.07 114.02 1.15 114.05 C1.23 114.07 1.48 114.14 1.58 114.28 C1.63 114.35 1.59 114.42
						 1.52 114.39 C1.46 114.36 1.32 114.34 1.26 114.35 C1.19 114.37 1.12 114.46 1.19 114.52 C1.25 114.58 1.58
						 114.76 1.65 114.81 C1.71 114.85 1.74 114.91 1.69 114.95 C1.63 115 1.53 115.08 1.49 115.15 C1.45 115.22 1.44
						 115.24 1.5 115.28 C1.55 115.33 1.71 115.42 1.76 115.46 C1.81 115.5 1.81 115.54 1.85 115.58 C1.9 115.66 1.87
						 115.73 1.81 115.7 C1.74 115.67 1.69 115.63 1.62 115.58 C1.55 115.53 1.36 115.36 1.29 115.29 C1.23 115.22
						 1.03 115.03 0.92 114.97 C0.81 114.92 0.74 114.89 0.69 114.85 C0.63 114.81 0.6 114.83 0.52 114.88 C0.45 114.93
						 0.41 114.98 0.38 115.02 C0.34 115.06 0.37 115.1 0.37 115.15 C0.37 115.2 0.41 115.23 0.42 115.29 C0.42 115.35
						 0.4 115.41 0.46 115.46 C0.52 115.5 0.6 115.58 0.65 115.61 C0.7 115.64 0.75 115.65 0.81 115.63 C0.86 115.61
						 0.96 115.59 1.01 115.61 C1.06 115.63 1.08 115.65 1.17 115.65 C1.21 115.65 1.23 115.67 1.31 115.72 C1.38
						 115.77 1.51 115.85 1.58 115.91 C1.65 115.97 1.72 115.97 1.75 115.98 C1.79 115.98 1.83 116.02 1.86 116.05
						 C1.9 116.08 1.96 116.12 1.93 116.18 C1.89 116.24 1.86 116.24 1.8 116.24 C1.73 116.24 1.63 116.28 1.59 116.31
						 C1.55 116.34 1.52 116.41 1.57 116.46 C1.62 116.5 1.77 116.59 1.82 116.63 C1.88 116.67 1.93 116.73 1.93 116.77
						 C1.93 116.82 1.9 116.85 1.9 116.91 ZM2.41 115.95 C2.43 115.99 2.53 115.99 2.51 115.91 C2.49 115.83 2.46
						 115.83 2.44 115.78 C2.4 115.71 2.36 115.74 2.35 115.79 C2.34 115.83 2.37 115.85 2.39 115.88 C2.4 115.91
						 2.4 115.92 2.41 115.95 ZM2.22 114.84 C2.26 114.88 2.3 114.88 2.32 114.85 C2.35 114.8 2.34 114.78 2.31 114.75
						 C2.27 114.71 2.22 114.68 2.19 114.72 C2.16 114.76 2.16 114.77 2.22 114.84 ZM4.27 117.24 C4.37 117.31 4.67
						 117.47 4.76 117.51 C4.85 117.55 4.9 117.53 4.99 117.51 C5.12 117.47 5.24 117.32 5.29 117.26 C5.35 117.19
						 5.36 117.04 5.34 116.95 C5.31 116.86 5.22 116.73 5.15 116.63 C5.04 116.46 4.86 116.35 4.8 116.26 C4.73 116.16
						 4.66 116.04 4.62 115.99 C4.58 115.93 4.58 115.92 4.58 115.84 C4.58 115.76 4.57 115.66 4.59 115.61 C4.61
						 115.56 4.66 115.5 4.65 115.42 C4.64 115.34 4.56 115.18 4.46 115.16 C4.36 115.14 4.25 115.17 4.19 115.22
						 C4.12 115.27 4.03 115.36 4.03 115.52 C4.03 115.67 4.05 115.85 4.05 115.94 C4.06 116.02 4.06 116.07 4.12
						 116.15 C4.17 116.23 4.44 116.52 4.49 116.68 C4.52 116.76 4.54 116.85 4.46 116.89 C4.38 116.94 4.34 117 4.24
						 117.02 C4.14 117.03 4.09 117.12 4.27 117.24 ZM3.45 115.75 C3.44 115.61 3.37 115.57 3.38 115.49 C3.38 115.43
						 3.4 115.34 3.37 115.32 C3.34 115.29 3.34 115.27 3.33 115.22 C3.33 115.16 3.31 115.14 3.3 115.08 C3.29 115.02
						 3.29 114.77 3.28 114.62 C3.28 114.47 3.2 114.32 3.18 114.15 C3.15 113.99 3.16 113.87 3.15 113.65 C3.14 113.44
						 3.2 113.42 3.31 113.3 C3.41 113.18 3.56 113.06 3.63 113.03 C3.7 113.01 3.77 113.01 3.82 113.01 C3.87 113.02
						 3.88 112.96 4.02 112.97 C4.16 112.97 5.35 112.99 5.56 112.98 C5.77 112.98 5.98 113 6.08 113.08 C6.19 113.16
						 6.31 113.27 6.33 113.36 C6.36 113.46 6.39 113.57 6.35 113.66 C6.28 113.8 6.24 113.9 6.18 113.99 C6.12 114.09
						 6.1 114.14 6.09 114.22 C6.08 114.29 6.05 114.38 6 114.46 C5.95 114.53 5.95 114.61 5.95 114.67 C5.95 114.72
						 5.88 114.91 5.82 114.95 C5.76 114.99 5.66 115.04 5.66 114.89 C5.66 114.74 5.67 114.62 5.67 114.55 C5.67
						 114.48 5.68 114.46 5.7 114.43 C5.72 114.4 5.73 114.36 5.73 114.3 C5.73 114.23 5.73 113.94 5.74 113.85 C5.75
						 113.75 5.73 113.68 5.63 113.65 C5.53 113.62 5.48 113.61 5.45 113.58 C5.42 113.56 5.36 113.57 5.32 113.57
						 C5.28 113.57 5.26 113.53 5.24 113.52 C5.21 113.51 5.02 113.53 4.97 113.53 C4.88 113.53 4.91 113.48 4.83
						 113.48 C4.77 113.48 4.39 113.49 4.32 113.48 C4.26 113.47 4.21 113.53 4.14 113.53 C4.06 113.53 4 113.51 3.95
						 113.56 C3.89 113.61 3.81 113.6 3.81 113.72 C3.81 113.84 3.81 114.11 3.82 114.21 C3.83 114.3 3.85 114.38
						 3.89 114.42 C3.93 114.47 3.93 114.52 3.92 114.56 C3.92 114.6 3.96 114.58 3.96 114.65 C3.96 114.72 3.97 114.81
						 3.97 114.89 C3.97 114.97 3.92 115.08 3.91 115.12 C3.91 115.17 3.87 115.21 3.85 115.25 C3.82 115.29 3.81
						 115.34 3.82 115.39 C3.82 115.44 3.77 115.56 3.73 115.63 C3.69 115.7 3.73 115.71 3.66 115.76 C3.6 115.81
						 3.45 115.93 3.45 115.75 Z" class="st5"/>
		</g>
		<g id="shape60-119" v:mID="60" v:groupContext="shape" transform="translate(65.059,147.195) scale(1,-1)">
			<title>path130</title>
			<path d="M2.28 119.29 C2.28 119.11 2.26 119.1 2.29 119.05 C2.31 118.99 2.34 118.93 2.32 118.67 C2.32 118.49 2.32 118.5
						 2.34 118.46 C2.36 118.42 2.39 118.41 2.38 118.31 C2.38 118.17 2.37 117.05 2.37 116.95 C2.36 116.86 2.32
						 116.8 2.33 116.74 C2.34 116.54 2.28 116.57 2.28 116.49 C2.28 116.41 2.29 116.28 2.28 116.23 C2.28 116.19
						 2.23 116.17 2.23 116.09 C2.24 116 2.26 115.9 2.24 115.84 C2.22 115.78 2.19 115.77 2.18 115.69 C2.18 115.62
						 2.15 115.41 1.99 115.31 C1.9 115.26 1.67 115.21 1.57 115.2 C1.47 115.18 1.29 115.11 1.2 115.11 C1.11 115.11
						 1.05 115.11 0.97 115.07 C0.89 115.03 0.78 114.97 0.69 114.97 C0.6 114.98 0.43 114.97 0.35 115.02 C0.27 115.07
						 0.21 115.09 0.17 115.06 C0.09 115.01 0 114.96 0.05 114.82 C0.09 114.69 0.16 114.66 0.17 114.58 C0.17 114.51
						 0.2 114.45 0.26 114.38 C0.31 114.3 0.24 114.26 0.31 114.22 C0.42 114.15 0.4 114.02 0.58 114.05 C0.76 114.07
						 0.81 114.14 0.94 114.19 C1.07 114.24 1.81 114.6 1.88 114.61 C1.95 114.62 2 114.64 2 114.54 C2 114.44 2.01
						 114.41 2.01 114.36 C2 114.31 1.98 114.29 1.95 114.25 C1.91 114.2 1.93 114.18 1.91 114.09 C1.9 114.01 1.77
						 113.64 1.49 113.36 C1.21 113.08 0.9 112.95 0.83 112.92 C0.76 112.9 0.55 112.9 0.49 112.91 C0.44 112.92 0.39
						 113 0.31 112.97 C0.22 112.95 0.15 112.86 0.25 112.77 C0.35 112.68 0.6 112.55 0.74 112.54 C0.88 112.54 1
						 112.48 1.08 112.51 C1.15 112.54 1.24 112.53 1.37 112.61 C1.49 112.68 1.95 113.1 2.14 113.55 C2.34 114 2.39
						 114.21 2.42 114.27 C2.44 114.33 2.44 114.42 2.44 114.52 C2.45 114.63 2.48 114.67 2.51 114.72 C2.55 114.76
						 2.52 114.8 2.53 114.85 C2.55 114.91 2.59 114.96 2.66 115.02 C2.73 115.07 2.79 115.06 2.92 115.13 C3.04 115.2
						 3.9 115.6 4.14 115.69 C4.38 115.78 4.53 115.83 4.62 115.95 C4.67 116.01 4.72 116.15 4.62 116.23 C4.53 116.32
						 4.52 116.33 4.46 116.33 C4.4 116.33 4.4 116.4 4.32 116.39 C4.25 116.38 4.23 116.37 4.16 116.43 C4.1 116.49
						 3.99 116.52 3.93 116.44 C3.87 116.35 3.83 116.27 3.74 116.19 C3.65 116.1 3.46 116.01 3.35 115.97 C3.24 115.92
						 3.05 115.85 2.93 115.8 C2.82 115.76 2.76 115.74 2.76 115.85 C2.75 115.95 2.76 116.02 2.79 116.1 C2.82 116.17
						 2.84 116.32 2.86 116.41 C2.89 116.5 2.97 116.56 2.96 116.66 C2.96 116.77 2.97 116.84 3 116.94 C3.05 117.08
						 3.09 117.16 3.1 117.23 C3.1 117.31 3.1 117.4 3.13 117.45 C3.15 117.5 3.18 117.53 3.2 117.66 C3.22 117.79
						 3.24 117.94 3.24 118.1 C3.24 118.26 3.23 118.35 3.17 118.43 C3.12 118.5 3.12 118.61 3.06 118.67 C3 118.73
						 2.97 118.78 2.97 118.84 C2.95 118.9 2.88 118.95 2.79 119.06 C2.7 119.16 2.55 119.31 2.48 119.38 C2.39 119.44
						 2.27 119.4 2.28 119.29 Z" class="st5"/>
		</g>
		<g id="shape61-121" v:mID="61" v:groupContext="shape" transform="translate(68.159,152.383) scale(1,-1)">
			<title>path132</title>
			<path d="M0.18 119.33 C0.31 119.22 0.56 119.04 0.77 118.9 C0.97 118.76 1.29 118.59 1.42 118.59 C1.55 118.59 1.65 118.59
						 1.74 118.55 C1.84 118.51 1.95 118.48 2.05 118.48 C2.15 118.48 2.33 118.46 2.46 118.48 C2.59 118.49 2.69
						 118.47 2.54 118.31 C2.4 118.15 2.3 118.12 2.2 118.02 C2.1 117.93 2.08 117.95 2.02 117.92 C1.97 117.89 1.95
						 117.88 1.89 117.79 C1.82 117.69 1.7 117.55 1.53 117.53 C1.35 117.51 1.18 117.55 1.08 117.65 C0.97 117.74
						 0.93 117.69 0.84 117.85 C0.74 118.01 0.7 118.14 0.64 118.27 C0.58 118.41 0.52 118.51 0.43 118.63 C0.33 118.75
						 0.24 118.89 0.18 118.97 C0.15 119.02 0.11 119.02 0.08 119.08 C0.05 119.13 0.07 119.17 0.07 119.2 C0.06 119.24
						 0 119.27 0.02 119.32 C0.04 119.38 0.05 119.44 0.18 119.33 Z" class="st5"/>
		</g>
		<g id="shape62-123" v:mID="62" v:groupContext="shape" transform="translate(72.015,146.383) scale(1,-1)">
			<title>path134</title>
			<path d="M1.09 118.81 C1.2 118.69 1.27 118.65 1.41 118.6 C1.55 118.55 1.84 118.14 1.89 117.96 C1.95 117.71 1.9 117.41
						 1.9 117.19 C1.91 116.96 1.95 116.84 1.84 116.75 C1.72 116.66 1.72 116.54 1.65 116.72 C1.57 116.91 1.58 117.14
						 1.4 117.24 C1.23 117.33 1.14 117.44 0.96 117.41 C0.78 117.37 0.72 117.36 0.79 117.19 C0.87 117.02 0.93 116.88
						 0.91 116.46 C0.89 116.19 0.95 116.01 1.05 115.92 C1.16 115.84 1.31 115.72 1.43 115.72 C1.54 115.72 1.57
						 115.66 1.49 115.58 C1.41 115.5 0.5 114.66 0.17 114.13 C0 113.85 0.01 113.83 0.11 113.72 C0.2 113.62 0.24
						 113.54 0.49 113.55 C0.74 113.55 0.94 113.59 1.05 113.71 C1.17 113.83 1.65 114.17 1.84 114.34 C2.02 114.51
						 2.61 115 3.02 115.36 C3.35 115.65 3.81 115.79 3.94 115.88 C4.14 116.02 4.21 115.96 4.28 116.02 C4.36 116.07
						 4.48 116.25 4.55 116.3 C4.63 116.35 4.87 116.37 4.99 116.39 C5.1 116.41 5.28 116.4 5.14 116.2 C4.99 116.01
						 4.81 115.84 4.68 115.75 C4.56 115.66 3.94 115.31 3.86 115.25 C3.78 115.2 3.71 115.17 3.55 115.18 C3.4 115.19
						 3.35 115.14 3.19 115.07 C3.03 114.99 2.99 115.07 2.85 114.93 C2.71 114.79 2.65 114.75 2.57 114.63 C2.48
						 114.51 2.49 114.43 2.57 114.36 C2.66 114.29 2.68 114.25 2.79 114.31 C2.9 114.36 2.99 114.35 3.06 114.38
						 C3.13 114.42 3.25 114.4 3.22 114.32 C3.2 114.23 3.16 114.17 3.17 114.06 C3.19 113.95 3.26 113.84 3.03 113.75
						 C2.81 113.67 2.54 113.61 2.38 113.55 C2.23 113.5 1.8 113.35 1.64 113.26 C1.47 113.18 1.08 113.02 0.94 112.91
						 C0.8 112.81 0.67 112.76 0.57 112.67 C0.46 112.57 0.4 112.48 0.43 112.33 C0.46 112.19 0.56 112.09 0.7 112.08
						 C0.84 112.08 0.91 111.97 1 111.93 C1.1 111.89 1.18 111.87 1.28 111.82 C1.38 111.77 1.49 111.71 1.7 111.54
						 C1.9 111.37 2.43 110.96 2.65 110.81 C2.87 110.67 3.02 110.56 3.15 110.57 C3.28 110.58 3.33 110.57 3.46 110.69
						 C3.59 110.81 3.65 110.81 3.63 111.03 C3.62 111.26 3.55 111.78 3.55 112.11 C3.55 112.44 3.61 112.41 3.59
						 112.6 C3.57 112.79 3.55 112.89 3.57 112.98 C3.6 113.08 3.64 113.14 3.76 113.14 C3.89 113.15 4.42 113.19
						 4.58 113.17 C4.74 113.15 4.79 113.12 4.93 113.22 C5.06 113.32 5.06 113.34 5.08 113.46 C5.1 113.58 5.19 113.56
						 5.07 113.72 C4.96 113.89 4.81 113.95 4.74 114.04 C4.66 114.14 4.62 114.18 4.47 114.08 C4.31 113.99 4.25
						 113.94 4.09 113.93 C3.94 113.92 3.91 113.91 3.84 113.92 C3.77 113.93 3.71 113.93 3.76 114.07 C3.82 114.2
						 3.89 114.35 4.03 114.48 C4.18 114.61 4.24 114.66 4.26 114.76 C4.28 114.85 4.26 114.92 4.26 115.03 C4.26
						 115.14 4.25 115.16 4.4 115.25 C4.54 115.33 5.04 115.69 5.2 115.84 C5.37 115.98 5.7 116.25 5.61 116.56 C5.56
						 116.75 5.44 116.82 5.26 116.84 C5.09 116.85 4.92 116.84 4.83 116.84 C4.71 116.84 4.71 116.89 4.78 116.98
						 C4.85 117.07 4.89 117.1 4.92 117.16 C4.96 117.21 5.04 117.38 5.13 117.5 C5.22 117.61 5.4 117.9 5.5 117.99
						 C5.6 118.08 5.69 118.24 5.77 118.33 C5.84 118.43 5.83 118.55 5.83 118.63 C5.83 118.72 5.77 118.85 5.65 118.92
						 C5.53 118.99 5.51 119.04 5.39 119 C5.26 118.95 5.04 118.83 4.9 118.74 C4.77 118.65 4.11 118.29 3.88 118.12
						 C3.64 117.95 3.29 117.77 3.21 117.73 C3.13 117.68 3.04 117.71 3.09 117.82 C3.15 117.92 3.18 117.99 3.31
						 118.07 C3.43 118.14 3.57 118.26 3.67 118.32 C3.78 118.38 4 118.54 4.04 118.64 C4.08 118.74 4.13 118.86 4.06
						 118.92 C3.99 118.99 3.84 119.11 3.75 119.19 C3.66 119.26 3.59 119.32 3.55 119.32 C3.5 119.33 3.46 119.38
						 3.4 119.41 C3.35 119.44 3.31 119.43 3.25 119.35 C3.19 119.27 3.2 119.21 3.23 119.15 C3.27 119.09 3.24 119.02
						 3.27 118.96 C3.3 118.9 3.3 118.85 3.34 118.83 C3.35 118.83 3.34 118.78 3.31 118.73 C3.28 118.68 3.3 118.61
						 3.24 118.53 C3.19 118.46 3.1 118.32 3.03 118.25 C2.96 118.18 2.94 118.13 2.84 118.19 C2.74 118.25 2.61 118.37
						 2.43 118.46 C2.26 118.54 2.03 118.61 1.94 118.7 C1.85 118.79 1.75 118.88 1.6 118.92 C1.45 118.97 1.25 119
						 1.16 119 C1.07 118.99 0.97 118.93 1.09 118.81 ZM2.31 117.73 C2.29 117.64 2.31 117.53 2.26 117.48 C2.2 117.43
						 2.21 117.39 2.19 117.34 C2.17 117.29 2.17 117.23 2.18 117.16 C2.19 117.08 2.23 117.01 2.29 117.06 C2.36
						 117.11 2.61 117.27 2.67 117.33 C2.72 117.38 2.76 117.5 2.69 117.53 C2.61 117.56 2.57 117.54 2.53 117.56
						 C2.48 117.57 2.45 117.59 2.47 117.66 C2.49 117.79 2.32 117.83 2.31 117.73 ZM2.31 117.73 C2.29 117.64 2.31
						 117.53 2.26 117.48 C2.2 117.43 2.21 117.39 2.19 117.34 C2.17 117.29 2.17 117.23 2.18 117.16 C2.19 117.08
						 2.23 117.01 2.29 117.06 C2.36 117.11 2.61 117.27 2.67 117.33 C2.72 117.38 2.76 117.5 2.69 117.53 C2.61 117.56
						 2.57 117.54 2.53 117.56 C2.48 117.57 2.45 117.59 2.47 117.66 C2.49 117.79 2.32 117.83 2.31 117.73 ZM2.58
						 116.93 C2.5 116.86 2.16 116.62 2.07 116.51 C1.97 116.41 1.81 116.15 1.72 116.02 C1.57 115.8 1.63 115.73
						 1.75 115.8 C1.84 115.85 1.82 115.87 1.87 115.88 C1.92 115.88 2.02 115.94 2.1 116.01 C2.18 116.08 2.31 116.11
						 2.39 116.13 C2.48 116.15 2.54 116.19 2.66 116.23 C2.77 116.27 2.78 116.25 2.89 116.28 C3 116.3 3.05 116.33
						 3.1 116.36 C3.15 116.39 3.15 116.41 3.1 116.47 C3.04 116.54 3.04 116.57 2.97 116.57 C2.86 116.57 2.78 116.59
						 2.72 116.54 C2.67 116.49 2.52 116.46 2.54 116.55 C2.57 116.64 2.58 116.72 2.63 116.79 C2.68 116.86 2.67
						 116.99 2.58 116.93 ZM2.58 116.93 C2.5 116.86 2.16 116.62 2.07 116.51 C1.97 116.41 1.81 116.15 1.72 116.02
						 C1.57 115.8 1.63 115.73 1.75 115.8 C1.84 115.85 1.82 115.87 1.87 115.88 C1.92 115.88 2.02 115.94 2.1 116.01
						 C2.18 116.08 2.31 116.11 2.39 116.13 C2.48 116.15 2.54 116.19 2.66 116.23 C2.77 116.27 2.78 116.25 2.89
						 116.28 C3 116.3 3.05 116.33 3.1 116.36 C3.15 116.39 3.15 116.41 3.1 116.47 C3.04 116.54 3.04 116.57 2.97
						 116.57 C2.86 116.57 2.78 116.59 2.72 116.54 C2.67 116.49 2.52 116.46 2.54 116.55 C2.57 116.64 2.58 116.72
						 2.63 116.79 C2.68 116.86 2.67 116.99 2.58 116.93 ZM3.36 117.05 C3.41 117.13 3.57 117.16 3.57 117.01 C3.57
						 116.86 3.56 116.78 3.5 116.72 C3.45 116.67 3.43 116.67 3.41 116.61 C3.39 116.55 3.32 116.54 3.29 116.6 C3.26
						 116.66 3.29 116.75 3.26 116.81 C3.24 116.87 3.3 116.96 3.36 117.05 ZM4.21 117.97 C4.3 118.06 4.34 118.1
						 4.5 118.21 C4.66 118.31 4.83 118.41 4.92 118.45 C5 118.48 5.06 118.49 5.09 118.51 C5.12 118.53 5.24 118.53
						 5.23 118.43 C5.22 118.33 5.18 118.24 5.17 118.19 C5.16 118.13 5.01 117.87 4.9 117.7 C4.79 117.53 4.59 117.17
						 4.54 117.02 C4.48 116.86 4.42 116.79 4.4 116.71 C4.38 116.63 4.37 116.63 4.31 116.57 C4.25 116.52 4.21 116.47
						 4.11 116.46 C4 116.46 4.01 116.45 3.96 116.46 C3.91 116.46 3.91 116.5 3.97 116.56 C4.03 116.63 4.07 116.69
						 4.07 116.74 C4.07 116.79 4.11 116.84 4.15 116.88 C4.19 116.93 4.19 116.96 4.2 117 C4.2 117.04 4.24 117.06
						 4.27 117.1 C4.3 117.15 4.3 117.18 4.31 117.24 C4.32 117.31 4.37 117.29 4.36 117.39 C4.35 117.49 4.38 117.59
						 4.32 117.66 C4.26 117.73 4.26 117.79 4.21 117.84 C4.15 117.88 4.18 117.94 4.21 117.97 ZM1.09 114.58 C1.17
						 114.7 1.55 115.21 1.8 115.4 C2.04 115.59 2.3 115.72 2.45 115.79 C2.6 115.87 2.81 115.91 2.86 115.95 C2.91
						 115.98 3.01 115.97 3.07 115.98 C3.13 115.99 3.19 116.03 3.27 116.03 C3.35 116.04 3.45 116.01 3.35 115.93
						 C3.25 115.86 2.65 115.43 2.5 115.34 C2.35 115.25 1.66 114.76 1.5 114.66 C1.34 114.56 1.26 114.53 1.18 114.48
						 C1.06 114.4 1 114.46 1.09 114.58 ZM1.31 112.33 C1.46 112.43 1.63 112.52 1.76 112.57 C1.9 112.63 2.43 112.79
						 2.57 112.82 C2.7 112.86 2.87 112.88 2.91 112.82 C2.97 112.74 2.89 112.75 2.89 112.65 C2.89 112.5 2.9 112.37
						 2.9 112.33 C2.9 112.28 2.94 112.23 2.94 112.15 C2.93 112.06 2.94 111.83 2.93 111.75 C2.92 111.67 2.93 111.63
						 2.91 111.58 C2.89 111.54 2.89 111.52 2.89 111.47 C2.89 111.42 2.9 111.37 2.83 111.35 C2.77 111.33 2.8 111.31
						 2.67 111.37 C2.55 111.43 2.18 111.59 2.07 111.66 C1.96 111.73 1.82 111.83 1.68 111.9 C1.54 111.97 1.37 112.09
						 1.28 112.12 C1.19 112.16 1.16 112.23 1.31 112.33 Z" class="st5"/>
		</g>
		<g id="shape63-125" v:mID="63" v:groupContext="shape" transform="translate(46.69,139.186) scale(1,-1)">
			<title>path136</title>
			<path d="M2.84 119.44 L2.84 115.67 L1.51 115.67 L1.51 118.26 C1.09 118.03 0.59 117.85 0 117.72 L0 118.47 C0.87 118.66
						 1.45 118.98 1.76 119.44 L2.84 119.44 Z" class="st5"/>
		</g>
		<g id="shape64-127" v:mID="64" v:groupContext="shape" transform="translate(55.967,139.186) scale(1,-1)">
			<title>path138</title>
			<path d="M0 116.66 L1.3 116.77 C1.38 116.41 1.64 116.22 2.08 116.22 C2.31 116.22 2.5 116.28 2.63 116.4 C2.77 116.51 2.83
						 116.65 2.83 116.81 C2.83 116.97 2.77 117.1 2.64 117.21 C2.5 117.32 2.33 117.38 2.12 117.38 C1.96 117.38
						 1.79 117.36 1.59 117.32 L1.7 117.98 C1.74 117.98 1.78 117.98 1.82 117.98 C2.05 117.98 2.23 118.02 2.38 118.1
						 C2.52 118.19 2.59 118.3 2.59 118.44 C2.59 118.55 2.54 118.64 2.44 118.72 C2.33 118.79 2.19 118.83 2.01 118.83
						 C1.61 118.83 1.37 118.66 1.31 118.33 L0.08 118.47 C0.28 119.12 0.94 119.44 2.05 119.44 C2.66 119.44 3.12
						 119.35 3.43 119.16 C3.74 118.97 3.9 118.75 3.9 118.49 C3.9 118.16 3.63 117.9 3.1 117.71 C3.46 117.65 3.73
						 117.54 3.91 117.38 C4.09 117.23 4.17 117.04 4.17 116.82 C4.17 116.48 3.99 116.2 3.62 115.96 C3.26 115.72
						 2.76 115.61 2.12 115.61 C1.55 115.61 1.07 115.69 0.7 115.87 C0.32 116.05 0.09 116.31 0 116.66 Z"
					class="st5"/>
		</g>
		<g id="shape65-129" v:mID="65" v:groupContext="shape" transform="translate(60.775,139.186) scale(1,-1)">
			<title>path140</title>
			<path d="M0 116.66 L1.3 116.77 C1.38 116.41 1.64 116.22 2.08 116.22 C2.32 116.22 2.5 116.28 2.63 116.4 C2.77 116.51 2.83
						 116.65 2.83 116.81 C2.83 116.97 2.77 117.1 2.64 117.21 C2.5 117.32 2.33 117.38 2.12 117.38 C1.96 117.38
						 1.79 117.36 1.6 117.32 L1.7 117.98 C1.74 117.98 1.78 117.98 1.82 117.98 C2.05 117.98 2.23 118.02 2.38 118.1
						 C2.52 118.19 2.6 118.3 2.6 118.44 C2.6 118.55 2.54 118.64 2.44 118.72 C2.34 118.79 2.19 118.83 2.01 118.83
						 C1.61 118.83 1.38 118.66 1.31 118.33 L0.08 118.47 C0.29 119.12 0.94 119.44 2.05 119.44 C2.66 119.44 3.12
						 119.35 3.43 119.16 C3.75 118.97 3.9 118.75 3.9 118.49 C3.9 118.16 3.64 117.9 3.1 117.71 C3.46 117.65 3.73
						 117.54 3.91 117.38 C4.09 117.23 4.18 117.04 4.18 116.82 C4.18 116.48 3.99 116.2 3.63 115.96 C3.26 115.72
						 2.76 115.61 2.12 115.61 C1.55 115.61 1.07 115.69 0.7 115.87 C0.32 116.05 0.09 116.31 0 116.66 Z"
					class="st5"/>
		</g>
		<g id="shape66-131" v:mID="66" v:groupContext="shape" transform="translate(44.44,150.767) scale(1,-1)">
			<title>path142</title>
			<path d="M0.13 119.04 C0.27 119.12 0.38 119.13 0.48 119.19 C0.59 119.26 0.77 119.34 0.86 119.39 C0.96 119.44 1.09 119.43
						 0.98 119.32 C0.86 119.21 0.65 119.07 0.53 119 C0.41 118.93 0.35 118.9 0.27 118.9 C0.19 118.89 0.2 118.83
						 0.1 118.85 C0 118.88 0 118.96 0.13 119.04 Z" class="st3"/>
		</g>
		<g id="shape67-133" v:mID="67" v:groupContext="shape" transform="translate(73.013,149.789) scale(1,-1)">
			<title>path144</title>
			<path d="M0.09 117.98 C0.17 118.1 0.56 118.62 0.8 118.81 C1.04 119 1.31 119.12 1.45 119.2 C1.6 119.27 1.81 119.32 1.86
						 119.35 C1.91 119.39 2.01 119.37 2.07 119.38 C2.13 119.39 2.19 119.43 2.27 119.44 C2.36 119.44 2.45 119.41
						 2.35 119.34 C2.25 119.26 1.65 118.83 1.5 118.74 C1.36 118.65 0.66 118.16 0.5 118.06 C0.34 117.96 0.26 117.93
						 0.18 117.88 C0.06 117.81 0 117.86 0.09 117.98 Z" class="st3"/>
		</g>
		<g id="shape68-135" v:mID="68" v:groupContext="shape" transform="translate(73.588,148.838) scale(1,-1)">
			<title>path146</title>
			<path d="M1.01 119.38 C0.92 119.32 0.59 119.07 0.49 118.97 C0.4 118.86 0.24 118.61 0.15 118.47 C0 118.26 0.06 118.18
						 0.18 118.25 C0.27 118.3 0.25 118.32 0.3 118.33 C0.35 118.34 0.45 118.4 0.53 118.47 C0.61 118.54 0.73 118.57
						 0.82 118.59 C0.9 118.61 0.97 118.65 1.08 118.69 C1.2 118.73 1.21 118.71 1.32 118.73 C1.43 118.76 1.48 118.78
						 1.53 118.82 C1.58 118.85 1.58 118.86 1.52 118.93 C1.46 119 1.46 119.03 1.4 119.03 C1.28 119.03 1.21 119.04
						 1.15 118.99 C1.1 118.94 0.94 118.91 0.97 119 C1 119.09 1.01 119.18 1.06 119.25 C1.11 119.32 1.1 119.44 1.01
						 119.38 Z" class="st3"/>
		</g>
		<g id="shape69-137" v:mID="69" v:groupContext="shape" transform="translate(54.346,150.136) scale(1,-1)">
			<title>path148</title>
			<path d="M0.05 119.1 C0.09 119.16 0.18 119.27 0.26 119.34 C0.33 119.4 0.35 119.41 0.4 119.43 C0.44 119.44 0.53 119.36
						 0.48 119.29 C0.43 119.21 0.24 118.98 0.17 118.91 C0.11 118.84 0.04 118.81 0.02 118.92 C0 119.03 0.02 119.03
						 0.05 119.1 Z" class="st3"/>
		</g>
		<g id="shape70-139" v:mID="70" v:groupContext="shape" transform="translate(78.183,180.654) scale(1,-1)">
			<title>path150</title>
			<path d="M0 119 C0 119.24 0.2 119.44 0.45 119.44 C0.69 119.44 0.89 119.24 0.89 119 C0.89 118.75 0.69 118.55 0.45 118.55
						 C0.2 118.55 0 118.75 0 119 Z" class="st3"/>
		</g>
		<g id="shape71-141" v:mID="71" v:groupContext="shape" transform="translate(33.244,180.941) scale(1,-1)">
			<title>path152</title>
			<path d="M0 119 C0 119.25 0.2 119.44 0.45 119.44 C0.69 119.44 0.9 119.25 0.9 119 C0.9 118.75 0.69 118.55 0.45 118.55
						 C0.2 118.55 0 118.75 0 119 Z" class="st3"/>
		</g>
		<g id="shape72-143" v:mID="72" v:groupContext="shape" transform="translate(51.134,139.186) scale(1,-1)">
			<title>path170</title>
			<path d="M0.11 116.52 L1.4 116.63 C1.47 116.35 1.67 116.22 2 116.22 C2.24 116.22 2.43 116.29 2.56 116.45 C2.7 116.6 2.79
						 116.87 2.83 117.25 L2.81 117.26 C2.53 117.04 2.16 116.92 1.7 116.92 C1.22 116.92 0.81 117.04 0.48 117.28
						 C0.16 117.51 0 117.81 0 118.16 C0 118.53 0.18 118.84 0.55 119.08 C0.91 119.32 1.39 119.44 2 119.44 C2.71
						 119.44 3.25 119.28 3.62 118.94 C3.99 118.61 4.17 118.15 4.17 117.56 C4.17 116.95 3.98 116.47 3.59 116.12
						 C3.2 115.77 2.64 115.6 1.89 115.6 C1.41 115.6 1.02 115.68 0.71 115.84 C0.4 116 0.2 116.22 0.11 116.52 Z"
					class="st5"/>
		</g>
		<g id="shape73-145" v:mID="73" v:groupContext="shape" transform="translate(52.391,139.803) scale(1,-1)">
			<title>path172</title>
			<path d="M1.5 118.75 C1.5 118.95 1.42 119.11 1.27 119.25 C1.12 119.38 0.94 119.44 0.71 119.44 C0.5 119.44 0.33 119.38
						 0.2 119.27 C0.07 119.15 0 118.98 0 118.78 C0 118.58 0.07 118.42 0.2 118.3 C0.34 118.18 0.53 118.12 0.75
						 118.12 C0.97 118.12 1.14 118.18 1.28 118.29 C1.42 118.4 1.5 118.56 1.5 118.75 Z" class="st3"/>
		</g>
	</g>
</svg>
